<?xml version="1.0" encoding="UTF-8" standalone="no"?>
<!-- Generator: Adobe Illustrator 15.0.0, SVG Export Plug-In . SVG Version: 6.00 Build 0)  -->

<svg
   xmlns:dc="http://purl.org/dc/elements/1.1/"
   xmlns:cc="http://creativecommons.org/ns#"
   xmlns:rdf="http://www.w3.org/1999/02/22-rdf-syntax-ns#"
   xmlns:svg="http://www.w3.org/2000/svg"
   xmlns="http://www.w3.org/2000/svg"
   xmlns:sodipodi="http://sodipodi.sourceforge.net/DTD/sodipodi-0.dtd"
   xmlns:inkscape="http://www.inkscape.org/namespaces/inkscape"
   version="1.1"
   id="Layer_1"
   x="0px"
   y="0px"
   width="509px"
   height="716.105px"
   viewBox="0 0 509 716.105"
   enable-background="new 0 0 509 716.105"
   xml:space="preserve"
   inkscape:version="0.92.4 (5da689c313, 2019-01-14)"
   sodipodi:docname="koreaaa.svg"><metadata
   id="metadata439"><rdf:RDF><cc:Work
       rdf:about=""><dc:format>image/svg+xml</dc:format><dc:type
         rdf:resource="http://purl.org/dc/dcmitype/StillImage" /><dc:title></dc:title></cc:Work></rdf:RDF></metadata><defs
   id="defs437" /><sodipodi:namedview
   pagecolor="#ffffff"
   bordercolor="#666666"
   borderopacity="1"
   objecttolerance="10"
   gridtolerance="10"
   guidetolerance="10"
   inkscape:pageopacity="0"
   inkscape:pageshadow="2"
   inkscape:window-width="1920"
   inkscape:window-height="1001"
   id="namedview435"
   showgrid="false"
   inkscape:zoom="0.65912124"
   inkscape:cx="246.15426"
   inkscape:cy="482.16765"
   inkscape:window-x="-9"
   inkscape:window-y="-9"
   inkscape:window-maximized="1"
   inkscape:current-layer="Layer_1" />


<rect
   style="fill:#afdde9;fill-opacity:1;stroke:none"
   id="rect3648"
   width="509"
   height="716.09998"
   x="-6.9413049e-006"
   y="0.005024414" />















<g
   transform="translate(-49.250007,-85.395)"
   id="_xB7__xB9_ÀÌ_xBE_î_x5F_3"
   style="fill:#b9b9b9;fill-opacity:1"><polygon
     points="146.167,226 147.5,222.833 145.333,217.5 135.167,210.333 133,212.167 130.167,212.167 126,216.333 126.833,223.667 124.833,224.333 125.333,229.167 131.167,234.5 131.333,238.833 127.333,241.667 129.667,246.167 140,247.5 145.333,248.333 150.833,244.833 150,242.333 147.167,239.333 148.5,236.333 147,232.833 147.833,229.833 "
     id="polygon10"
     style="fill:#b9b9b9;fill-opacity:1;stroke:#ffffff" /><polygon
     points="135.333,258.333 138.667,259.667 139.833,256.833 138.5,255.333 "
     id="polygon12"
     style="fill:#b9b9b9;fill-opacity:1;stroke:#ffffff" /><polygon
     points="126.667,238.667 128.667,234 123.333,228.833 122.167,222.333 118,223.333 116.833,228.667 115.167,229 122.167,234.667 122.333,239.167 "
     id="polygon14"
     style="fill:#b9b9b9;fill-opacity:1;stroke:#ffffff" /><polygon
     points="108,218.667 110.5,222.667 115.5,220 119.333,220.5 123.667,215.333 122.333,214 117.333,212.833 113,212 109.667,213.5 109.333,215.833 "
     id="polygon16"
     style="fill:#b9b9b9;fill-opacity:1;stroke:#ffffff" /><polygon
     points="142.667,270.167 145.167,266.667 148.833,265.667 153.667,263.833 151,259.5 145.167,256.333 143.667,257.833 142.5,261.667 135.667,262 136.333,264.667 133.5,266.667 138,272.667 "
     id="polygon18"
     style="fill:#b9b9b9;fill-opacity:1;stroke:#ffffff" /><polygon
     points="140.167,276.5 138,275.667 136.333,276.167 138.833,278.833 "
     id="polygon20"
     style="fill:#b9b9b9;fill-opacity:1;stroke:#ffffff" /><polygon
     points="143.667,298 139.333,296.167 135.833,298.333 136,304.167 138.5,305.167 141.333,302.833 142.5,301.333 145.167,300.833 "
     id="polygon22"
     style="fill:#b9b9b9;fill-opacity:1;stroke:#ffffff" /><polygon
     points="99.833,307.667 102,305.167 98.667,302 96.167,300.667 95.833,298.333 94.5,298 93.333,301.5 92.5,306.167 95.5,306.833 97.5,308.333 "
     id="polygon24"
     style="fill:#b9b9b9;fill-opacity:1;stroke:#ffffff" /><polygon
     points="122.833,303.5 125.5,301.167 122.833,299.833 117.5,297.833 117.667,300.167 "
     id="polygon26"
     style="fill:#b9b9b9;fill-opacity:1;stroke:#ffffff" /><polygon
     points="69.5,260.75 69.25,258.25 69.75,256.75 73.75,255 71.5,252.5 67,252.25 64,253.5 60.25,253.25 59.5,254.25 61.5,257 62.75,259.5 66.25,259.75 "
     id="polygon28"
     style="fill:#b9b9b9;fill-opacity:1;stroke:#ffffff" /><polygon
     points="66.25,272.75 64.5,273.75 66.75,276.25 69.75,275.75 70.5,273.5 70.5,271.5 68.75,270.5 "
     id="polygon30"
     style="fill:#b9b9b9;fill-opacity:1;stroke:#ffffff" /><polygon
     points="90.25,274 90,275.75 93,277.25 93,275.75 93.5,274.25 "
     id="polygon32"
     style="fill:#b9b9b9;fill-opacity:1;stroke:#ffffff" /><polygon
     points="173.667,248.5 172.196,247.683 172.333,247.5 162.833,240.5 160.333,245 152.917,248.25 156.417,252.583 156.833,257.167 163,257.75 158.75,258.417 158.667,261.167 160.459,261.416 159.125,262.75 157.125,264.063 156.938,264.063 156.75,266.313 155.375,268.25 155.313,270.375 156.375,271.313 157.813,270.125 158,272.188 159.833,273.333 159.833,273.333 161.25,275.583 164.583,278.333 167.333,280.25 172.75,280.417 179,268.5 177.25,267.25 174.667,265 174.583,260.75 176.5,259.167 176.5,258.417 177.083,253.583 180.083,249.583 179.5,249.083 "
     id="polygon34"
     style="fill:#b9b9b9;fill-opacity:1;stroke:#ffffff" /></g><g
   transform="translate(-49.250007,-85.395)"
   id="_xB7__xB9_ÀÌ_xBE_î_x5F_4"
   style="fill:#b9b9b9;fill-opacity:1"><polygon
     points="148.75,304.25 148.875,309.625 151.875,309.75 154.5,305.75 158.25,308.5 158.125,304.625 159.375,303.5 158.875,302.125 157.25,299.75 154.125,299.25 152.5,296.5 148,295.875 150.25,299.875 151.25,302.875 "
     id="polygon37"
     style="fill:#b9b9b9;fill-opacity:1;stroke:#ffffff" /><polygon
     points="274.833,236.833 275.333,227.167 270.5,227.833 270.833,224 273.667,220.667 271.167,216.167 273,213.333 272.167,208.667 278.833,202.333 281.667,202.333 282.667,196.667 280.5,193.833 280.167,190.167 272.167,189.833 272.5,183.5 263.833,182.833 263.167,181.333 262.333,176.833 260.667,166.667 259,165.5 257.833,167.167 252.333,165.167 248.667,167.833 247.167,169.333 245.167,165.833 241,164.833 242.5,156.333 240.333,155 233,161.333 229.029,157.68 229.167,154.333 227,150.833 224.833,145.5 221.333,147.333 219.5,145 219.667,138.167 210.333,142.833 204,147.667 201.833,152 199.667,150.5 195.5,152.5 193.167,151.833 190.167,147.833 174.5,163.833 178.333,167.5 179.667,170.667 185.833,171 190.167,168.833 193.5,171.833 191.833,177.667 191.167,181.333 185.833,178.667 184.667,183.667 182.333,185.167 183.333,189.667 185.5,189.5 183.833,199.833 181.333,200.667 180.5,197.333 178.167,197.167 178.833,194.167 177.667,188.5 176,186.167 173.5,189.667 173.667,191.5 170.833,194.5 165,190.833 164.833,197.333 170.333,197.667 176.333,207.5 169,208.167 165.833,209.833 164.833,217.833 161.667,218.167 158.333,222.5 152,222 150.167,219.833 146.5,220 147.5,222.833 147.833,225.167 147.333,226 148.333,231.333 148.333,234 149.167,237.333 149,240.333 151.833,243.167 151.833,245.833 152.667,248.333 160.333,245 162.833,240.5 173.667,248.5 180.333,249.167 181.914,246.164 182.167,246.5 186.667,249.5 190.167,249.667 192.167,247.667 194.667,247 195,240.5 197,239.833 199.667,236.833 201.333,239.667 203.667,241.667 204.5,239.667 205.333,234.333 208.667,230.5 212.5,233.333 214.167,232 217.167,232.333 217.667,238.167 218.833,240 220.667,244.167 220.833,247.833 218.833,249.833 220.5,252.667 224,250.667 227.667,251 228.5,252.667 228.833,255.167 225,258 224.667,260 225.833,263 223.667,265.833 222,267.833 219,268 214.833,273.833 212.333,272.833 212.333,272.833 210.667,268.833 204.5,268.333 201.667,272.167 199.5,272.333 197,270.167 193.833,272.167 191,265.5 189.667,263.667 187.167,265.333 184.167,266.5 183,262.833 185,261.167 183.5,256.333 177.167,253.833 176.5,259.167 174.333,260.667 174.667,264.667 178.5,268.5 178.5,269.167 172.833,280 170.833,282.833 166.833,287.333 171.5,290.833 177.125,293.875 183,294.25 184.5,294.125 187.25,298 184.625,297.375 180.5,297.5 179.375,300.625 178.5,303.125 175.5,300.375 173.875,300.75 170.25,300.375 168.5,299.5 166.125,300.25 163.875,303.125 165.625,305.875 163.625,310.75 163.25,313.75 163.375,316.375 167.375,316 166,319.375 167.875,322.5 171.875,319.375 175,315.25 179.5,315.25 181.25,312.875 181.125,317 182.875,318 181.25,320.375 176,320.875 176.25,323.75 176.25,326.375 176.125,330.5 173.5,333 173.5,335.25 180.375,336.375 181.5,338.125 179.75,340 185.125,341.625 186.5,347.125 193.25,351.125 194.75,354.875 195.875,354.875 206,349.75 210.875,351.375 217.375,348.5 220.625,344.25 223.375,344.25 230.375,347.125 233.625,351.375 237.875,351.75 242.625,355.875 244,353.875 246.625,349 252.5,349 256.25,345.625 254.75,343.75 255,339.875 259.75,339.125 263.5,336.125 263.5,332.375 270.5,331 274.333,332 276.833,333.333 277.667,328.5 279.833,328 282,328.833 281.833,326.167 285.333,325 285,315.5 292.333,319.167 298.167,309.667 299.834,301.667 301.334,291 301,282.5 306.5,271.833 305.167,265.5 300.5,262.167 307.833,255.333 312.167,254.167 305.833,249.167 301.833,247.5 293.833,247.5 281.5,239.333 275.333,242.333 272.5,238 "
     id="polygon39"
     style="fill:#b9b9b9;fill-opacity:1;stroke:#ffffff" /></g><g
   transform="translate(-49.250007,-85.395)"
   id="_xB7__xB9_ÀÌ_xBE_î_x5F_28"
   style="fill:#b9b9b9;fill-opacity:1"><path
     inkscape:connector-curvature="0"
     d="m 499.5,305.167 0.333,-1.667 -0.833,-2 2.833,-1.667 -4.666,-7.5 -4.167,-4.166 -3.167,-1.333 -2.5,-7.333 1.167,-2.167 -8.167,-5.5 -0.5,-5.5 -3.5,-3 -2.666,-4.667 -4.5,-6.167 2.166,-2.5 -1.5,-3.333 -6.666,-5 L 461,237.5 c 0,0 1.333,-4.667 1.5,-5.333 0.167,-0.666 -12.5,-12.334 -12.5,-12.334 h -1.667 l 0.334,-3 -9.167,-9.833 -5.333,-6.167 -0.5,-4.333 -2.167,-1 -5.5,-8 -1.333,-3 -3.334,-3.5 -0.333,-3.667 -2.167,-0.333 -5.166,-5.5 -0.334,-2.833 -7.166,-8.5 -0.5,-3.833 -0.167,-3.667 -1.833,-2.667 1,-1 -2,-3.667 -8.334,-17.5 -1.333,-4.333 -7.167,-10 1.334,-1.833 -8,-14.167 v -3.167 l -6.5,-8.333 -5.334,2.167 -0.333,14.166 -1.167,7.833 -9.798,12.368 -0.035,-0.034 -12,7.5 -7,4 -6.25,-1.5 -5,-1 -3.25,-1.5 -8,-1 -3.25,2.25 -3.417,1.583 -2.333,-1.167 -3,-3.5 -1.833,-0.833 -4,2.667 -3.667,-1 -1.667,2.333 -8.5,-0.5 -2.167,-0.167 h -3.833 l -7,5.167 -3.833,-0.333 -1.667,-2.167 h -3 l -3.166,-2.333 -6.5,-0.667 -1.667,2 -4.167,-0.333 -2,2.333 -1.333,-3 h -4.333 l -1.5,-0.833 -6.167,3.333 -2.667,-0.833 -1.667,-1.833 -2.833,0.333 -1.667,4.667 -2.167,2.5 V 145 l 1.833,2.333 3.5,-1.833 2.167,5.333 2.167,3.5 -0.333,3.167 4.167,3.833 7.333,-6.333 2.167,1.333 -1.5,8.5 4.167,1 2,3.5 1.5,-1.5 3.667,-2.667 5.5,2 1.166,-1.666 1.833,1.667 1.5,9.667 0.833,4.5 0.667,1.5 8.667,0.667 -0.333,6.333 8,0.333 0.333,3.667 2.167,2.833 -1,5.667 h -2.833 l -6.667,6.333 0.833,4.667 -1.833,2.833 2.5,4.5 -2.834,3.333 -0.333,3.833 4.833,-0.667 -0.5,9.667 -2.333,1.167 2.833,4.333 6.167,-3 12.333,8.167 8.5,0.167 3.5,1.5 6.334,5 -4.334,1.167 -7.333,6.833 4.667,3.333 1.333,6.333 -5.5,10.667 0.334,8.5 -1.584,12 -1.583,6.667 8.333,8.083 7.75,-2.75 5,1 3.5,-2.5 0.25,-3 -0.75,-6.25 5.25,-3.75 5.25,1 2.5,5.5 v 2.75 L 344,308 l 3.25,-5.25 4.75,3 4.25,-4.25 1.5,-0.75 4.25,2.583 2.833,3.167 6.167,-2.333 1.833,0.5 0.334,2.333 -7.667,6.333 2.667,4.5 6.166,-2.5 H 380 l 4.167,6.167 6.166,-0.167 5,-1 8,4.833 6.167,-0.833 5,4 7.333,3.333 4.834,1.333 -1,-3.333 2,-2.333 2.5,-3.167 6.833,4 4,1.167 4.833,-0.667 2.334,-6.333 4.333,2.5 3,-1 5.667,1.5 3.833,0.667 0.667,-2.333 2.833,-2.333 3.667,0.833 9,7.5 5.333,-0.333 -0.333,-5.334 5.833,-5.667 3.667,-0.333 3.666,-4.167 h 3.5 l -3.333,-8.666 z"
     id="path42"
     style="fill:#b9b9b9;fill-opacity:1;stroke:#ffffff" /></g><g
   transform="translate(-49.250007,-85.395)"
   id="_xB7__xB9_ÀÌ_xBE_î_x5F_39"
   style="fill:#b9b9b9;fill-opacity:1"><path
     inkscape:connector-curvature="0"
     d="m 409.5,324.333 -6.167,0.833 -8,-4.833 -3.958,0.792 -7.208,0.375 -4.167,-6.167 h -5.667 l -6.166,2.5 -2.667,-4.5 7.667,-6.333 -0.334,-2.333 -2.208,-0.417 -5.792,2.25 -2.833,-3.167 -4.25,-2.583 -1.5,0.75 -4.25,4.25 -4.75,-3 -3.25,5.25 -8.75,1.75 V 307 l -2.5,-5.5 -5.25,-1 -5.25,3.75 0.625,5.75 -0.125,3.125 v 0.375 l -3.5,2.5 -5,-1 -7.75,2.75 -8.333,-8.083 -5.542,8.833 -0.25,0.375 -7.375,-3.375 0.25,9.125 -3.417,1.542 0.167,2.667 -2.167,-0.834 -2.167,0.5 -0.917,4.375 -2.125,-1 -4.124,-0.875 -7,1.375 v 3.75 l -3.75,3 -4.75,0.75 -0.25,3.875 1.5,1.875 -3.25,3.208 -6.375,0.167 -4,6.875 2.542,1.958 0.833,3.833 2.833,0.833 0.167,4.667 5.167,2.333 3.333,2.667 -0.333,2.834 2.167,1.833 c 0,0 -0.326,1.222 -0.35,1.9 l -0.108,0.017 -2.625,1 -2.5,-1.5 -3.251,-0.25 -2.5,1.25 0.25,2.625 -2.75,1.5 -0.625,3 -2.25,1.25 0.078,0.332 0.38,-0.011 0.424,1.804 h 1.242 l -0.042,0.321 h 0.5 l -0.5,3.875 -2.75,1.875 1.029,2.469 0.961,1.411 1.26,1.496 v 4 l 2.012,0.82 0.904,0.234 0.2,0.216 0.258,0.105 3.25,3.5 2.5,-0.916 4.208,1.416 -5.656,1.75 -1.302,2.375 1.75,2.625 1.254,0.717 0.038,-0.038 0.27,0.213 0.189,0.108 -0.023,0.023 1.939,1.531 0.125,4.75 4.625,0.875 1.5,1 2.375,-3.5 1.5,-1.75 1,3.5 1.25,1.125 -0.873,3.124 2.125,4 1.25,-2.5 3.292,0.833 0.5,1.667 1.667,0.833 -1.834,1.167 -2.5,0.833 -0.5,5.5 -2.833,2.334 -0.833,4.666 0.833,3.5 -1.167,3.167 0.167,4.333 3.5,-0.833 1.667,-0.667 2.167,3.334 4.167,-0.334 1.667,1.834 0.667,5.166 0.167,4 -1.5,3.5 3.5,3.334 2.5,5.833 3.167,4.167 3.164,-2.667 1.5,2.167 2,2.5 5.167,1.333 1.166,2.333 7.5,-2.333 2.667,-1 3.833,1.833 4.5,-5 6.5,-2.166 0.667,-5.5 0.833,-3.5 3,-4.334 -1.333,-3 -1,-4.166 3,-0.5 4.5,1.333 3.167,-0.333 -4.834,-6.834 2.334,-2.833 -2.167,-2 -4.333,-0.167 -2.667,2.5 -5.333,-2.833 c 0,0 -2.834,-3.5 -3.334,-4.167 -0.5,-0.667 -2.833,4 -2.833,4 l -3.333,-0.5 -2.167,-5.166 6.167,-7 -0.5,-3 -2.834,-3.834 2.167,-2.833 -0.667,-2 0.167,-9.167 3.333,-2 0.334,-2.833 -4.334,-4.5 -1,-3.667 h -3.5 l -4.5,-2.5 -0.333,-2.583 7.5,-1.875 -0.875,-2.25 3,-3.375 1.75,2.25 4.75,5 1.875,-7 -2.875,-2.875 -3.125,-2.75 2.875,-0.5 3.25,-2.375 2.5,-5 4.125,2.625 2,-1.75 4.75,3.375 3.5,-1 -6.125,-6.125 2.375,-4.25 1.5,-5.5 -0.5,-0.375 2.625,0.375 1.375,1.625 3.75,-3.25 2.5,-2 6.375,3 3.125,-0.375 V 362 l 3.607,-3.607 0.018,0.107 3.125,0.75 6.5,7.625 3.75,1.375 2.25,2.125 3.5,-3.375 3.875,0.25 3.75,-5.75 -1,-2.75 -1.625,-3.375 2,-5.625 9.625,-9.25 2.625,-0.875 2.25,-3.75 2.25,-4.25 6.25,-0.125 2.75,-3.167 -5,-4 z"
     id="path45"
     style="fill:#b9b9b9;fill-opacity:1;stroke:#ffffff" /></g><g
   transform="translate(-49.250007,-85.395)"
   id="_xB7__xB9_ÀÌ_xBE_î_x5F_24"
   style="fill:#b9b9b9;fill-opacity:1"><polygon
     points="268.125,424.75 267.125,421.25 265.625,423 263.375,426.125 261.75,425.5 257.125,424.625 257,419.875 254.625,418 253.25,419.375 250.875,419.125 251.375,423.375 250.875,426.75 247.5,430.375 243.25,430.75 240.5,434 240.5,443.375 238.875,446.375 238.375,450.625 236.75,452.25 243,455.375 242.125,458.625 245.625,462.5 249.25,466.5 252.25,462 252.125,456.625 253.875,453.75 254,453.25 255.25,454.125 255.625,460 259.5,463.875 262.5,466.125 268.667,459.333 268.5,455 269.667,451.833 268.875,448 269.667,443.667 272.625,441 273,435.833 275.125,435.5 277.333,433.833 275.667,433 275.167,431.333 272,430.875 270.625,433 268.5,429.375 268.5,429 269.375,425.875 "
     id="polygon48"
     style="fill:#b9b9b9;fill-opacity:1;stroke:#ffffff" /></g><g
   transform="translate(-49.250007,-85.395)"
   id="_xB7__xB9_ÀÌ_xBE_î_x5F_9"
   style="fill:#b9b9b9;fill-opacity:1"><polygon
     points="116.625,344.625 116.625,348.875 119.25,351 119.75,347 118.625,342.875 "
     id="polygon51"
     style="fill:#b9b9b9;fill-opacity:1;stroke:#ffffff" /><polygon
     points="125.375,399.875 122,402 119.375,406.125 121.75,411 122,418.75 121.5,423.25 124.5,428.375 125.75,430.75 130.125,432.5 131.875,434.125 135.25,430.375 133.625,423.125 130.375,415.25 129.375,411.75 130.625,406.375 130,402.75 "
     id="polygon53"
     style="fill:#b9b9b9;fill-opacity:1;stroke:#ffffff" /><path
     inkscape:connector-curvature="0"
     d="m 134.5,436.75 c -0.5,0 -5.625,0.875 -5.625,0.875 l 0.25,1.625 5.375,0.75 2.875,1.25 0.5,-1.125 -2.5,-2.25 -0.875,-1.125 z"
     id="path55"
     style="fill:#b9b9b9;fill-opacity:1;stroke:#ffffff" /><path
     inkscape:connector-curvature="0"
     d="m 287.167,484.5 -2.5,-5.833 -3.5,-3.334 1.5,-3.5 -0.167,-4 -0.667,-4.666 -1.667,-2.334 h -3.833 l -2.5,-3 -4.667,1.334 -6.667,6.958 -2.833,-2.625 -4.042,-3.5 -0.375,-5.875 -1.375,-0.375 -1.708,2.417 0.084,5.833 -3,4.125 -7.125,-7.5 0.875,-3.25 -6.25,-3.125 1.625,-1.625 L 239,446 l 0.046,-0.137 -1.962,-3.292 -3.375,-0.875 0.438,-2.125 -1.188,-1.75 0.667,-7.082 -1.75,-2.668 0.75,-2.166 -1,-3.084 -3.084,-1.832 -0.833,-0.668 -1.583,0.834 -1.667,-4 2.917,-6.166 -2.042,-12.793 1.375,-4 -0.625,-5.375 -2.625,-2.5 1.75,-3.25 4.625,-0.25 8.875,5.25 3.995,-0.114 -0.078,-0.332 1.75,-0.875 0.75,-3.125 3.125,-1.75 -0.251,-2.625 2.5,-1.25 3.25,0.25 2.875,1 2.125,-0.875 0.375,-1.25 -1.75,-2.75 0.125,-2.208 -2.5,-2.167 -6.125,-3.125 -0.042,-4.375 -2.833,-1.125 -1.25,-3.75 -7.5,-5.625 -3.625,-0.625 -3.625,-4 -6.625,-3.125 h -2.75 l -3.25,3.875 -0.077,0.409 -6.423,2.841 -4.5,-1.75 -10.125,4.875 -1.125,0.375 0.125,1.5 -5,0.25 -4,4.5 -1.375,-1 -2.25,-7.75 -2.5,-2.25 -1.375,-6.5 -9.25,-3.25 -9.875,-0.5 -6.5,-3.75 -5.625,-6 -5.5,-0.5 -0.25,1.625 -4.625,3.75 4,5.5 0.875,6 -0.212,1.459 -4.163,-7.959 -2.75,-1.125 -3.625,-2 -4.375,0.125 -1.125,1.625 -1.875,-2.375 -2.125,3.25 0.75,5 6,4.625 4.625,1.25 0.125,3.125 -2.125,2.375 -4.125,2.5 -0.875,7.25 -2.5,-4.5 -2.5,3.375 -0.5,-4.875 1.625,-2.625 -2.5,-2.875 -3,-2.25 -3.625,6 -4.375,2.375 1,-3.5 3,-3.625 -4.25,0.5 -4.5,1.875 -1.75,2.5 2.375,2 -1.125,5.5 -3.25,-2.5 -1.375,3.875 0.25,3.875 -3.125,3.625 -3,0.625 3.625,3.5 -0.75,5.125 3.875,-1.75 0.125,-3.25 4.5,1.5 3.625,3.625 c 0,0 -4.625,-0.5 -5,-0.5 -0.375,0 -5.125,3.75 -5.125,3.75 l -2,2.875 5.75,1.25 4.5,-2.5 4.75,-1.5 2.625,-1.75 0.25,4.75 3.375,2.75 0.25,5.75 -0.75,4.125 1.375,1.625 3,-2.75 3.25,-3.375 -0.625,-4.75 -0.375,-9.875 1.25,7.25 2.5,7.375 3,1.375 2.5,2.625 3.375,-5.375 -0.375,-5.625 2.5,-1.5 0.75,2.75 v 7.125 l 1.375,2.75 -2.75,1.125 -0.5,6.625 3.75,5.875 -1.125,1.75 0.125,5.375 3.5,3.875 -0.625,6.5 -2.625,3.375 6.75,1.625 2.5,2.875 -1.125,2.375 -5.25,1.625 5.375,6.875 -0.625,5.25 -1.5,4 1.75,2.375 v 2.25 l 4.125,0.875 -5.75,0.125 -1.25,3.5 -2.25,1.25 0.125,3.25 2.625,-1.5 4.375,1.875 3,0.625 4.875,5.125 2.75,0.25 -2.25,3 1.75,2.125 1.625,1.875 1.5,2.375 1,4.375 5.125,0.75 3.875,-0.625 3.625,-4 6.625,-0.25 5.375,-4.25 1.848,-2.833 0.402,-0.042 -0.125,-6.375 2.25,-3.875 4.75,0.125 3.125,-1.125 2.125,0.875 5.875,1 3.75,-0.875 2,5.625 0.875,3.375 6.125,3 2.875,-3.25 h 7 l 2.625,-2.125 4.125,1.5 0.75,-4.125 4,1 5.25,-3 2.75,2.583 2.167,9.667 4.333,6.167 1.167,0.333 2.167,-2.333 3.833,5.833 9.333,-0.333 1,-8.167 10,6.333 1.667,-5 -1.667,-4.166 2.167,-2.167 z"
     id="path57"
     style="fill:#b9b9b9;fill-opacity:1;stroke:#ffffff" /></g><g
   transform="translate(-49.250007,-85.395)"
   id="Ebene_19"
   style="fill:#b9b9b9;fill-opacity:1"><polygon
     points="193.833,272.417 196.75,270.688 199.5,272.583 201.625,272.688 205.125,268.75 210.666,269.083 212.188,273.25 214.834,274.083 218.25,269 219,268.25 222,268.083 222.084,267.833 225.834,263.25 224.666,260.25 224.666,259.75 225,258.25 228.834,255.417 228.5,252.917 227.666,251.25 224,250.917 220.75,252.917 218.907,250.207 220.834,248.333 220.666,244.417 220.427,243.89 220.666,243.917 217.666,238.583 217.166,232.583 214.166,232.25 214,232.604 212.459,233.375 208.604,230.792 207.521,232.292 207.525,232.304 205.167,234.583 204.333,239.583 204.394,240.369 203.667,241.5 202.438,241 202.436,241.001 201.333,239.917 199.75,236.875 197,239.813 194.813,240.625 194.438,246.75 192.313,247.688 189.875,249.875 187.688,249.75 186.375,249.563 181.875,246.5 177.083,253.833 183.313,256.438 183.5,256.583 184.688,261.25 183,263.083 184.375,266.875 187.313,265.563 189.813,264 190.563,265 "
     id="polygon60"
     style="fill:#c83737;fill-opacity:1;stroke:#ffffff" /></g><g
   transform="translate(-49.250007,-85.395)"
   id="_xB7__xB9_ÀÌ_xBE_î_x5F_10"
   style="fill:#b9b9b9;fill-opacity:1"><path
     inkscape:connector-curvature="0"
     d="m 532.167,742.667 -1.334,-2 -3.166,-2.5 0,0 0.5,-3.5 -0.5,-4 -2.834,-0.167 -6.166,-1.667 -2,-4.833 -9,-0.333 -2.834,2.5 -8.833,0.333 -6.333,2 L 484,731 h -10.333 l -7.334,4 -7.333,3.5 -8.833,0.333 -2.5,3 -4.334,2.834 -0.333,3.166 -12.667,11.667 v 8.333 l 2.167,4 1.833,3.167 3.667,0.833 5.667,6 2.833,0.334 0.5,-3.167 3.333,-2.333 9,0.666 2.334,-1.666 2.666,1.333 h 3.167 l 5,0.5 11,-1.167 4.333,1.5 c 0,0 5.667,-5.833 6,-6.333 0.333,-0.5 11,0 11,0 l 5.5,-4.5 7.5,-0.833 0.167,-3.334 5.833,-8 3.334,-3.333 4,-3.833 -1.334,-2.167 2.334,-2.833 z"
     id="path63"
     style="fill:#b9b9b9;fill-opacity:1;stroke:#ffffff" /><polygon
     points="534.333,737.333 535.833,736.167 536.667,732.833 533.833,731.833 532.333,735 "
     id="polygon65"
     style="fill:#b9b9b9;fill-opacity:1;stroke:#ffffff" /><polygon
     points="446,793.667 443.667,792.167 443.167,795.667 444.667,796 "
     id="polygon67"
     style="fill:#b9b9b9;fill-opacity:1;stroke:#ffffff" /></g><g
   transform="translate(-49.250007,-85.395)"
   id="_xB7__xB9_ÀÌ_xBE_î_x5F_11"
   style="fill:#b9b9b9;fill-opacity:1"><polygon
     points="508.25,483.5 514.25,477.5 515.5,475 511,470.75 510.25,465.25 507.75,463 506.75,461 508,460.5 509.75,456.5 508.25,455.25 507.25,450.75 507.5,440.25 514,429.25 514.25,420.5 515.5,413.5 516,407 511.5,401.25 511.25,394.75 512.667,389.167 517.833,385 518.333,377.667 517.5,374.333 518.167,371.667 515.667,364 511.167,359.5 510.333,351.833 511.167,345.667 509,340.833 510,337.333 509.167,329.5 511.5,326.667 505.333,320.833 502.833,313.833 499.333,313.833 495.667,318 492,318.333 486.167,324 486.5,329.333 480.833,329.5 480.833,329.5 472.167,322.167 468.5,321.333 465.667,323.667 465,326 455.5,323.833 452.5,324.833 448.167,322.333 445.167,328.667 441,329.333 436.167,328 430.667,324.167 425.667,329.667 426.333,332.667 420.5,331.167 414.5,328.333 411.75,331.5 405.5,331.625 401,339.625 398.375,340.5 388.75,349.75 386.833,355 388.375,358.75 389.375,361.5 385.625,367.25 381.75,367 378.25,370.375 376,368.25 372.25,366.875 365.75,359.25 362.625,358.5 359.167,361.5 359,366.833 356.333,367.667 349.5,364.75 343.25,370 341.875,368.375 339.833,368 338.5,373.333 335.875,378.125 342,384.25 338.5,385.25 333.75,381.875 331.75,383.625 327.625,381 325.125,386 321.875,388.375 319.5,388.667 325,394.5 323.125,401.5 317.667,395.667 316.625,394.25 313.625,397.625 314.5,399.875 306.167,401.667 307.333,404.333 311.833,406.833 315.333,406.833 316.333,410.5 320.167,415.167 320.333,417.833 317,419.833 316.833,429 317.834,431.167 315.333,433.833 318.167,437.667 318.5,441.167 312.834,447.5 314.667,452.833 318,453.333 320.833,449.333 324.167,453.5 329.5,456.333 332.167,453.833 336.5,454 338.667,456 336.833,458.333 341.167,465.667 338,466 333.666,464.333 330.5,465.167 331.5,469.333 332.833,472.333 329.833,476.667 328.333,485.667 321.833,487.833 317.666,492.333 317.833,496.167 322.666,503.667 318.833,506.5 319.166,512.167 324.5,514 325.666,518.5 331.833,518.167 335.5,521.833 342.166,520.5 348.5,523 351.167,528.833 354.167,530.333 357.833,535.5 360.167,542.333 354.167,546.667 353.833,548.667 358.333,549.833 359.667,551.333 363.5,552 366.333,550 374.167,549.667 378.667,551.833 381.833,556.333 385.167,556 385.167,551.167 380.333,546.667 379.667,542 388.833,543 389.5,537.833 383.5,533 385,530.167 387.333,524.833 393.833,524.333 394.5,521.833 387.833,518.5 383,519.667 383,513.167 385.333,508.167 390.5,503.667 393,504.833 393.333,510 397.667,511.333 400,507.167 400.833,503 399.833,499.333 401.167,498 403.667,499.667 409.667,496.667 413.333,492.167 422.167,492.166 426,493.25 427.25,496.75 427.75,505.75 430.25,507.5 430.25,515 426.75,517 425.25,520.75 425.25,525.5 422,528 423,531.25 421.75,534 421.75,534 419.75,538.75 412.75,541.25 413.25,536.75 406,536.5 401.5,540 400.75,544.25 401.5,548 403.5,553.25 412.75,560.75 418.25,558.25 422.25,559 427.5,560.75 434.75,561.5 437.5,557.75 443,557.5 445.5,552.25 451.75,550 456,551.75 459.5,555.25 463,552 468.25,550 468.25,549.25 472.5,550 469.5,546.5 472.75,540 477.5,539.25 480.5,536.75 481.75,537.75 488.5,537.5 495,539.25 495.5,546.25 500,547.5 507.25,542.75 517.5,547 521.75,542.25 521.5,539.5 523.25,533.5 523.75,524.75 526.5,521.5 526,518.75 527.75,516.25 528,510 526,503 530,500.5 531.25,495 534,488.5 532.75,481 530.75,479 525,487.75 521.75,490 519,494 513.75,491.25 511.5,488 "
     id="polygon70"
     style="fill:#b9b9b9;fill-opacity:1;stroke:#ffffff" /><g
     id="g72"
     style="fill:#b9b9b9;fill-opacity:1"><polygon
       points="528.5,447 528.5,449 536.5,452 537.25,450 541.25,447.25 541.5,441.25 542.5,437.5 539.25,437.25 537,438.75 533.25,441.25 529,441.5 526.25,442 527.5,444.5 "
       id="polygon74"
       style="fill:#b9b9b9;fill-opacity:1;stroke:#ffffff" /><rect
       x="552.47699"
       y="451.13199"
       transform="matrix(0.4472,-0.8944,0.8944,0.4472,-98.3301,745.3986)"
       width="2.7950001"
       height="2.2360001"
       id="rect76"
       style="fill:#b9b9b9;fill-opacity:1;stroke:#ffffff" /></g></g><g
   transform="translate(-49.250007,-85.395)"
   id="_xB7__xB9_ÀÌ_xBE_î_x5F_12"
   style="fill:#b9b9b9;fill-opacity:1"><polygon
     points="403.667,499.667 401.167,498 399.833,499.333 400.833,503 400,507.167 397.667,511.333 393.333,510 393,504.833 390.5,503.667 385.833,507.667 383,512.5 383,519.667 387.833,518.5 394.5,521.833 394,523.833 387.333,524.833 383.5,533 389.5,537.833 388.833,543 379.667,542 380.333,546.667 384.833,551.167 385.167,556 391.833,552.167 398.833,552 399.833,546.5 400.75,544.25 401.5,540 406,536.5 413.25,536.75 412.75,541.25 420.167,538.667 421.75,534 423,531.25 422,528 425.25,525.5 424.833,520.833 427.333,516.667 429.833,515 430.25,507.5 427.75,505.75 427.25,496.75 426,493.25 422.167,492.166 413.333,492.167 410,496.333 409.667,496.667 "
     id="polygon79"
     style="fill:#b9b9b9;fill-opacity:1;stroke:#ffffff" /></g><g
   transform="translate(-49.250007,-85.395)"
   id="_xB7__xB9_ÀÌ_xBE_î_x5F_13"
   style="fill:#b9b9b9;fill-opacity:1"><polygon
     points="488.5,537.5 481.75,537.75 480.5,536.75 477.5,539.25 472.75,540 469.5,546.5 471.875,549.875 468.25,550 463,552 465.125,555.125 464.375,558.875 459.125,561.875 459.125,564.75 462.125,567.25 463.625,568.75 470.125,569.625 476,573.875 482.125,582.125 487.75,581.75 490.625,585.5 488.625,589.25 493.875,590 496.25,589.125 498.75,591.25 499.125,597 501,598.625 505.75,594.75 508.375,594.125 508.75,593 507.875,588.75 508.75,586.125 508.125,583.375 509.375,581.125 507.375,577.375 511.25,575 511,571.625 511.25,569.25 512.097,566.83 513.5,567.875 512.5,570.375 514.25,571.25 514.625,575.5 517.625,573.125 519.25,570.125 519.375,564.5 520.5,561.625 519.125,559.875 520.625,557.875 520.875,554.5 518.75,551.5 517.5,547 507.25,542.75 500,547.5 495.5,545.875 495,539.25 "
     id="polygon82"
     style="fill:#b9b9b9;fill-opacity:1;stroke:#ffffff" /></g><g
   transform="translate(-49.250007,-85.395)"
   id="_xB7__xB9_ÀÌ_xBE_î_x5F_14"
   style="fill:#b9b9b9;fill-opacity:1"><g
     id="g85"
     style="fill:#b9b9b9;fill-opacity:1"><polygon
       points="420,654.167 421.833,650.5 422.167,647 427.333,646.833 427.333,649.333 424.167,652 424.667,656.667 427.5,658.167 427.833,663.667 425.667,668.5 427.667,671.667 430.833,668.833 431.167,672 429.333,674.167 429.833,676 426.667,676.167 425.833,679 429.333,680.5 431.333,684 428.5,683.833 426,681.5 420.833,681.667 421.167,684.667 418.5,686.5 418.833,691 422.667,692.5 421.167,694.667 418.167,693.667 416.167,694 417.667,696.333 411.833,697.833 410.167,696.833 412.167,693.667 411.5,692.667 410,690.667 410.5,687.667 407.333,688.333 407.167,685.5 410.5,682.833 412.333,679.5 409.5,675.333 406.333,677.333 402.333,678.833 401.167,680.333 400.333,677.667 397.667,675.667 397.333,670.667 401,666.5 403.333,664.333 408,667 411.5,665 414.667,667.5 411.5,661.833 414,657.167 417,657.333 "
       id="polygon87"
       style="fill:#b9b9b9;fill-opacity:1;stroke:#ffffff" /><path
       inkscape:connector-curvature="0"
       d="m 403.333,656.167 -1.833,1.333 0.167,4 c 0,0 3.333,1.167 3.333,0.167 0,-1 0,-3 0,-3 l -1.167,-0.167 -0.5,-2.667"
       id="path89"
       style="fill:#b9b9b9;fill-opacity:1;stroke:#ffffff" /></g><g
     id="g91"
     style="fill:#b9b9b9;fill-opacity:1"><path
       inkscape:connector-curvature="0"
       d="m 325.833,666.333 -1.833,-3.5 -4,-1.333 -3.833,2.333 c 0,0 0.666,3.333 0.166,3 -0.5,-0.333 -2.833,-0.166 -2.833,-0.166 l -0.667,5.333 -2.166,2.5 2.833,6.333 2.167,6.167 -0.167,3.667 -1,1.666 4.5,3.334 4.167,-0.334 0.166,-4.833 3.334,-2.167 2.833,0.834 v 6.333 l 3,3.333 4.333,-2 2.834,2.834 2.166,-1.334 -1.5,-2.5 2.834,-3.666 -0.667,-4.667 0.333,-4 -1.666,-2.833 -3.167,-1 -5.167,1.166 -4,2.5 -1.166,-3 L 325,677 l -1.833,-6 2.833,-2.833 -0.167,-1.834 z"
       id="path93"
       style="fill:#b9b9b9;fill-opacity:1;stroke:#ffffff" /><polygon
       points="343.833,671.667 339.833,668.833 338,673.167 337.5,669.5 338.667,667.5 339,665.167 334.5,666 330.833,671.5 332.333,677.333 340.333,677.333 344.333,678.5 343,674.833 "
       id="polygon95"
       style="fill:#b9b9b9;fill-opacity:1;stroke:#ffffff" /></g><polygon
     points="394,672 395.667,670.333 393.167,668.5 389.667,672 386,674.167 384.833,677 387.667,677.833 390.333,678.5 392.167,676 "
     id="polygon97"
     style="fill:#b9b9b9;fill-opacity:1;stroke:#ffffff" /><polygon
     points="379.5,677.5 380.5,681.833 386.167,687.833 390.5,682.5 385.667,680.667 382.167,676.5 "
     id="polygon99"
     style="fill:#b9b9b9;fill-opacity:1;stroke:#ffffff" /><polygon
     points="399.167,687.5 397.333,682.333 395,684.667 397,689.833 "
     id="polygon101"
     style="fill:#b9b9b9;fill-opacity:1;stroke:#ffffff" /><polygon
     points="393.667,698.167 396.5,695.5 395.167,693.333 "
     id="polygon103"
     style="fill:#b9b9b9;fill-opacity:1;stroke:#ffffff" /><path
     inkscape:connector-curvature="0"
     d="m 487.75,581.75 -5.625,0.375 -6.375,-8.875 -5,-3.5 -6.5,-0.75 -3.5,-2.75 -1.625,-1.5 v -2.875 l 5.25,-3 0.75,-3.75 L 463,552 l -3.5,3.25 -3.5,-3.5 -4.25,-1.75 -6.25,2.25 -3.25,5.25 -5,1 -2.5,3 -7.25,-0.75 -9.25,-2.5 -5.5,2.5 -10,-8.75 -1.25,-4 -1,-3 -0.667,1.5 -1,5.5 -7.833,0.25 -5.833,3.75 -3.334,0.333 -3.166,-4.5 -4.5,-2.166 -7.834,0.333 -2.833,2 -3.833,-0.667 -1.334,-1.5 -3.583,-1.333 -0.583,-1.833 6,-4.334 -2.334,-6.833 -3.666,-5.167 -3,-1.5 -2.667,-5.833 -3,-1.25 -2.5,-1.5 -7.5,1.583 -4.25,-3.583 -5.584,0.25 -1.166,-4.5 -5.334,-1.833 -0.166,-1.917 -3,0.75 -2,4.5 -7,4.75 -6.5,0.75 -1.75,5.75 -6.5,5.5 -0.5,3.25 -1,6.5 -3,2.5 -2,5.5 2,5.75 -2.5,2.5 -1,3.25 -3,2.25 4.25,4.5 3.75,6.75 -1.75,3 1,4 3.75,1.5 -1.75,4.5 -5.25,4.75 -0.5,4.25 2,3.25 -1.417,1.25 -5,4.5 1.833,3.167 4.834,6.333 -0.667,8.167 8.5,7.666 0.667,6 5,4 1.333,2.667 2.667,1.167 1.333,5.5 1.834,-0.167 -0.667,3.833 -2.333,2.334 1.833,4 5.667,0.833 2.833,-1.833 1.167,1.666 5.833,-1.5 2.667,-4.666 V 650.5 l 1.166,-0.438 v 2.104 l 3.667,3.834 1.5,-1.667 4.167,0.334 2,-4 -4.5,-3.334 2.166,-1.833 2.334,2.167 1.166,-5.667 4,-3.5 -2.166,6.833 -0.5,4.334 2,1 L 339,654 l 1.833,1.5 -2.166,4 3.833,4.167 6.167,2.833 0,0 3.5,1.333 h 2.666 6.5 l 0.334,-5.666 6.5,-0.334 1.833,4.667 3,0.333 1.833,-5.5 2.5,-2.166 2.334,2.666 1.666,4.667 -5.833,0.5 -0.167,2.5 6.5,2.667 2.167,-1.834 2.333,2.5 3,-4 1,-4.833 -0.166,-4 2.166,-2.833 -0.333,-1.834 -4,-1.5 0.167,-1.333 3.333,0.667 5.667,-1.5 0.166,-4 -3.666,-2.667 1.666,-3.333 -1.833,0.666 -3,2.334 -2.833,0.166 -2.167,2 -4,4 1.5,-4 2,-3.5 5.167,-1.333 2.583,-0.75 2.875,-2 -3,-2.75 1.375,-1.375 4.25,1.5 1.875,-0.75 2.5,-1.875 3,3.375 2.75,0.75 -1.375,3.125 3,0.375 -0.875,1.75 5.375,-0.875 1,-2.75 -1.875,-1.5 -0.375,-1.75 -2.5,-5.5 0.625,-2.5 -2,-2.75 -1.625,-2.875 2.875,-2.75 1.625,3.875 2.125,4 v 2.25 l 2.375,-1.875 3.25,1.75 2.625,-1.75 1.375,4 -1.375,3.25 4,1.625 4.625,-0.25 4.5,-2.25 0.375,3.375 4.125,-1 2.625,-2.25 -0.5,-2.875 -4.25,-2.75 -0.875,-2.375 0.5,0.125 3.5,-0.5 1.75,-2.25 3.5,1.75 -0.25,-3.5 c 0,0 1.25,-4.5 2,-4.5 0.75,0 5.25,-0.25 5.25,-0.25 l 2.5,-2.5 7,-2.75 3.25,-5 12,-5 1.5,-9.5 2,-0.25 3,2.25 3,-2 0.875,-3.75 2,-3.75 -2.875,-3.75 z"
     id="path105"
     style="fill:#b9b9b9;fill-opacity:1;stroke:#ffffff" /><polygon
     points="362.833,676.667 363.5,674.833 357.333,674.833 360.667,679.167 "
     id="polygon107"
     style="fill:#b9b9b9;fill-opacity:1;stroke:#ffffff" /><polygon
     points="370.5,682.5 366.5,678.833 362.333,679.667 367.5,684.667 "
     id="polygon109"
     style="fill:#b9b9b9;fill-opacity:1;stroke:#ffffff" /><polygon
     points="370.667,711 368.333,707.667 366,708 366.5,711.5 "
     id="polygon111"
     style="fill:#b9b9b9;fill-opacity:1;stroke:#ffffff" /><polygon
     points="361.5,699.667 358.5,697.5 357.167,699.833 360.5,701.833 "
     id="polygon113"
     style="fill:#b9b9b9;fill-opacity:1;stroke:#ffffff" /></g><g
   transform="translate(-49.250007,-85.395)"
   id="_xB7__xB9_ÀÌ_xBE_î_x5F_15"
   style="fill:#b9b9b9;fill-opacity:1"><polygon
     points="442.625,648.25 443.875,645.625 444.875,642.625 443.875,640.875 442,640.125 437.125,643.375 438.75,644.375 439.375,647.375 441,649.5 441.75,653 443.125,650.875 "
     id="polygon116"
     style="fill:#b9b9b9;fill-opacity:1;stroke:#ffffff" /><polygon
     points="448.625,641.25 448.125,639.625 445.125,640 446.125,641.625 "
     id="polygon118"
     style="fill:#b9b9b9;fill-opacity:1;stroke:#ffffff" /><polygon
     points="482.125,592.875 479.75,593 478.25,602.5 469.5,606.25 466.25,607.5 465.25,606.75 463,612.5 456,615.25 453.5,617.75 448.25,618 446.25,622.5 446.5,626 443,624.25 441.25,626.5 437.25,626.875 438.125,629.25 442.5,632.625 442.875,634.875 440.5,636.75 442.875,638.25 448.875,638.125 450,633 451.5,632.125 451.625,637.75 453.375,637.25 455.25,633.5 457.25,632.75 457.25,632.75 457.625,639.75 459.25,644.875 461.5,641.75 463,644 463,641 462.375,638.75 462.875,637.125 464.373,636.925 464.25,640.125 466.125,642.5 466.125,638.25 467.875,636.125 467.845,636.1 469.125,634.5 469.125,632.75 470.5,632.25 471.75,630.25 472.75,631.875 473.5,634 475.875,633.125 476.625,634.375 478.875,634.625 480,630.625 478.875,628.5 479.5,626.875 482.625,626.375 484.125,625.375 485,626.25 487.75,626.25 489,622.5 492.125,620.25 492.125,620.25 492.5,615.375 494.125,615 495,612.75 496.25,610 494.375,608.5 495.75,607.25 497.75,604.375 496.25,602.5 498.125,599.25 500.375,600.375 501,598.625 499.125,596.5 498.75,591.25 496,589.5 493.875,590 489,589.25 487.75,593 484.75,595 "
     id="polygon120"
     style="fill:#b9b9b9;fill-opacity:1;stroke:#ffffff" /><polygon
     points="472.75,636 469.125,636.25 468.625,638.5 473.25,642.25 474.875,641.375 473.875,638.375 473.75,636.75 "
     id="polygon122"
     style="fill:#b9b9b9;fill-opacity:1;stroke:#ffffff" /></g><g
   transform="translate(-49.250007,-85.395)"
   id="_xB7__xB9_ÀÌ_xBE_î_x5F_16"
   style="fill:#b9b9b9;fill-opacity:1"><path
     inkscape:connector-curvature="0"
     d="m 323,503.5 -5.167,-7.333 -0.5,-3.334 -3.833,-1.833 -10.167,3.333 -1.166,-2.333 -5.667,-1.167 -3,-4.833 -2.667,2.667 -3.667,-4.167 -2.166,2.167 1.667,4.166 -1.667,4.5 -10,-5.833 -0.96,7.842 -9.373,0.658 -3.833,-5.833 -2.167,2.333 -1.167,-0.333 -3.148,-3.577 0.148,-0.423 -1.333,-2.167 -2.167,-9.667 -3.333,-2.666 -4.667,3.666 -4,-1.583 -0.75,4.125 -4.583,-1.208 -2.167,1.833 h -7 l -2.667,2.833 -6.333,-2.583 -3.333,-9.25 -3.292,1.125 -5.208,-0.792 -2.792,-1.083 -3.125,1.125 -4.75,-0.125 -2.25,3.875 -0.25,6.375 -1.167,2.5 -6.083,4.625 -6.625,0.25 -3.625,4 -3.5,0.458 -3.167,-0.333 -1.167,2.333 -13.333,1.667 -1.667,1.833 -1.833,-1 0.5,2.834 5.333,2 2.833,1.666 v 6.834 l 7,0.5 2.333,-0.834 3.5,0.334 1.167,1.166 2,-0.666 4,-1 5,-3.167 4.25,0.375 -5.875,3 -2.25,4.25 -4.25,-1.125 -3,0.75 -3.75,4.125 10,5.75 0.625,1.25 -1.5,1 -0.375,1.75 -6.874,-2.625 -10.5,-1 -0.75,9.5 -6.75,7.5 -3.5,0.5 -10.5,6.5 -0.25,4.25 7.625,6.25 5,-2.5 10,-0.875 4.75,5.5 -0.25,1.75 -5.25,-1.25 -4.125,3.5 -6.25,0.125 -7.5,3.25 -7.375,13.125 7.5,1 -1,6.625 2.375,5.125 2.375,0.25 c 0,0 0.375,5.5 0.5,5.875 0.125,0.375 7.5,1.75 7.5,1.75 l -0.125,-4 2.875,-0.375 4.375,1.375 3.625,-3.875 7.75,-2.625 c 0,0 0,-3.75 0.125,-4.25 0.125,-0.5 2.375,-1.625 2.375,-1.625 l 1,-4.125 -1.375,-2.5 3.797,-4.042 0.078,0.417 5,-0.125 1.5,-3.125 3.625,1.625 -0.25,1.625 3.5,1.75 3.5,2.125 0.875,3.375 3.75,3.875 4.125,-0.75 0.25,-2.875 1.75,-1.375 1.75,-4.25 4.25,-0.5 0.875,4.125 1.5,1.25 v 2.875 l -3,1.25 1,2.375 3,0.625 0.75,6.375 -2.375,0.625 1.125,3.125 8.125,2.5 8.75,-7 0,0 -0.375,3.5 3.125,1.125 2.25,-3.875 3.125,3.625 3.5,0.25 4.125,2.5 5.25,-3.375 4.5,2.25 6.375,-8.625 6.875,0.25 7,4.5 4.25,4.25 6.25,-5.25 -2.125,-3.625 0.625,-3.875 4.875,-4.375 1.75,-5.125 -3.375,-1.625 -1,-3.625 1.75,-3 -3.75,-6.75 -3.833,-4.417 0,0 2.583,-2.333 1.083,-3.667 2.417,-2.083 -2,-5.75 2.583,-5.833 2.417,-2.167 1.5,-9.75 3.917,-3.417 -0.474,-0.348 3.058,-1.735 1.75,-5.75 6.5,-0.75 7,-4.75 2,-4.5 3,-0.75 -0.167,-3.75 4.166,-3 z"
     id="path125"
     style="fill:#b9b9b9;fill-opacity:1;stroke:#ffffff" /><polygon
     points="132.333,526 129.833,522.5 129.333,527.5 "
     id="polygon127"
     style="fill:#b9b9b9;fill-opacity:1;stroke:#ffffff" /></g><g
   transform="translate(-49.250007,-85.395)"
   id="_xB7__xB9_ÀÌ_xBE_î_x5F_17"
   style="fill:#b9b9b9;fill-opacity:1"><path
     inkscape:connector-curvature="0"
     d="m 207.333,628.25 1.5,-1.417 -2.25,-2.916 -3.166,0.083 -2,-1.917 -1.75,-4.416 -2.667,-4 -2.167,-1.667 -3.333,2 -2.833,0.083 -2.583,2.667 -5.084,2.25 -6.167,-2.917 -0.25,-2.666 h -2.25 l -1.75,6.166 -4.417,0.584 -3.917,3.75 1.5,2.75 -2.25,1.75 c 0,0 -0.25,5.582 0,5.916 0.25,0.334 2.917,2.167 2.917,2.167 l 9.083,-0.167 3.083,3.834 -0.583,2.25 1.75,1.333 5.5,0.25 3.25,-2.417 5.25,-1.333 3.917,-1.75 3.833,3.167 1,-1.5 3.583,-1.667 2,-3 2,-3.167 -0.75,-1.916 v -2.167 z"
     id="path130"
     style="fill:#b9b9b9;fill-opacity:1;stroke:#ffffff" /></g><g
   transform="translate(-49.250007,-85.395)"
   id="_xB7__xB9_ÀÌ_xBE_î_x5F_18"
   style="fill:#b9b9b9;fill-opacity:1"><polygon
     points="304.833,665.5 301.167,663.833 298.833,667.166 301.333,668.5 "
     id="polygon133"
     style="fill:#b9b9b9;fill-opacity:1;stroke:#ffffff" /><path
     inkscape:connector-curvature="0"
     d="m 310,717.833 -4.667,-0.5 -5.666,-5 0.166,-3.666 3.5,-6 -0.166,-5 1,-1.5 3,2 -0.667,5.333 3.167,3 -0.834,7.167 c 0,0 1.834,0.833 1.834,1.333 0,0.5 -0.667,2.833 -0.667,2.833 z"
     id="path135"
     style="fill:#b9b9b9;fill-opacity:1;stroke:#ffffff" /><polygon
     points="306.5,728.167 304.333,724.5 300.667,723.667 297.167,726.833 300.667,727.667 303.167,730.667 307,733.333 308.5,731.667 305.833,729.333 "
     id="polygon137"
     style="fill:#b9b9b9;fill-opacity:1;stroke:#ffffff" /><polygon
     points="290,723.167 293.833,722.5 293.833,720.333 290.833,717.667 288.833,719.833 "
     id="polygon139"
     style="fill:#b9b9b9;fill-opacity:1;stroke:#ffffff" /><path
     inkscape:connector-curvature="0"
     d="m 122.167,628.5 -4,3 -4.5,-1.333 c 0,0 -4.333,0.5 -4.333,1 0,0.5 -0.334,4.666 -0.334,4.666 l -0.333,1.834 L 102,636 l -3.167,2 1.5,3.833 5.667,1.334 0.5,4 0.833,3.333 5,-2.667 -0.833,-3.666 2.5,-0.167 1.667,2.833 2.5,-3 v -4.5 h 1.667 l 1.5,-4 1,-3.333 -0.167,-3.5 z"
     id="path141"
     style="fill:#b9b9b9;fill-opacity:1;stroke:#ffffff" /><polygon
     points="126.333,639.167 125.333,642 123.833,639.667 121.333,640.5 120,644.333 123,647 126.333,645.333 129.5,645 129.5,641.333 "
     id="polygon143"
     style="fill:#b9b9b9;fill-opacity:1;stroke:#ffffff" /><path
     inkscape:connector-curvature="0"
     d="m 121.333,656.833 c -0.5,0 -2.833,-0.666 -2.833,-0.666 l -2,-0.167 -1,3.167 5.167,5.833 0.833,1.833 c 0,0 3,-3.166 3,-3.666 0,-0.5 0,-4.334 0,-4.334 l -1,-2.833 -2.167,0.833 z"
     id="path145"
     style="fill:#b9b9b9;fill-opacity:1;stroke:#ffffff" /><path
     inkscape:connector-curvature="0"
     d="m 232.667,733.167 h -5.333 l -4.167,1.166 c 0,0 -2.833,-1.166 -3,-0.166 -0.167,1 -0.5,5.333 -0.5,5.333 l 4.667,3.833 8,-0.5 2,-3.166 1,-4 -2.667,-2.5 z"
     id="path147"
     style="fill:#b9b9b9;fill-opacity:1;stroke:#ffffff" /><polygon
     points="264.5,733.667 269.5,733 271.333,731.667 268.333,729.5 264.833,730.667 "
     id="polygon149"
     style="fill:#b9b9b9;fill-opacity:1;stroke:#ffffff" /><polygon
     points="267,736.167 265.5,738.167 272,742.667 273.167,744.833 275.833,740.833 272,736.833 "
     id="polygon151"
     style="fill:#b9b9b9;fill-opacity:1;stroke:#ffffff" /><g
     id="g153"
     style="fill:#b9b9b9;fill-opacity:1"><path
       inkscape:connector-curvature="0"
       d="m 109.333,717.667 -1.667,3.5 2.833,1.166 0.667,3.667 c 0,0 -5.333,0.5 -5.833,0.5 -0.5,0 -0.667,2.667 -0.667,2.667 l -1.333,2.333 -2.333,-1.667 -1.167,4 -6.667,4.5 -4.166,4.334 3,5.833 3.333,1.5 -0.333,2.333 6.667,0.834 6.833,-2.5 6,-4.167 4.5,-2.5 -0.167,1.667 4.667,-5.5 -0.5,-4.667 3.5,-2 -1,-3.833 -6.5,-5.667 -3,-1 -0.167,-1.833 -6.5,-3.5 z"
       id="path155"
       style="fill:#b9b9b9;fill-opacity:1;stroke:#ffffff" /><polygon
       points="82.5,760.667 81.667,759.5 78.5,764.167 82.5,766.167 88.167,766 88,761.5 85.333,761.333 "
       id="polygon157"
       style="fill:#b9b9b9;fill-opacity:1;stroke:#ffffff" /></g><g
     id="g159"
     style="fill:#b9b9b9;fill-opacity:1"><polygon
       points="167,763.875 163.25,759.25 160.5,758.125 160.5,748.5 165.625,747.875 170.75,750.375 171.5,755.125 175.875,760.375 176.75,764.375 172.375,764.125 "
       id="polygon161"
       style="fill:#b9b9b9;fill-opacity:1;stroke:#ffffff" /><polygon
       points="187.875,747.125 184.5,745.25 185.75,744.25 184,741.25 180.625,742.25 175.75,745.5 174.5,749 176.25,750.375 178.75,751.5 183.25,749.25 "
       id="polygon163"
       style="fill:#b9b9b9;fill-opacity:1;stroke:#ffffff" /><polygon
       points="189.125,761 191.625,760.375 192,758.125 189.75,756.5 188.625,755.125 185.375,755.125 184.25,754.375 182.5,756 178.75,755.375 177.5,758.625 182.625,760.25 184.875,760.5 186,763.25 "
       id="polygon165"
       style="fill:#b9b9b9;fill-opacity:1;stroke:#ffffff" /><polygon
       points="194,777.125 190.75,776.875 188.125,778.5 187.125,783.375 190,784.625 197.25,784.5 196.75,781.375 194.625,780.375 "
       id="polygon167"
       style="fill:#b9b9b9;fill-opacity:1;stroke:#ffffff" /><path
       inkscape:connector-curvature="0"
       d="m 148.375,774.125 -0.75,4 1.875,3.5 c 0,0 6.5,0.125 6.5,-0.375 0,-0.5 -0.625,-2.25 -0.625,-2.25 l 1.25,-1.5 -2,-2.625 -3.125,-0.375 -3.125,-0.375 z"
       id="path169"
       style="fill:#b9b9b9;fill-opacity:1;stroke:#ffffff" /><polygon
       points="148.25,782.75 144.375,781.5 142.125,784 142.25,788.375 146,789.875 149.25,787.25 152.375,784.25 "
       id="polygon171"
       style="fill:#b9b9b9;fill-opacity:1;stroke:#ffffff" /><polygon
       points="162.125,782.25 164.375,781.5 163.25,780.5 161.125,779.375 159.375,781.875 "
       id="polygon173"
       style="fill:#b9b9b9;fill-opacity:1;stroke:#ffffff" /><polygon
       points="158.625,788.875 160.75,791.625 162.125,789.125 162.5,785.625 160.625,785.125 159.375,785.25 "
       id="polygon175"
       style="fill:#b9b9b9;fill-opacity:1;stroke:#ffffff" /><path
       inkscape:connector-curvature="0"
       d="m 210.125,750.375 c 0,0 -2.75,-0.375 -2.75,0.5 0,0.875 0.875,4.125 0.875,4.125 0,0 2.75,2.75 2.875,3.25 0.125,0.5 0,4.25 0.5,3.5 0.5,-0.75 4.125,-4.125 4.125,-4.125 L 219.5,756 c 0,0 -3.375,-4 -3.75,-4 -0.375,0 -2.5,2.25 -2.5,2.25 l -3.125,-3.875 z"
       id="path177"
       style="fill:#b9b9b9;fill-opacity:1;stroke:#ffffff" /></g><g
     id="g179"
     style="fill:#b9b9b9;fill-opacity:1"><polygon
       points="85,676.667 89.333,672.833 90.5,668.833 88,666.167 86.333,662.667 85.167,665.5 80.833,665.333 77.167,667.833 74.333,672.167 72,672.667 81,674.667 "
       id="polygon181"
       style="fill:#b9b9b9;fill-opacity:1;stroke:#ffffff" /><polygon
       points="74.667,691.167 76.667,685.167 75,683.667 69.5,687.667 64.333,687.333 63,695.333 66,697.5 69.667,695.833 69.667,692.667 "
       id="polygon183"
       style="fill:#b9b9b9;fill-opacity:1;stroke:#ffffff" /><polygon
       points="77.833,696 75,697.833 71.5,695.333 70.333,697.333 65.5,698.667 66.833,702.5 72.5,706 75.333,703.167 78.333,700.667 "
       id="polygon185"
       style="fill:#b9b9b9;fill-opacity:1;stroke:#ffffff" /><polygon
       points="82,710.333 83.5,708.333 82.667,705.833 79.333,710.5 78.5,714.667 79.5,718.333 82,719.667 84.5,717 82.833,714 "
       id="polygon187"
       style="fill:#b9b9b9;fill-opacity:1;stroke:#ffffff" /><polygon
       points="87.167,724.667 89.833,721.667 91.333,718 89.333,715.833 88.667,713.833 86.167,715.667 88.333,719.667 84.667,722.667 82.833,723.5 84.833,724.667 84.167,727.167 "
       id="polygon189"
       style="fill:#b9b9b9;fill-opacity:1;stroke:#ffffff" /><polygon
       points="95.167,684 89.5,684.667 93.167,687.167 95.833,688.667 98.5,686.333 97.5,682.5 "
       id="polygon191"
       style="fill:#b9b9b9;fill-opacity:1;stroke:#ffffff" /><polygon
       points="96.667,691.667 93.833,690.333 90.5,688.667 89.667,694.167 90.5,700.5 94.833,699 99.5,695.833 "
       id="polygon193"
       style="fill:#b9b9b9;fill-opacity:1;stroke:#ffffff" /><polygon
       points="94.667,675.833 96.167,673.5 93.167,673 92.333,674.833 88.833,676.5 87.667,679 91,681.5 92.167,678.667 94.833,677.833 "
       id="polygon195"
       style="fill:#b9b9b9;fill-opacity:1;stroke:#ffffff" /><polygon
       points="94.833,711.167 98.167,709.167 99,706 95.833,703.667 92.333,707 "
       id="polygon197"
       style="fill:#b9b9b9;fill-opacity:1;stroke:#ffffff" /><polygon
       points="114.667,675.5 120.5,677.167 119.833,679.833 123.5,679 123.833,675.5 120.167,674.5 118,674 119.167,670.833 121.833,670 119.167,667.5 116.167,665.833 114.167,666.667 115.833,669.333 114.5,670.667 112,672.833 108,674.833 112.167,676.5 "
       id="polygon199"
       style="fill:#b9b9b9;fill-opacity:1;stroke:#ffffff" /><path
       inkscape:connector-curvature="0"
       d="m 96.333,630.333 -6,2.667 -3.833,4.333 c 0,0 -4.5,2.333 -4.167,2.833 0.333,0.5 2.333,4 2.333,4 l 5.667,-0.333 2,-4.5 0.167,-3.667 3.667,-3.666 0.166,-1.667 z"
       id="path201"
       style="fill:#b9b9b9;fill-opacity:1;stroke:#ffffff" /><path
       inkscape:connector-curvature="0"
       d="m 94.5,649.5 -3.5,2.5 3.5,0.666 0.5,6 c 0,0 -3,2.333 -2.167,2.5 0.833,0.167 5.833,0.167 5.833,0.167 L 99,657 98.333,653.333 94.5,649.5 z"
       id="path203"
       style="fill:#b9b9b9;fill-opacity:1;stroke:#ffffff" /></g><g
     id="g205"
     style="fill:#b9b9b9;fill-opacity:1"><g
       id="g207"
       style="fill:#b9b9b9;fill-opacity:1"><path
         inkscape:connector-curvature="0"
         d="M 287.25,668 H 293 l 6.5,-7.5 2,-0.75 3.167,-3.083 2.333,-2.334 0.667,-3.833 -1.834,0.167 -1.333,-4.667 -2.667,-2 -1.333,-2.667 -5,-4 -0.667,-6 -8.583,-7.083 0.75,-8.75 -4.25,-6 -2.25,-4 -4.25,-4.25 -7,-4.5 -6.875,-0.25 -6.375,8.625 -0.198,3.664 -0.302,-3.622 -4,-2.292 -4.833,3.625 -4.167,-2.667 -3.875,-0.333 -3.125,-3.625 -2.25,3.875 -3.125,-1.125 0.208,-3.125 -8.583,6.625 -3.75,-0.792 -4.375,-1.708 -1.125,-3.125 2.375,-0.625 -0.75,-6.375 -3,-0.625 -1,-2.375 2.542,-1.334 0.458,-2.791 -1.5,-1.25 -1.292,-3.959 -3.833,0.334 -1.75,4.25 -1.75,1.375 -0.25,2.875 -3.769,0.686 0.352,-0.353 -4.458,-3.458 -0.875,-3.375 -7,-3.875 0.25,-1.625 -3.25,-1.667 -1.833,2.833 -5.042,-0.041 -3.458,3.875 0.958,2.75 -1,4.125 -2.458,1.291 -0.042,4.584 -7.75,2.625 -3.625,3.875 -4.375,-1.375 -2.875,0.375 0.125,4 -7.5,-1.75 -0.5,-5.875 -2.375,-0.25 -2.375,-5.125 1,-6.625 -7.042,-0.792 -3.333,3.5 v 4.5 l 5.833,5.5 -6,-2.667 -2,1.167 -1.5,5 -0.333,4.667 -6,1.333 -0.333,5.333 -2.667,0.5 -0.667,5.834 0.5,1.666 -0.5,2.5 2.333,1.167 7.5,-4.333 -2.666,3.5 1,3.333 4.5,4.334 1.5,4.333 5.833,1.333 -2.166,2.667 1.833,1.5 -1.833,2.167 -2.833,2 -0.834,4.166 -1.667,-2 -1.333,-1.333 -1,2.833 -1.833,1.167 -3,1.833 2.167,2.167 1.333,-0.667 0.833,3.334 1.333,2.833 0.5,6.333 1.5,1.334 -2,3.166 1.5,3.834 0.333,2 0.352,0.137 -2.018,1.863 -2.333,2.666 -2.167,3.167 3.333,3.167 5.167,-1 2.333,-0.167 2.667,-0.333 -1,1.666 -4.833,0.834 -4.667,0.666 0.167,2.167 -2.333,2 2,1.167 5.166,-0.667 3.667,1.5 5.667,-0.833 6.5,7.833 2,0.5 0.333,3.5 7,4 -5.167,0.833 -3.667,-3 -3.167,-0.5 -0.167,3.834 -5.832,-2.667 -5.5,-4 2.667,-4.5 -2.667,-0.333 -1,1.666 -3.167,-1.666 -1.667,0.333 0.167,3 -0.167,4.667 3.667,-0.834 2,2.834 4.833,3.5 -1.333,3.833 -7,-3.667 -4.167,-1 -1.833,-7.166 -2.167,-4.667 0.833,-3.167 -1.5,-1.166 -0.333,-2.334 -5.166,-3.333 -2.167,6 -3.167,2.667 v 9.166 L 113,710.5 v 3.333 l 3.667,4.167 0.167,1.5 9.333,2.667 0.833,3.333 4.5,-2.5 4.167,4.167 1,3.5 0.5,7.166 -1.333,1.667 3.833,4.167 3.667,-2.667 -0.833,4.333 c 0,0 -2.833,1.334 -3,2.167 -0.167,0.833 -1.667,7 -1.667,7 l 4.333,-0.333 0.833,4.166 0.667,5.334 4.833,-4.167 6,0.833 -0.167,-6.333 2.333,-1.833 -1.666,-3.667 5.167,-3 6.167,-3.833 3.666,-1.167 1.333,-2.5 2.333,-1.833 -0.833,-1.834 2.167,-2 c 0,0 1.167,-7.832 1.167,-9.166 0,-1.334 0.666,-11.167 0.666,-11.167 l 2,-1.5 -1.333,2.833 0.833,5.334 1.667,2.5 v 13 l 1.833,2 3.833,3.833 6.5,2.166 -2,-3.833 7.667,0.833 V 735.5 l 2.5,2.166 4.333,-2.166 -2.167,-2.334 0.833,-3.5 -2.167,-2.833 4,-2 1.333,-4 -2,-0.833 0.667,-1.834 1.167,-3.333 -3.165,-1.833 0.167,-1 6,0.5 2.833,-3.5 5,-4.167 4.5,-4.166 2.667,1.333 5.833,-1.333 3.833,-7.5 3.167,-4.167 0.5,-0.667 2.333,6.167 4,-0.167 4,-2.5 1.167,3.334 0.333,4.333 -0.667,5.333 -5.667,0.334 -0.5,-5.834 -2,-1.333 -4.333,3.667 v 6.166 l 1.667,4.834 -3.333,5.166 -4.5,-0.333 1.167,-5.333 1.667,-4 -3,1.5 -3.5,6 -4.5,3 -0.833,6.666 0.667,2.334 6,0.666 4.667,-1.833 5.167,0.5 5.333,0.5 -2,5 2.333,2.667 5,2.5 2.5,-3.5 6.333,0.333 0.167,-3 4.5,-1.667 0.667,-6.666 -3.667,-0.334 c 0,0 -0.167,-3 -0.167,-3.666 0,-0.666 5.333,0.166 5.333,0.166 l 6.167,-0.666 1.5,-6.334 -4,-3.166 1.833,-2 -6.833,-2.5 -0.333,-1.834 -2,-2.5 -3.833,-2.5 -1.5,-3.666 3.167,-2 0.333,-2.834 -1.833,-1.5 0.5,-1.833 1.667,-3.167 -5.336,-3.333 5.5,0.167 2.5,-1.167 8,-1 -0.167,-4.667 2.833,-1.166 0.5,2.666 3.333,4 -1.832,4.667 4.667,0.333 0.5,4.667 4.333,4 -5.667,4.667 1.167,3.333 -1.5,1.333 1.5,5.667 3.333,3.833 V 708.5 h 2.5 l 3.333,2.5 0.667,-5.333 -1.833,-1.834 -0.333,-2.166 -1,-3.167 3.833,-2 2.333,-4 4.167,3.667 5.333,0.666 2.333,-3.166 -0.5,-4.334 2.167,-3.333 0.333,-5.667 1,-4 -2,-2.166 -1.666,1.833 -2,-1.5 -4.167,-0.333 -3.5,3.666 -3.667,3.334 -0.833,-3.5 -4.833,-4 -3.333,-4.5 0.833,-2.667 -0.151,-0.655 2.984,-2.345 2.75,4.5 z m -79.167,-35.667 -2,3.167 -2,3 -3.583,1.667 -1,1.5 -3.833,-3.167 -3.917,1.75 -5.25,1.333 -3.25,2.417 -5.5,-0.25 -1.75,-1.333 0.583,-2.25 -3.083,-3.834 -9.083,0.167 c 0,0 -2.667,-1.833 -2.917,-2.167 -0.25,-0.334 0,-5.916 0,-5.916 l 2.25,-1.75 -1.5,-2.75 3.917,-3.75 4.417,-0.584 1.75,-6.166 h 2.25 l 0.25,2.666 6.166,2.917 5.083,-2.25 2.583,-2.667 2.834,-0.083 3.333,-2 2.167,1.667 2.667,4 1.75,4.416 2,1.917 3.167,-0.083 2.25,2.916 -1.5,1.417 v 2.167 l 0.749,1.916 z"
         id="path209"
         style="fill:#b9b9b9;fill-opacity:1" /></g><g
       id="g211"
       style="fill:#b9b9b9;fill-opacity:1"><path
         inkscape:connector-curvature="0"
         d="M 287.25,668 H 293 l 6.5,-7.5 2,-0.75 3.167,-3.083 2.333,-2.334 0.667,-3.833 -1.834,0.167 -1.333,-4.667 -2.667,-2 -1.333,-2.667 -5,-4 -0.667,-6 -8.583,-7.083 0.75,-8.75 -4.25,-6 -2.25,-4 -4.25,-4.25 -7,-4.5 -6.875,-0.25 -6.375,8.625 -0.198,3.664 -0.302,-3.622 -4,-2.292 -4.833,3.625 -4.167,-2.667 -3.875,-0.333 -3.125,-3.625 -2.25,3.875 -3.125,-1.125 0.208,-3.125 -8.583,6.625 -3.75,-0.792 -4.375,-1.708 -1.125,-3.125 2.375,-0.625 -0.75,-6.375 -3,-0.625 -1,-2.375 2.542,-1.334 0.458,-2.791 -1.5,-1.25 -1.292,-3.959 -3.833,0.334 -1.75,4.25 -1.75,1.375 -0.25,2.875 -3.769,0.686 0.352,-0.353 -4.458,-3.458 -0.875,-3.375 -7,-3.875 0.25,-1.625 -3.25,-1.667 -1.833,2.833 -5.042,-0.041 -3.458,3.875 0.958,2.75 -1,4.125 -2.458,1.291 -0.042,4.584 -7.75,2.625 -3.625,3.875 -4.375,-1.375 -2.875,0.375 0.125,4 -7.5,-1.75 -0.5,-5.875 -2.375,-0.25 -2.375,-5.125 1,-6.625 -7.042,-0.792 -3.333,3.5 v 4.5 l 5.833,5.5 -6,-2.667 -2,1.167 -1.5,5 -0.333,4.667 -6,1.333 -0.333,5.333 -2.667,0.5 -0.667,5.834 0.5,1.666 -0.5,2.5 2.333,1.167 7.5,-4.333 -2.666,3.5 1,3.333 4.5,4.334 1.5,4.333 5.833,1.333 -2.166,2.667 1.833,1.5 -1.833,2.167 -2.833,2 -0.834,4.166 -1.667,-2 -1.333,-1.333 -1,2.833 -1.833,1.167 -3,1.833 2.167,2.167 1.333,-0.667 0.833,3.334 1.333,2.833 0.5,6.333 1.5,1.334 -2,3.166 1.5,3.834 0.333,2 0.352,0.137 -2.018,1.863 -2.333,2.666 -2.167,3.167 3.333,3.167 5.167,-1 2.333,-0.167 2.667,-0.333 -1,1.666 -4.833,0.834 -4.667,0.666 0.167,2.167 -2.333,2 2,1.167 5.166,-0.667 3.667,1.5 5.667,-0.833 6.5,7.833 2,0.5 0.333,3.5 7,4 -5.167,0.833 -3.667,-3 -3.167,-0.5 -0.167,3.834 -5.832,-2.667 -5.5,-4 2.667,-4.5 -2.667,-0.333 -1,1.666 -3.167,-1.666 -1.667,0.333 0.167,3 -0.167,4.667 3.667,-0.834 2,2.834 4.833,3.5 -1.333,3.833 -7,-3.667 -4.167,-1 -1.833,-7.166 -2.167,-4.667 0.833,-3.167 -1.5,-1.166 -0.333,-2.334 -5.166,-3.333 -2.167,6 -3.167,2.667 v 9.166 L 113,710.5 v 3.333 l 3.667,4.167 0.167,1.5 9.333,2.667 0.833,3.333 4.5,-2.5 4.167,4.167 1,3.5 0.5,7.166 -1.333,1.667 3.833,4.167 3.667,-2.667 -0.833,4.333 c 0,0 -2.833,1.334 -3,2.167 -0.167,0.833 -1.667,7 -1.667,7 l 4.333,-0.333 0.833,4.166 0.667,5.334 4.833,-4.167 6,0.833 -0.167,-6.333 2.333,-1.833 -1.666,-3.667 5.167,-3 6.167,-3.833 3.666,-1.167 1.333,-2.5 2.333,-1.833 -0.833,-1.834 2.167,-2 c 0,0 1.167,-7.832 1.167,-9.166 0,-1.334 0.666,-11.167 0.666,-11.167 l 2,-1.5 -1.333,2.833 0.833,5.334 1.667,2.5 v 13 l 1.833,2 3.833,3.833 6.5,2.166 -2,-3.833 7.667,0.833 V 735.5 l 2.5,2.166 4.333,-2.166 -2.167,-2.334 0.833,-3.5 -2.167,-2.833 4,-2 1.333,-4 -2,-0.833 0.667,-1.834 1.167,-3.333 -3.165,-1.833 0.167,-1 6,0.5 2.833,-3.5 5,-4.167 4.5,-4.166 2.667,1.333 5.833,-1.333 3.833,-7.5 3.167,-4.167 0.5,-0.667 2.333,6.167 4,-0.167 4,-2.5 1.167,3.334 0.333,4.333 -0.667,5.333 -5.667,0.334 -0.5,-5.834 -2,-1.333 -4.333,3.667 v 6.166 l 1.667,4.834 -3.333,5.166 -4.5,-0.333 1.167,-5.333 1.667,-4 -3,1.5 -3.5,6 -4.5,3 -0.833,6.666 0.667,2.334 6,0.666 4.667,-1.833 5.167,0.5 5.333,0.5 -2,5 2.333,2.667 5,2.5 2.5,-3.5 6.333,0.333 0.167,-3 4.5,-1.667 0.667,-6.666 -3.667,-0.334 c 0,0 -0.167,-3 -0.167,-3.666 0,-0.666 5.333,0.166 5.333,0.166 l 6.167,-0.666 1.5,-6.334 -4,-3.166 1.833,-2 -6.833,-2.5 -0.333,-1.834 -2,-2.5 -3.833,-2.5 -1.5,-3.666 3.167,-2 0.333,-2.834 -1.833,-1.5 0.5,-1.833 1.667,-3.167 -5.336,-3.333 5.5,0.167 2.5,-1.167 8,-1 -0.167,-4.667 2.833,-1.166 0.5,2.666 3.333,4 -1.832,4.667 4.667,0.333 0.5,4.667 4.333,4 -5.667,4.667 1.167,3.333 -1.5,1.333 1.5,5.667 3.333,3.833 V 708.5 h 2.5 l 3.333,2.5 0.667,-5.333 -1.833,-1.834 -0.333,-2.166 -1,-3.167 3.833,-2 2.333,-4 4.167,3.667 5.333,0.666 2.333,-3.166 -0.5,-4.334 2.167,-3.333 0.333,-5.667 1,-4 -2,-2.166 -1.666,1.833 -2,-1.5 -4.167,-0.333 -3.5,3.666 -3.667,3.334 -0.833,-3.5 -4.833,-4 -3.333,-4.5 0.833,-2.667 -0.151,-0.655 2.984,-2.345 2.75,4.5 z m -79.167,-35.667 -2,3.167 -2,3 -3.583,1.667 -1,1.5 -3.833,-3.167 -3.917,1.75 -5.25,1.333 -3.25,2.417 -5.5,-0.25 -1.75,-1.333 0.583,-2.25 -3.083,-3.834 -9.083,0.167 c 0,0 -2.667,-1.833 -2.917,-2.167 -0.25,-0.334 0,-5.916 0,-5.916 l 2.25,-1.75 -1.5,-2.75 3.917,-3.75 4.417,-0.584 1.75,-6.166 h 2.25 l 0.25,2.666 6.166,2.917 5.083,-2.25 2.583,-2.667 2.834,-0.083 3.333,-2 2.167,1.667 2.667,4 1.75,4.416 2,1.917 3.167,-0.083 2.25,2.916 -1.5,1.417 v 2.167 l 0.749,1.916 z"
         id="path213"
         style="fill:#b9b9b9;fill-opacity:1;stroke:#ffffff" /></g></g></g><g
   transform="translate(-49.250007,-85.395)"
   id="_xB7__xB9_ÀÌ_xBE_î_x5F_19"><rect
     style="fill:none;stroke:#000000"
     x="415.5"
     y="716"
     width="133"
     height="85"
     id="rect216" /><rect
     style="fill:none;stroke:#000000"
     x="49.75"
     y="249.25"
     width="30.5"
     height="30.5"
     id="rect218" /><rect
     style="fill:none;stroke:#000000"
     x="85.25"
     y="269.25"
     width="10.25"
     height="10.25"
     id="rect220" /><rect
     style="fill:none;stroke:#000000"
     x="522.25"
     y="432.25"
     width="24"
     height="24"
     id="rect222" /><rect
     style="fill:none;stroke:#000000"
     x="549.5"
     y="447.75"
     width="8.25"
     height="8.25"
     id="rect224" /><g
     id="g238" /><g
     id="g248" /><g
     id="g262" /><g
     id="g276" /><g
     id="g290" /><g
     id="g304" /><g
     id="g314" /></g><g
   transform="translate(-49.250007,-85.395)"
   id="Ebene_1"
   style="fill:#b9b9b9;fill-opacity:1"><g
     id="Sejong"
     style="fill:#b9b9b9;fill-opacity:1"><polygon
       points="229.833,382.821 238.708,388.071 243.083,387.946 243.583,390.071 245.208,390.071 244.708,393.946 241.958,395.821 243.208,398.821 245.208,401.196 245.208,405.196 248.583,406.571 251.833,410.071 254.333,409.155 258.542,410.571 252.885,412.321 251.583,414.696 253.333,417.321 255.083,418.321 253.708,419.696 251.363,419.696 251.683,423.567 251.333,427.071 247.583,430.946 243.708,431.071 240.958,434.321 240.958,443.696 239.433,446.513 237.083,442.571 233.708,441.696 234.146,439.571 232.958,437.821 233.625,430.739 231.875,428.071 232.625,425.905 231.625,422.821 228.542,420.989 227.708,420.321 226.125,421.155 224.458,417.155 227.375,410.989 225.333,398.196 226.708,394.196 226.083,388.821 223.458,386.321 225.208,383.071 "
       id="polygon374"
       style="fill:#b9b9b9;fill-opacity:1;stroke:#ffffff" /></g></g><path
   style="stroke-width:1.07280231;fill:#b9b9b9;fill-opacity:1"
   d="m 366.05455,241.81843 c -3.84011,-2.31241 -7.42278,-3.69749 -9.10694,-3.52083 -1.52702,0.16017 -4.46757,-0.70659 -6.53455,-1.92614 -2.95474,-1.74334 -5.01353,-2.11325 -9.63053,-1.73038 -5.51831,0.45762 -5.96681,0.31054 -7.43856,-2.43945 -1.51055,-2.8225 -1.80152,-2.90446 -8.19182,-2.30772 -7.99938,0.74699 -9.29985,-0.75589 -4.0342,-4.6621 5.81344,-4.31257 4.27647,-8.90151 -2.16154,-6.45379 -2.54136,0.96623 -3.42582,0.74175 -6.16772,-1.56541 -3.88663,-3.27037 -4.90226,-3.33013 -7.94921,-0.46765 -2.0681,1.94286 -2.66464,2.04512 -4.6939,0.8046 -2.02345,-1.23699 -2.51973,-1.15816 -3.82987,0.60839 -0.82785,1.11626 -1.64327,2.38513 -1.81207,2.81974 -0.16878,0.43461 -1.80761,1.11366 -3.64183,1.509 -3.03623,0.65442 -3.46319,0.40185 -4.76671,-2.81973 -0.78746,-1.9462 -1.94192,-3.89322 -2.56547,-4.32672 -1.91203,-1.32928 -5.90026,-0.9105 -8.68106,0.91156 -2.19979,1.44135 -2.64426,2.5942 -2.64426,6.85844 0,5.49973 -1.33198,6.87776 -5.71746,5.91519 -1.28071,-0.2811 -3.77684,0.14147 -5.54697,0.93904 -3.05997,1.37875 -3.40636,1.27105 -7.03671,-2.18779 l -3.81831,-3.63792 1.36192,-7.75998 c 0.74906,-4.26799 1.38108,-10.47505 1.4045,-13.79347 0.0311,-4.40891 0.77619,-7.34606 2.76712,-10.90821 3.01761,-5.3991 2.80619,-9.27074 -0.7189,-13.16504 -1.96856,-2.17472 -1.95184,-2.26271 0.94539,-4.97529 1.62216,-1.51877 4.0356,-3.08955 5.36319,-3.49062 3.31782,-1.00233 3.04395,-1.71536 -2.04146,-5.31509 -2.99204,-2.11792 -6.17182,-3.29059 -9.89197,-3.64804 -3.87694,-0.37253 -7.13973,-1.62714 -11.14141,-4.2841 -5.06977,-3.36614 -5.95322,-3.62321 -8.48597,-2.4692 -3.63621,1.65676 -5.05868,0.26418 -3.61333,-3.53739 0.61197,-1.6096 1.11267,-4.59397 1.11267,-6.63194 0,-3.45253 -0.18992,-3.65774 -2.78277,-3.00698 l -2.78278,0.69843 1.74253,-3.36969 c 1.34497,-2.60088 1.47336,-3.87264 0.56273,-5.57417 -0.84983,-1.58793 -0.85376,-2.59736 -0.0141,-3.60914 0.64117,-0.77257 0.85334,-2.21881 0.4715,-3.21388 -0.83261,-2.16974 4.42323,-8.11795 7.17301,-8.11795 2.56574,0 3.19791,-5.73062 1.13439,-10.28326 -1.40095,-3.09084 -2.21209,-3.66317 -5.19166,-3.66317 -3.19276,0 -3.5313,-0.30249 -3.5313,-3.15528 0,-2.856204 -0.43215,-3.240273 -4.55941,-4.052086 l -4.5594,-0.896815 -1.19256,-7.242691 c -0.65591,-3.98348 -1.51749,-7.567621 -1.91463,-7.964756 -1.19333,-1.193338 -9.66092,-1.26795 -11.07116,-0.09755 -0.90033,0.747208 -2.34001,0.635368 -4.58703,-0.356339 -3.07731,-1.358144 -3.23511,-1.711175 -2.61567,-5.852014 0.88552,-5.919505 -1.44923,-6.867635 -6.3391,-2.574274 -2.71931,2.387584 -3.88047,2.844081 -4.8269,1.897646 -0.68543,-0.685429 -1.24332,-1.753131 -1.23976,-2.372674 0.004,-0.619543 -1.08265,-3.634277 -2.4138,-6.699411 -2.08607,-4.803411 -2.75359,-5.491018 -4.83408,-4.979511 -2.11716,0.520526 -2.41381,0.179002 -2.41381,-2.778993 0,-2.750028 1.36406,-6.065868 3.96813,-9.645992 0.17947,-0.246741 1.46675,0.161723 2.86061,0.907698 2.09777,1.122689 3.08552,1.071267 5.73443,-0.298534 3.45377,-1.786017 7.62948,-1.322355 9.55625,1.061106 1.0149,1.255466 1.41017,1.230632 2.56526,-0.161176 0.75699,-0.912114 2.21392,-1.376044 3.26936,-1.041061 1.04712,0.332345 2.21436,0.101863 2.59386,-0.512179 1.15677,-1.871704 5.3451,-1.256129 10.65197,1.565565 6.31841,3.359528 7.4214,3.346198 11.99861,-0.145016 3.36548,-2.566978 4.34686,-2.775614 10.66887,-2.268145 3.82934,0.307384 7.22673,0.131261 7.54974,-0.391384 0.32301,-0.522645 1.91053,-0.950263 3.52783,-0.950263 1.61729,0 3.50731,-0.56678 4.20004,-1.25951 0.96414,-0.964144 1.88298,-0.586773 3.91814,1.609204 3.07174,3.314458 4.55713,3.530586 7.9469,1.156297 2.78704,-1.952122 7.30259,-1.665819 18.63486,1.181524 l 7.19224,1.807121 9.12371,-5.510981 c 9.26987,-5.59927 17.67782,-13.952516 19.88365,-19.754286 0.62121,-1.633884 1.12946,-5.53411 1.12946,-8.667171 0,-12.943799 2.56968,-16.35450369 7.69568,-10.2143834 1.66779,1.9977428 3.03234,4.3282439 3.03234,5.1788914 0,0.850647 1.72369,4.628882 3.83043,8.396079 2.10674,3.767196 3.62165,7.434297 3.36647,8.149114 -0.25517,0.714815 1.09799,3.47209 3.00702,6.127276 1.90904,2.655185 3.83701,6.034512 4.2844,7.509616 0.44739,1.475103 2.67673,6.404373 4.9541,10.953933 4.96837,9.925492 7.34093,16.475313 7.36203,20.324032 0.01,1.667469 1.57256,4.712262 3.77041,7.342917 2.06515,2.471817 3.75481,5.122669 3.75481,5.89078 0,0.768113 1.68967,2.880113 3.75481,4.693333 2.06515,1.813222 3.75481,4.007166 3.75481,4.875432 0,0.868265 0.50002,1.887692 1.11114,2.265392 0.61114,0.377702 3.06822,3.785519 5.46019,7.572929 2.39196,3.78741 4.78851,6.8862 5.32566,6.8862 0.53715,0 0.97664,0.91564 0.97664,2.03474 0,1.11911 3.40217,5.78039 7.56039,10.35839 4.23399,4.66145 7.31686,8.9583 7.00689,9.7661 -0.30443,0.79332 0.0513,1.44242 0.79046,1.44242 0.73919,0 3.9047,2.59292 7.03446,5.76205 4.0246,4.07523 5.62792,6.50919 5.47682,8.31421 -0.38727,4.62598 -0.0212,5.38171 4.94254,10.206 3.89533,3.78583 4.66328,5.08822 3.69099,6.25975 -0.96149,1.15853 -0.26419,2.89089 3.21556,7.98873 2.4438,3.58018 4.88633,6.78323 5.42783,7.1179 0.54151,0.33467 0.98456,1.78246 0.98456,3.21731 0,1.78411 1.15585,3.36652 3.65628,5.00558 2.7885,1.82792 3.81452,3.38637 4.32303,6.5664 0.47199,2.95167 1.78894,5.15315 4.50844,7.53654 2.11292,1.85179 4.96083,4.9974 6.32868,6.99023 2.03731,2.96819 2.25996,3.9869 1.23138,5.63393 -0.9861,1.57898 -0.88311,3.04649 0.47975,6.83648 1.28287,3.56752 1.3938,4.82589 0.4254,4.82589 -0.72049,0 -2.18376,0.96552 -3.25173,2.14561 -1.06796,1.18008 -2.74212,2.1456 -3.72037,2.1456 -2.76295,0 -7.54405,5.64635 -7.54405,8.90932 0,4.02257 -2.87544,3.77106 -8.12111,-0.71033 -5.82805,-4.97891 -8.65477,-5.71674 -11.54881,-3.01444 -2.0437,1.90833 -3.0953,2.06773 -8.75934,1.32787 -3.54025,-0.46245 -7.22411,-1.18098 -8.18636,-1.59672 -1.30641,-0.56446 -2.03953,0.076 -2.8944,2.5282 -0.96632,2.77198 -1.69728,3.28302 -4.68727,3.27705 -1.94833,-0.004 -4.9907,-0.96623 -6.76082,-2.13853 -4.28321,-2.83666 -4.91073,-2.71116 -8.04602,1.6092 -1.4751,2.03266 -3.19316,3.70903 -3.81792,3.72528 -0.62474,0.0162 -3.98465,-1.68589 -7.46646,-3.78252 z"
   id="path3977"
   inkscape:connector-curvature="0" /><path
   style="fill:#b9b9b9;fill-opacity:1;stroke-width:1.07280231"
   d="m 190.82068,267.01941 c -1.39296,-1.14317 -3.41731,-2.07849 -4.49857,-2.07849 -1.08126,0 -2.61671,-0.92912 -3.41212,-2.06472 -0.7954,-1.13561 -3.50587,-2.88885 -6.02326,-3.89611 -4.55518,-1.82263 -4.59088,-1.81851 -7.46526,0.86084 -4.12847,3.84834 -6.71283,4.9141 -10.51384,4.33572 -2.12087,-0.32272 -4.93462,0.30895 -7.73109,1.73561 l -4.39664,2.243 -2.5411,-2.41178 c -1.3976,-1.32646 -3.59105,-3.25187 -4.87433,-4.27866 -1.28329,-1.0268 -2.33325,-2.83716 -2.33325,-4.02301 0,-1.21689 -0.71255,-2.15611 -1.63576,-2.15611 -0.89966,0 -2.0688,-1.139 -2.59808,-2.53113 -0.6365,-1.6741 -2.14858,-2.76836 -4.46581,-3.23181 -2.70444,-0.54089 -3.21293,-0.99124 -2.22952,-1.97465 0.70067,-0.70068 1.27395,-3.5912 1.27395,-6.4234 0,-4.75794 0.20104,-5.14945 2.64426,-5.14945 1.54629,0 3.12106,-0.89091 3.79255,-2.14561 0.77854,-1.4547 0.79069,-2.1456 0.0377,-2.1456 -0.61079,0 -1.11054,-1.30345 -1.11054,-2.89657 0,-2.25288 -0.28608,-2.61048 -1.28736,-1.6092 -0.70805,0.70805 -2.27703,1.28737 -3.48661,1.2874 -1.23013,2e-5 -3.52768,1.66493 -5.21392,3.77828 -3.28027,4.11111 -5.42584,4.06742 -4.38258,-0.0893 0.54189,-2.15907 0.2578,-2.61625 -1.6257,-2.61625 -1.9456,0 -2.17829,-0.43529 -1.5771,-2.95021 0.38788,-1.62261 1.12252,-3.76574 1.63254,-4.7625 0.54739,-1.06981 0.50578,-2.07282 -0.10155,-2.44817 -0.56587,-0.34972 -0.74678,-1.37091 -0.40203,-2.26932 0.76708,-1.99898 8.9068,-1.61964 11.50437,0.53615 1.4419,1.19667 1.84001,0.99408 2.75,-1.39938 1.08885,-2.86389 1.85657,-3.20087 6.4121,-2.81449 2.50817,0.21274 2.54609,0.12069 0.94565,-2.29505 -1.09678,-1.65549 -3.09223,-2.72269 -5.83137,-3.11873 -4.40113,-0.63632 -10.52228,-3.43538 -11.70789,-5.35373 -0.38867,-0.62889 0.47656,-2.92543 1.92273,-5.10344 1.44618,-2.178 3.89579,-6.20099 5.44359,-8.93997 l 2.81418,-4.97996 -2.12293,-2.69887 c -2.31373,-2.94143 -2.73508,-5.61029 -1.05013,-6.65165 0.59004,-0.36467 1.0728,-1.58971 1.0728,-2.72232 0,-1.78798 0.34138,-1.90375 2.59108,-0.87872 2.76131,1.25813 4.19476,4.43209 2.68398,5.94288 -0.50247,0.50246 -0.62152,2.03037 -0.26457,3.39536 0.63575,2.43112 1.52362,2.55339 5.76003,0.79316 1.18486,-0.49231 2.01096,0.30714 2.92274,2.82849 1.16053,3.20921 1.68778,3.53076 6.06471,3.69867 3.02786,0.11617 5.25988,-0.37781 6.05925,-1.341 1.88263,-2.26844 6.46119,-1.93227 7.10287,0.52152 0.91004,3.47998 4.36682,3.47919 6.84535,-0.001 1.22098,-1.71522 2.8364,-3.11815 3.58983,-3.11815 2.45237,0 5.37721,-4.29136 5.13061,-7.5277 -0.16105,-2.11351 0.40962,-3.45633 1.78071,-4.19011 1.41705,-0.75839 1.8649,-1.87924 1.50439,-3.76513 -0.601,-3.14389 -3.60017,-4.42079 -6.60561,-2.81233 -1.95432,1.04593 -2.07369,0.85505 -1.5363,-2.45652 0.36347,-2.2398 -0.0654,-4.84373 -1.13996,-6.92174 -0.94744,-1.83215 -1.72262,-4.83983 -1.72262,-6.68373 0,-2.99903 -0.31108,-3.32777 -2.95021,-3.11772 -1.62261,0.12915 -3.81302,-0.1344 -4.86757,-0.58566 -2.53758,-1.08587 -5.7911,1.8975 -6.72971,6.17093 -0.71956,3.27613 -0.7302,3.28052 -2.47461,1.02088 l -1.75194,-2.26941 -2.95021,2.57123 c -1.67113,1.45646 -2.95021,3.67774 -2.95021,5.12341 0,1.64789 -0.98432,3.07897 -2.77804,4.03895 -2.43789,1.30472 -3.18387,1.25386 -6.09228,-0.41534 -3.02971,-1.73881 -3.39756,-1.75316 -4.28511,-0.16719 -1.39854,2.49905 -6.6285,1.08702 -12.45675,-3.36318 -2.60415,-1.98842 -5.07067,-3.61531 -5.48115,-3.61531 -0.41048,0 -1.24465,1.08622 -1.8537,2.41381 -0.60905,1.32759 -2.61758,2.97532 -4.46341,3.66162 -2.87244,1.06801 -3.35604,1.00288 -3.35604,-0.45193 0,-0.93486 -0.70579,-2.47963 -1.56842,-3.43282 -1.3831,-1.52831 -4.116063,-20.21048 -3.128467,-21.38579 0.194603,-0.23159 0.968947,0.0625 1.720757,0.65364 0.75181,0.5911 2.8746,1.35971 4.71732,1.70802 2.6613,0.50304 3.85816,0.0928 5.81921,-1.99465 1.35786,-1.44537 3.10882,-2.62794 3.89103,-2.62794 0.85731,0 1.4222,-1.24789 1.4222,-3.14178 0,-4.16427 2.54263,-6.51344 7.04984,-6.51344 4.41173,0 4.52103,-0.86173 0.89423,-7.05038 -2.06881,-3.53017 -3.4467,-4.75045 -5.36401,-4.75045 -1.91163,0 -2.58006,-0.58784 -2.58006,-2.26898 0,-2.14572 0.13927,-2.17774 2.56357,-0.58927 2.3457,1.53696 2.69656,1.52465 4.12815,-0.14482 0.86051,-1.00349 1.90529,-2.77653 2.32174,-3.94008 0.63437,-1.7724 0.91916,-1.8594 1.75584,-0.5364 0.54927,0.86853 1.00606,2.92692 1.01509,4.5742 0.0192,3.50686 3.5169,7.72955 5.70646,6.88934 0.88723,-0.34046 1.82608,-2.89825 2.25747,-6.15028 0.61149,-4.60964 0.4171,-5.80246 -1.12997,-6.9337 -1.75575,-1.28384 -1.75888,-1.47593 -0.0518,-3.182995 0.99918,-0.999184 1.8167,-2.523343 1.8167,-3.387019 0,-1.264549 0.44021,-1.334724 2.26078,-0.360387 2.93282,1.569596 3.83915,0.497218 4.7317,-5.598564 0.64319,-4.392754 0.45833,-5.147081 -1.52095,-6.206359 -1.57978,-0.845475 -2.87326,-0.873952 -4.3282,-0.09529 -3.87755,2.0752 -6.93203,1.29322 -8.97654,-2.298093 l -1.93279,-3.395073 6.70412,-6.764251 c 6.05111,-6.105374 6.876,-6.608704 8.46866,-5.167374 2.58479,2.339208 10.83345,1.417651 12.06762,-1.348219 0.90196,-2.02137 11.88893,-9.954909 13.78632,-9.954909 0.50784,0 0.92335,0.99726 0.92335,2.216133 0,3.836146 2.01237,6.547462 4.02403,5.421678 1.43669,-0.804011 2.14505,-0.170822 3.70381,3.310794 1.06006,2.367715 1.92738,4.824553 1.92738,5.459642 0,0.635087 1.03562,2.257076 2.30138,3.604418 l 2.30139,2.449714 4.31287,-3.415852 4.31286,-3.415853 -0.69331,5.058291 c -0.54978,4.011048 -0.37306,5.058291 0.85357,5.058291 0.85079,0 2.52302,1.047758 3.71608,2.328352 2.03212,2.181223 2.2936,2.215756 4.13812,0.546493 1.29286,-1.170026 3.4766,-1.693232 6.35977,-1.52375 l 4.39084,0.258108 0.73364,5.830609 c 1.17554,9.342764 2.03845,10.797827 6.40352,10.797827 3.48631,0 3.78136,0.251124 3.78136,3.218408 0,2.79181 0.39105,3.22059 2.95021,3.23484 3.47705,0.0194 4.61329,0.7328 6.48781,4.07368 1.415,2.52189 0.86277,6.63791 -0.89056,6.63791 -0.52975,0 -2.70224,1.52692 -4.82776,3.39315 -3.08408,2.70785 -3.73229,3.92025 -3.20955,6.00303 0.36027,1.43543 0.12378,3.25002 -0.52554,4.0324 -0.86632,1.04386 -0.81438,2.00892 0.19514,3.62542 1.08558,1.7383 1.09857,2.48005 0.0616,3.51703 -0.72277,0.72278 -1.31413,2.6984 -1.31413,4.39028 0,2.58793 0.34052,2.96806 2.1456,2.39515 1.88222,-0.59739 2.14561,-0.19278 2.14561,3.29605 0,2.24298 -0.6874,4.49636 -1.57654,5.1681 -1.36934,1.03453 -1.31539,1.53228 0.41037,3.78723 1.83963,2.40373 2.2363,2.49286 5.3515,1.2025 3.15939,-1.30866 3.72224,-1.1562 9.22835,2.49965 4.37898,2.90748 6.99036,3.89331 10.31303,3.89331 2.59703,0 5.91448,0.90553 7.96879,2.17517 l 3.5195,2.17518 -5.00208,4.79894 -5.00207,4.79895 2.34876,1.8765 c 3.80279,3.03815 4.07965,6.80629 0.95341,12.97563 -2.03524,4.01636 -2.76577,7.11552 -2.76577,11.73343 0,9.19252 -1.95686,18.32268 -5.14717,24.01516 -2.76723,4.93759 -2.84857,4.9869 -5.74983,3.48661 -4.49881,-2.32643 -5.19503,-1.90604 -5.19503,3.13685 0,4.22384 -0.35048,4.84742 -3.75481,6.68077 -2.06514,1.11215 -3.75481,2.69681 -3.75481,3.52144 0,1.08175 -0.86515,1.32632 -3.10627,0.8781 -1.70843,-0.34169 -4.84638,-0.33888 -6.97321,0.006 -3.15695,0.51213 -3.86695,1.08708 -3.86695,3.13124 0,2.70108 -2.76214,4.72499 -6.44848,4.72499 -1.94149,0 -2.25148,0.54374 -1.99661,3.50205 0.40874,4.74417 -0.6981,6.15317 -4.83362,6.15317 -2.80512,0 -3.80063,0.62337 -5.03249,3.15129 l -1.53564,3.1513 z"
   id="path3979"
   inkscape:connector-curvature="0" /><path
   style="fill:#b9b9b9;fill-opacity:1;stroke-width:0.06705014"
   d="m 164.28323,187.72951 -0.93917,-0.30256 -0.7706,-2.11422 c -0.42384,-1.16283 -0.80078,-2.1231 -0.83766,-2.13395 -0.19401,-0.0571 -6.09687,-0.36321 -6.13783,-0.31833 -0.0266,0.0291 -0.81171,0.9129 -1.74471,1.96391 -1.32512,1.49274 -1.73038,1.91001 -1.85185,1.90674 -0.0855,-0.002 -0.46478,-0.0102 -0.84277,-0.0176 l -0.68727,-0.0134 -1.40805,-0.97703 c -0.77443,-0.53737 -1.44374,-0.99204 -1.48736,-1.01037 -0.0436,-0.0183 -0.67294,0.3189 -1.3985,0.7494 -0.72555,0.4305 -1.34119,0.75731 -1.36808,0.72624 -0.0269,-0.0311 -0.72288,-1.59007 -1.54664,-3.46445 -1.44712,-3.29273 -1.51555,-3.43158 -2.02392,-4.10682 -0.2894,-0.38438 -0.53823,-0.69887 -0.55296,-0.69887 -0.0147,0 -0.67033,0.40241 -1.45688,0.89425 -1.03759,0.64881 -1.74883,1.03701 -2.59147,1.41445 -0.63877,0.28612 -1.18085,0.50075 -1.20464,0.47696 -0.0238,-0.0238 -0.27461,-0.68224 -0.55738,-1.46322 l -0.51412,-1.41997 0.37776,-0.4156 c 0.20777,-0.22857 0.58029,-0.63872 0.82782,-0.91144 l 0.45005,-0.49586 -0.64108,-2.54315 c -0.60417,-2.39671 -0.65266,-2.55263 -0.84217,-2.70768 -0.1106,-0.0905 -1.47292,-0.69818 -3.02738,-1.35042 -1.55446,-0.65224 -2.81903,-1.21854 -2.81014,-1.25845 0.009,-0.0399 0.73102,-1.16714 1.60476,-2.50497 0.87374,-1.33782 1.78746,-2.73714 2.03048,-3.1096 l 0.44186,-0.67719 2.08367,1.4181 2.08368,1.41809 0.63026,0.0882 c 0.34664,0.0485 1.21862,0.12484 1.93774,0.16966 l 1.30747,0.0815 1.25946,-1.13265 1.25946,-1.13265 1.15435,-0.51077 c 0.63489,-0.28092 1.16618,-0.51969 1.18064,-0.53059 0.0145,-0.0109 0.11142,-1.38587 0.21545,-3.05548 0.10403,-1.66961 0.19026,-3.03986 0.19161,-3.04498 0.001,-0.005 0.44285,-0.17108 0.98108,-0.36878 l 0.97862,-0.35945 1.14535,-1.22367 c 0.62994,-0.67301 1.16263,-1.22348 1.18375,-1.22327 0.0211,2.2e-4 0.31627,0.53578 0.65589,1.19014 0.6094,1.17418 0.62708,1.19929 1.35054,1.91896 0.40319,0.40106 0.76277,0.71085 0.79907,0.68841 0.0363,-0.0224 0.36136,0.0794 0.72234,0.22626 0.36098,0.14688 0.6777,0.26705 0.70382,0.26705 0.0261,0 0.28112,-0.36355 0.56666,-0.80789 l 0.51916,-0.80789 -0.0345,-0.41577 c -0.0262,-0.31541 0.0612,-0.9985 0.36193,-2.82959 l 0.39646,-2.4138 1.23946,-1.19631 c 0.6817,-0.65797 1.23946,-1.225 1.23946,-1.26007 0,-0.0351 0.12701,-0.23595 0.28226,-0.44642 0.15524,-0.21046 0.28934,-0.39355 0.29799,-0.40686 0.009,-0.0133 0.83041,0.52225 1.82613,1.19014 0.99573,0.66789 1.84264,1.21434 1.88204,1.21434 0.11441,0 1.97075,-0.94583 2.04636,-1.04265 0.0562,-0.072 0.2526,-0.0668 1.09616,0.0292 0.56939,0.0648 1.04864,0.1509 1.0747,0.19308 0.0259,0.0419 0.1491,1.3205 0.27382,2.84141 l 0.22677,2.76528 1.26013,2.24464 c 0.69308,1.23455 1.24475,2.26953 1.22595,2.29996 -0.0188,0.0304 0.0886,0.32812 0.23878,0.66155 l 0.27297,0.60624 0.0768,1.78673 0.0768,1.78674 -1.02152,0.99927 c -0.56183,0.54959 -1.00797,1.03455 -0.99142,1.07769 0.0554,0.14441 2.26425,3.36272 2.32174,3.38282 0.0312,0.0109 0.83752,-0.46152 1.79183,-1.04983 l 1.7351,-1.06966 1.59921,0.14465 1.59922,0.14465 0.324,0.64552 c 0.29983,0.59736 0.33426,0.71861 0.46157,1.62544 0.0757,0.53897 0.13758,1.02326 0.13758,1.07621 0,0.053 -0.83889,0.71584 -1.86421,1.47308 l -1.8642,1.37679 -0.18082,0.82512 c -0.28489,1.29995 -0.27163,1.41398 0.34993,3.00834 0.42931,1.10122 0.51582,1.38213 0.45259,1.46959 -0.043,0.0595 -0.85689,1.05908 -1.80865,2.22135 l -1.73048,2.11322 -1.41901,0.0782 -1.41901,0.0782 -0.45864,0.45278 c -0.34026,0.3359 -0.8736,1.0715 -2.06622,2.84981 -0.88416,1.31838 -1.64413,2.39464 -1.68883,2.39169 -0.0447,-0.003 -0.50388,-0.1415 -1.02043,-0.3079 z"
   id="path3997"
   inkscape:connector-curvature="0" /></svg>