<?xml version="1.0" encoding="UTF-8" standalone="no"?>
<svg
   xmlns:dc="http://purl.org/dc/elements/1.1/"
   xmlns:cc="http://creativecommons.org/ns#"
   xmlns:rdf="http://www.w3.org/1999/02/22-rdf-syntax-ns#"
   xmlns:svg="http://www.w3.org/2000/svg"
   xmlns="http://www.w3.org/2000/svg"
   xmlns:sodipodi="http://sodipodi.sourceforge.net/DTD/sodipodi-0.dtd"
   xmlns:inkscape="http://www.inkscape.org/namespaces/inkscape"
   version="1.0"
   width="135mm"
   height="190mm"
   id="svg207"
   sodipodi:docname="real.svg"
   inkscape:version="0.92.4 (5da689c313, 2019-01-14)">
  <metadata
     id="metadata211">
    <rdf:RDF>
      <cc:Work
         rdf:about="">
        <dc:format>image/svg+xml</dc:format>
        <dc:type
           rdf:resource="http://purl.org/dc/dcmitype/StillImage" />
        <dc:title></dc:title>
      </cc:Work>
    </rdf:RDF>
  </metadata>
  <sodipodi:namedview
     pagecolor="#ffffff"
     bordercolor="#666666"
     borderopacity="1"
     objecttolerance="10"
     gridtolerance="10"
     guidetolerance="10"
     inkscape:pageopacity="0"
     inkscape:pageshadow="2"
     inkscape:window-width="1920"
     inkscape:window-height="1001"
     id="namedview209"
     showgrid="false"
     inkscape:zoom="1.5912384"
     inkscape:cx="198.36673"
     inkscape:cy="388.92022"
     inkscape:window-x="-9"
     inkscape:window-y="-9"
     inkscape:window-maximized="1"
     inkscape:current-layer="svg207" />
  <defs
     id="defs11">
    <pattern
       id="EMFhbasepattern"
       patternUnits="userSpaceOnUse"
       width="6"
       height="6"
       x="0"
       y="0" />
  </defs>
  <path
     style="fill:#ffffff;fill-opacity:1;fill-rule:nonzero;stroke:none"
     d="M 24.996102,-4.9992204 H 533.95233 V 711.07548 H 24.996102 Z"
     id="path13"
     inkscape:connector-curvature="0" />
  <path
     style="fill:#b9b9b9;fill-rule:nonzero;fill-opacity:1;stroke:#ffffff;stroke-width:1.0399923px;stroke-linecap:butt;stroke-linejoin:miter;stroke-miterlimit:4;stroke-dasharray:none;stroke-opacity:1;"
     d="  M 40.959697,188.6386   L 40.719698,190.31859   L 43.759676,191.83858   L 43.759676,190.31859   L 44.239672,188.8786   z "
     id="path37" />
  <path
     style="fill:#b9b9b9;fill-rule:nonzero;fill-opacity:1;stroke:#ffffff;stroke-width:1.0399923px;stroke-linecap:butt;stroke-linejoin:miter;stroke-miterlimit:4;stroke-dasharray:none;stroke-opacity:1;"
     d="  M 124.39908,163.11879   L 122.95909,162.3188   L 123.11909,162.0788   L 113.59916,155.11885   L 111.11918,159.59882   L 103.67923,162.87879   L 107.19921,167.19876   L 107.5992,171.75873   L 113.75916,172.31872   L 109.51919,173.03872   L 109.43919,175.7587   L 111.19918,175.9987   L 109.83919,177.35869   L 107.8392,178.63868   L 107.6792,178.63868   L 107.5192,180.87866   L 106.15921,182.87865   L 106.07921,184.95863   L 107.11921,185.91862   L 108.5592,184.71863   L 108.71919,186.79862   L 110.55918,187.91861   L 110.55918,187.91861   L 111.99917,190.15859   L 115.35915,192.95857   L 118.07913,194.87856   L 123.51909,195.03856   L 129.75904,183.11864   L 127.99905,181.83865   L 125.43907,179.59867   L 125.35907,175.3587   L 127.27906,173.75871   L 127.27906,173.03872   L 127.83905,168.15875   L 130.79903,164.15878   L 130.23904,163.67879   z "
     id="path39" />
  <path
     style="fill:#b9b9b9;fill-rule:nonzero;fill-opacity:1;stroke:#ffffff;stroke-width:1.0399923px;stroke-linecap:butt;stroke-linejoin:miter;stroke-miterlimit:4;stroke-dasharray:none;stroke-opacity:1;"
     d="  M 225.59833,151.43888   L 226.07833,141.75895   L 221.27836,142.39895   L 221.59836,138.63897   L 224.39834,135.279   L 221.91836,130.79903   L 223.75834,127.91905   L 222.87835,123.27909   L 229.5983,116.95913   L 232.39828,116.95913   L 233.43827,111.27918   L 231.27829,108.3992   L 230.87829,104.79922   L 222.87835,104.39923   L 223.27835,98.079273   L 214.55841,97.439278   L 213.91842,95.919289   L 213.11842,91.439323   L 211.43843,81.279398   L 209.75845,80.079407   L 208.55846,81.759394   L 203.1185,79.759409   L 199.43852,82.39939   L 197.91853,83.919378   L 195.91855,80.399404   L 191.75858,79.439412   L 193.27857,70.959474   L 191.11858,69.599484   L 183.75864,75.919438   L 179.75867,72.319464   L 179.91867,68.959489   L 177.75868,65.439515   L 175.5987,60.079555   L 172.07873,61.919541   L 170.23874,59.599559   L 170.39874,52.799609   L 161.11881,57.439575   L 154.71885,62.239539   L 152.55887,66.639506   L 150.39889,65.119518   L 146.23892,67.119503   L 143.91893,66.399508   L 140.87896,62.399538   L 125.27907,78.399419   L 129.11904,82.079392   L 130.39903,85.279368   L 136.55899,85.599366   L 140.87896,83.439382   L 144.23893,86.39936   L 142.55894,92.239317   L 141.91895,95.919289   L 136.55899,93.279309   L 135.439,98.239272   L 133.11901,99.759261   L 134.07901,104.23923   L 136.23899,104.07923   L 134.559,114.39915   L 132.07902,115.27915   L 131.27903,111.91917   L 128.87905,111.75917   L 129.59904,108.79919   L 128.39905,103.11924   L 126.71906,100.79925   L 124.23908,104.23923   L 124.39908,106.07921   L 121.5991,109.11919   L 115.75914,105.43922   L 115.59914,111.91917   L 121.1191,112.23917   L 127.11906,122.0791   L 119.75911,122.79909   L 116.55914,124.39908   L 115.59914,132.39902   L 112.39917,132.79902   L 109.11919,137.11898   L 102.71924,136.63899   L 100.87925,134.399   L 97.279279,134.639   L 98.239272,137.43898   L 98.55927,139.75896   L 98.079273,140.63896   L 99.119266,145.91892   L 99.119266,148.6389   L 99.91926,151.91887   L 99.759261,154.95885   L 102.55924,157.75883   L 102.55924,160.39881   L 103.43923,162.95879   L 111.11918,159.59882   L 113.59916,155.11885   L 124.39908,163.11879   L 131.11903,163.75879   L 132.63902,160.79881   L 132.87902,161.11881   L 137.43898,164.07878   L 140.87896,164.23878   L 142.87894,162.2388   L 145.43892,161.5988   L 145.75892,155.11885   L 147.75891,154.39886   L 150.39889,151.43888   L 152.07887,154.23886   L 154.39886,156.23884   L 155.27885,154.23886   L 156.07884,148.9589   L 159.43882,145.11893   L 163.27879,147.9189   L 164.87878,146.63891   L 167.91876,146.95891   L 168.39875,152.79887   L 169.59874,154.63885   L 171.43873,158.79882   L 171.59873,162.3988   L 169.59874,164.39878   L 171.27873,167.27876   L 174.71871,165.27878   L 178.39868,165.59877   L 179.27867,167.27876   L 179.59867,169.75874   L 175.7587,172.63872   L 175.4387,174.63871   L 176.55869,177.59868   L 174.39871,180.39866   L 172.71872,182.39865   L 169.75874,182.63865   L 165.59877,188.3986   L 163.11879,187.43861   L 163.11879,187.43861   L 161.4388,183.43864   L 155.27885,182.95864   L 152.39887,186.79862   L 150.23889,186.95862   L 147.75891,184.79863   L 144.55893,186.79862   L 141.75895,180.07867   L 140.39896,178.23868   L 137.91898,179.91867   L 134.879,181.11866   L 133.75901,177.43869   L 135.75899,175.7587   L 134.23901,170.95873   L 127.91905,168.39875   L 127.27906,173.75871   L 125.11907,175.2787   L 125.43907,179.27867   L 129.27904,183.11864   L 129.27904,183.75864   L 123.59908,194.63856   L 121.5991,197.43854   L 117.59913,201.9185   L 122.23909,205.43848   L 127.83905,208.47846   L 133.75901,208.87845   L 135.279,208.71845   L 137.99898,212.63842   L 135.359,211.99843   L 131.27903,212.07843   L 130.15904,215.19841   L 129.27904,217.75839   L 126.23906,214.95841   L 124.63908,215.3584   L 120.9591,214.95841   L 119.27912,214.07841   L 116.87913,214.87841   L 114.63915,217.75839   L 116.39914,220.47837   L 114.39915,225.35833   L 113.99916,228.31831   L 114.15915,230.95829   L 118.15912,230.63829   L 116.71914,233.99827   L 118.63912,237.11824   L 122.63909,233.99827   L 125.75907,229.8383   L 130.23904,229.8383   L 131.99902,227.51831   L 131.83902,231.59828   L 133.59901,232.63828   L 131.99902,234.95826   L 126.71906,235.51826   L 126.95906,238.31823   L 126.95906,240.95822   L 126.87906,245.11818   L 124.23908,247.59817   L 124.23908,249.83815   L 131.11903,250.95814   L 132.23902,252.71813   L 130.47903,254.63811   L 135.83899,256.2381   L 137.27898,261.75806   L 143.99893,265.75803   L 145.51892,269.518   L 146.63891,269.518   L 156.71884,264.31804   L 161.5988,265.99803   L 168.15875,263.11805   L 171.35873,258.87808   L 174.15871,258.87808   L 181.11866,261.75806   L 184.39863,265.99803   L 188.6386,266.31803   L 193.35857,270.478   L 194.71856,268.47801   L 197.35854,263.59805   L 203.27849,263.59805   L 206.95847,260.23807   L 205.51848,258.31809   L 205.75848,254.47811   L 210.47844,253.75812   L 214.23841,250.71814   L 214.23841,246.95817   L 221.27836,245.59818   L 225.11833,246.63817   L 227.59831,247.91816   L 228.39831,243.1182   L 230.55829,242.6382   L 232.71828,243.4382   L 232.55828,240.79822   L 236.07825,239.59823   L 235.75825,230.0783   L 243.1182,233.75827   L 248.87816,224.23834   L 250.55814,216.2384   L 252.07813,205.59848   L 251.75814,197.11854   L 257.27809,186.39862   L 255.9181,180.07867   L 251.27814,176.79869   L 258.55808,169.91874   L 262.87805,168.79875   L 256.5581,163.75879   L 252.55813,162.0788   L 244.55819,162.0788   L 232.23828,153.91886   L 226.07833,156.95884   L 223.27835,152.63887   z "
     id="path43" />
  <path
     style="fill:#b9b9b9;fill-rule:nonzero;fill-opacity:1;stroke:#ffffff;stroke-width:1.0399923px;stroke-linecap:butt;stroke-linejoin:miter;stroke-miterlimit:4;stroke-dasharray:none;stroke-opacity:1;"
     d="  M 450.23666,219.75837   L 450.55666,218.07838   L 449.75667,216.0784   L 452.55665,214.39841   L 447.91668,206.95847   L 443.75671,202.7985   L 440.55674,201.43851   L 438.07675,194.07856   L 439.27675,191.91858   L 431.11681,186.39862   L 430.55681,180.95866   L 427.11684,177.91868   L 424.39686,173.27872   L 419.91689,167.11876   L 422.07687,164.63878   L 420.55688,161.27881   L 413.91693,156.23884   L 411.75695,152.07887   C 411.75695,152.07887 413.11694,147.43891 413.27694,146.79891   C 413.43694,146.07892 400.71703,134.399 400.71703,134.399   L 399.11704,134.399   L 399.43704,131.43903   L 390.23711,121.5991   L 384.87715,115.43914   L 384.39715,111.11918   L 382.23717,110.07918   L 376.71721,102.07924   L 375.43722,99.119266   L 372.07724,95.599292   L 371.75725,91.919319   L 369.59726,91.599321   L 364.3973,86.079362   L 364.0773,83.279383   L 356.87736,74.799446   L 356.39736,70.959474   L 356.23736,67.279502   L 354.39737,64.639521   L 355.43737,63.599529   L 353.43738,59.919556   L 345.11744,42.399686   L 343.75745,38.079718   L 336.55751,28.079792   L 337.9175,26.239806   L 329.91756,12.079911   L 329.91756,8.9599336   L 323.4376,0.63999526   L 318.07764,2.7999793   L 317.75765,16.959874   L 316.55766,24.799816   L 306.79773,37.119725   L 306.71773,37.119725   L 294.71782,44.639669   L 287.75787,48.63964   L 281.51791,47.119651   L 276.47795,46.079659   L 273.27798,44.639669   L 265.27803,43.599677   L 261.99806,45.83966   L 258.55808,47.439649   L 256.2381,46.239657   L 253.27812,42.799683   L 251.43814,41.919689   L 247.43817,44.639669   L 243.75819,43.599677   L 242.07821,45.91966   L 233.59827,45.439663   L 231.43829,45.279665   L 227.59831,45.279665   L 220.55837,50.399627   L 216.71839,50.079629   L 215.11841,47.919645   L 212.07843,47.919645   L 208.87845,45.599662   L 202.3985,44.959667   L 200.71851,46.959652   L 196.55854,46.639655   L 194.55856,48.959637   L 193.27857,45.91966   L 188.8786,45.91966   L 187.43861,45.119666   L 181.27866,48.399641   L 178.55868,47.599647   L 176.87869,45.759661   L 174.07871,46.079659   L 172.39872,50.799624   L 170.23874,53.279605   L 170.23874,59.599559   L 172.07873,61.919541   L 175.5987,60.079555   L 177.75868,65.439515   L 179.91867,68.959489   L 179.59867,72.079466   L 183.75864,75.919438   L 191.11858,69.599484   L 193.27857,70.959474   L 191.75858,79.439412   L 195.91855,80.399404   L 197.91853,83.919378   L 199.43852,82.39939   L 203.1185,79.759409   L 208.55846,81.759394   L 209.75845,80.079407   L 211.59843,81.759394   L 213.11842,91.439323   L 213.91842,95.919289   L 214.55841,97.439278   L 223.27835,98.079273   L 222.87835,104.39923   L 230.87829,104.79922   L 231.27829,108.3992   L 233.43827,111.27918   L 232.39828,116.95913   L 229.5983,116.95913   L 222.87835,123.27909   L 223.75834,127.91905   L 221.91836,130.79903   L 224.39834,135.279   L 221.59836,138.63897   L 221.27836,142.39895   L 226.07833,141.75895   L 225.59833,151.43888   L 223.27835,152.63887   L 226.07833,156.95884   L 232.23828,153.91886   L 244.55819,162.0788   L 253.11813,162.2388   L 256.5581,163.75879   L 262.87805,168.79875   L 258.55808,169.91874   L 251.27814,176.79869   L 255.9181,180.07867   L 257.27809,186.39862   L 251.75814,197.11854   L 252.07813,205.59848   L 250.47814,217.59839   L 248.87816,224.23834   L 257.27809,232.31828   L 264.95804,229.5983   L 269.998,230.63829   L 273.51797,228.07831   L 273.75797,225.11833   L 272.95798,218.87838   L 278.23794,215.11841   L 283.5179,216.0784   L 285.99788,221.59836   L 285.99788,224.31834   L 294.71782,222.63835   L 297.99779,217.35839   L 302.71776,220.31837   L 306.95773,216.0784   L 308.47771,215.3584   L 312.71768,217.91839   L 315.59766,221.11836   L 321.75762,218.79838   L 323.5976,219.27838   L 323.9176,221.59836   L 316.23766,227.91831   L 318.87764,232.39828   L 325.11759,229.9183   L 330.71755,229.9183   L 334.87752,236.07825   L 341.11747,235.91825   L 346.07744,234.95826   L 354.07738,239.75822   L 360.23733,238.95823   L 365.27729,242.9582   L 372.55724,246.23818   L 377.4372,247.59817   L 376.39721,244.23819   L 378.3972,241.91821   L 380.87718,238.79823   L 387.75713,242.7982   L 391.7571,243.91819   L 396.55706,243.2782   L 398.87705,236.95824   L 403.27701,239.43823   L 406.23699,238.39823   L 411.91695,239.91822   L 415.75692,240.63822   L 416.39692,238.23824   L 419.27689,235.91825   L 422.87687,236.79825   L 431.9168,244.23819   L 437.27676,243.91819   L 436.87676,238.63823   L 442.71672,232.95827   L 446.39669,232.63828   L 450.07667,228.39831   L 453.59664,228.39831   z "
     id="path45" />
  <path
     style="fill:#b9b9b9;fill-rule:nonzero;fill-opacity:1;stroke:#ffffff;stroke-width:1.0399923px;stroke-linecap:butt;stroke-linejoin:miter;stroke-miterlimit:4;stroke-dasharray:none;stroke-opacity:1;"
     d="  M 360.23733,238.95823   L 354.07738,239.75822   L 346.07744,234.95826   L 342.15747,235.75825   L 334.87752,236.07825   L 330.71755,229.9183   L 325.11759,229.9183   L 318.87764,232.39828   L 316.23766,227.91831   L 323.9176,221.59836   L 323.5976,219.27838   L 321.35762,218.87838   L 315.59766,221.11836   L 312.71768,217.91839   L 308.47771,215.3584   L 306.95773,216.0784   L 302.71776,220.31837   L 297.99779,217.35839   L 294.71782,222.63835   L 285.99788,224.31834   L 285.99788,221.59836   L 283.5179,216.0784   L 278.23794,215.11841   L 272.95798,218.87838   L 273.59797,224.63834   L 273.51797,227.75831   L 273.51797,228.07831   L 269.998,230.63829   L 264.95804,229.5983   L 257.27809,232.31828   L 248.87816,224.23834   L 243.3582,233.11827   L 243.1182,233.51827   L 235.75825,230.0783   L 235.99825,239.19823   L 232.55828,240.79822   L 232.71828,243.4382   L 230.55829,242.6382   L 228.39831,243.1182   L 227.51831,247.43817   L 225.35833,246.47817   L 221.27836,245.59818   L 214.23841,246.95817   L 214.23841,250.71814   L 210.47844,253.75812   L 205.75848,254.47811   L 205.51848,258.31809   L 206.95847,260.23807   L 203.75849,263.43805   L 197.35854,263.59805   L 193.35857,270.478   L 195.91855,272.39798   L 196.71854,276.23795   L 199.59852,277.11795   L 199.75852,281.75791   L 204.87848,284.0779   L 208.23846,286.79788   L 207.91846,289.59785   L 210.07844,291.43784   C 210.07844,291.43784 209.75845,292.63783 209.75845,293.35783   L 209.59845,293.35783   L 207.03847,294.31782   L 204.47849,292.87783   L 201.27851,292.63783   L 198.71853,293.83782   L 198.95853,296.4778   L 196.23855,297.99779   L 195.59855,300.95777   L 193.35857,302.23776   L 193.43857,302.55776   L 193.83856,302.55776   L 194.23856,304.31775   L 195.51855,304.31775   L 195.43855,304.63774   L 195.91855,304.63774   L 195.43855,308.55771   L 192.71857,310.3977   L 193.75856,312.87768   L 194.71856,314.31767   L 195.91855,315.83766   L 195.91855,319.83763   L 197.99853,320.63762   L 198.87853,320.87762   L 199.03853,321.03762   L 199.35852,321.19762   L 202.5585,324.6376   L 205.11848,323.7576   L 209.27845,325.19759   L 203.59849,326.95758   L 202.3185,329.27756   L 204.07849,331.91754   L 205.35848,332.63754   L 205.35848,332.63754   L 205.67848,332.79753   L 205.83848,332.95753   L 205.83848,332.95753   L 207.75846,334.47752   L 207.83846,339.19749   L 212.47843,340.07748   L 213.99841,341.11747   L 216.3984,337.5975   L 217.83839,335.83751   L 218.87838,339.35749   L 220.15837,340.47748   L 219.27838,343.59745   L 221.35836,347.59743   L 222.63835,345.11744   L 225.91833,345.91744   L 226.39832,347.59743   L 228.07831,348.39742   L 226.23832,349.59741   L 223.75834,350.3974   L 223.27835,355.91736   L 220.39837,358.23735   L 219.59837,362.95731   L 220.39837,366.39729   L 219.27838,369.59726   L 219.43837,373.91723   L 222.87835,373.11724   L 224.55834,372.39724   L 226.71832,375.75722   L 230.87829,375.43722   L 232.55828,377.27721   L 233.27827,382.39717   L 233.43827,386.39714   L 231.91828,389.91711   L 235.43826,393.27709   L 237.91824,399.11704   L 241.11821,403.27701   L 244.23819,400.63703   L 245.75818,402.79702   L 247.75816,405.277   L 252.87813,406.63699   L 254.07812,408.95697   L 261.59806,406.63699   L 264.23804,405.597   L 268.07801,407.43698   L 272.55798,402.39702   L 279.11793,400.23704   L 279.75793,394.79708   L 280.55792,391.2771   L 283.5979,386.95713   L 282.23791,383.91716   L 281.27792,379.75719   L 284.23789,379.27719   L 288.71786,380.63718   L 291.91784,380.23718   L 287.11787,373.43723   L 289.43786,370.63725   L 287.27787,368.63727   L 282.8779,368.39727   L 280.23792,370.95725   L 274.87796,368.07727   C 274.87796,368.07727 272.07798,364.6373 271.59799,363.9173   C 271.11799,363.27731 268.71801,367.91727 268.71801,367.91727   L 265.43803,367.43728   L 263.27805,362.23732   L 269.438,355.27737   L 268.87801,352.23739   L 266.07803,348.39742   L 268.23801,345.59744   L 267.59802,343.59745   L 267.75802,334.39752   L 271.11799,332.39754   L 271.43799,329.59756   L 267.11802,325.11759   L 266.07803,321.43762   L 262.55806,321.43762   L 258.07809,318.95764   L 257.75809,316.31766   L 265.27803,314.47767   L 264.39804,312.23769   L 267.35802,308.87771   L 269.11801,311.1177   L 273.83797,316.07766   L 275.75796,309.11771   L 272.87798,306.23773   L 269.758,303.51775   L 272.63798,302.95776   L 275.83796,300.63777   L 278.39794,295.59781   L 282.47791,298.23779   L 284.47789,296.4778   L 289.27786,299.83778   L 292.71783,298.87779   L 286.63788,292.71783   L 288.95786,288.47786   L 290.47785,282.9579   L 289.99785,282.63791   L 292.63783,282.9579   L 293.99782,284.63789   L 297.75779,281.35792   L 300.23778,279.35793   L 306.63773,282.31791   L 309.75771,281.99791   L 309.75771,276.63795   L 313.35768,272.95798   L 313.35768,273.11798   L 316.47766,273.83797   L 322.95761,281.51791   L 326.71758,282.8779   L 328.95756,284.95789   L 332.47754,281.59791   L 336.39751,281.83791   L 340.15748,276.07795   L 339.11749,273.35798   L 337.5175,269.998   L 339.51749,264.31804   L 349.11741,255.11811   L 351.75739,254.23812   L 353.99738,250.47814   L 356.23736,246.23818   L 362.47731,246.07818   L 365.27729,242.9582   z "
     id="path47" />
  <path
     style="fill:#b9b9b9;fill-rule:nonzero;fill-opacity:1;stroke:#ffffff;stroke-width:1.0399923px;stroke-linecap:butt;stroke-linejoin:miter;stroke-miterlimit:4;stroke-dasharray:none;stroke-opacity:1;"
     d="  M 218.87838,339.35749   L 217.83839,335.83751   L 216.3984,337.5975   L 214.15841,340.71748   L 212.47843,340.07748   L 207.83846,339.19749   L 207.75846,334.47752   L 205.35848,332.63754   L 203.99849,333.99753   L 201.59851,333.75753   L 202.1585,337.9975   L 201.59851,341.35747   L 198.23853,344.95744   L 193.99856,345.35744   L 191.27858,348.63742   L 191.27858,357.99735   L 189.5986,360.95733   L 189.1186,365.19729   L 187.51861,366.87728   L 193.75856,369.99726   L 192.87857,373.19724   L 196.39855,377.11721   L 199.99852,381.11718   L 202.9585,376.63721   L 202.8785,371.19725   L 204.63848,368.31727   L 204.71848,367.83728   L 205.99847,368.71727   L 206.39847,374.63722   L 210.23844,378.4772   L 213.27842,380.71718   L 219.43837,373.91723   L 219.27838,369.59726   L 220.39837,366.39729   L 219.59837,362.63731   L 220.39837,358.23735   L 223.35835,355.59737   L 223.75834,350.3974   L 225.83833,350.07741   L 228.07831,348.39742   L 226.39832,347.59743   L 225.91833,345.91744   L 222.71835,345.51744   L 221.35836,347.59743   L 219.27838,343.99745   L 219.27838,343.59745   L 220.15837,340.47748   z "
     id="path49" />
  <path
     style="fill:#b9b9b9;fill-rule:nonzero;fill-opacity:1;stroke:#ffffff;stroke-width:1.0399923px;stroke-linecap:butt;stroke-linejoin:miter;stroke-miterlimit:4;stroke-dasharray:none;stroke-opacity:1;"
     d="  M 237.91824,399.11704   L 235.43826,393.27709   L 231.91828,389.91711   L 233.43827,386.39714   L 233.27827,382.39717   L 232.55828,377.7572   L 230.87829,375.43722   L 227.11832,375.43722   L 224.55834,372.39724   L 219.91837,373.75723   L 213.27842,380.71718   L 210.39844,378.0772   L 206.39847,374.63722   L 205.99847,368.71727   L 204.63848,368.31727   L 202.8785,370.79725   L 202.9585,376.63721   L 199.99852,380.71718   L 192.87857,373.19724   L 193.75856,369.99726   L 187.51861,366.87728   L 189.1186,365.19729   L 189.75859,360.63733   L 189.75859,360.47733   L 187.83861,357.19735   L 184.47863,356.31736   L 184.87863,354.15738   L 183.67864,352.39739   L 184.39863,345.35744   L 182.63865,342.63746   L 183.35864,340.47748   L 182.39865,337.4375   L 179.27867,335.59751   L 178.47868,334.95752   L 176.87869,335.75751   L 175.1987,331.75754   L 178.15868,325.59759   L 176.0787,312.79768   L 177.43869,308.79771   L 176.79869,303.43775   L 174.23871,300.95777   L 175.9187,297.67779   L 180.55866,297.4378   L 189.4386,302.63776   L 193.43857,302.55776   L 193.35857,302.23776   L 195.11855,301.35777   L 195.83855,298.23779   L 199.03853,296.4778   L 198.71853,293.83782   L 201.27851,292.63783   L 204.47849,292.87783   L 207.35846,293.83782   L 209.51845,292.95783   L 209.83845,291.75784   L 208.15846,288.95786   L 208.23846,286.79788   L 205.75848,284.63789   L 199.59852,281.51791   L 199.59852,277.11795   L 196.71854,275.99796   L 195.51855,272.23798   L 187.99861,266.63802   L 184.39863,265.99803   L 180.71866,261.99806   L 174.15871,258.87808   L 171.35873,258.87808   L 168.15875,262.71805   L 168.07875,263.11805   L 161.5988,265.99803   L 157.11884,264.23804   L 146.95891,269.11801   L 145.83892,269.518   L 145.99892,270.95799   L 140.95896,271.19799   L 136.95899,275.75796   L 135.599,274.71797   L 133.35901,266.95802   L 130.87903,264.71804   L 129.51904,258.23809   L 120.23911,254.95811   L 110.39918,254.47811   L 103.83923,250.71814   L 98.239272,244.71819   L 92.719313,244.23819   L 92.479315,245.83818   L 87.839349,249.59815   L 91.83932,255.11811   L 92.719313,261.11807   L 92.559314,262.55806   L 88.399345,254.63811   L 85.599366,253.51812   L 81.999393,251.51814   L 77.599425,251.59814   L 76.479433,253.19812   L 74.639447,250.87814   L 72.479463,254.07812   L 73.279457,259.11808   L 79.279413,263.75805   L 83.839379,264.95804   L 83.999378,268.07801   L 81.839394,270.478   L 77.759424,272.95798   L 76.879431,280.23792   L 74.399449,275.75796   L 71.839468,279.11793   L 71.359471,274.23797   L 72.95946,271.59799   L 70.479478,268.71801   L 67.5195,266.47803   L 63.839527,272.47798   L 59.519559,274.87796   L 60.479552,271.35799   L 63.519529,267.75802   L 59.279561,268.23801   L 54.719595,270.078   L 52.959608,272.63798   L 55.35959,274.63797   L 54.239598,280.07793   L 50.959623,277.59794   L 49.599633,281.51791   L 49.839631,285.35789   L 46.719654,288.95786   L 43.759676,289.59785   L 47.359649,293.11783   L 46.639655,298.23779   L 50.479626,296.4778   L 50.639625,293.19783   L 55.119592,294.71782   L 58.719565,298.31779   C 58.719565,298.31779 54.159599,297.83779 53.759602,297.83779   C 53.359605,297.83779 48.63964,301.59777 48.63964,301.59777   L 46.639655,304.47774   L 52.399612,305.75774   L 56.879579,303.19775   L 61.599544,301.75776   L 64.239524,299.99778   L 64.479522,304.71774   L 67.839497,307.51772   L 68.159495,313.19768   L 67.359501,317.35765   L 68.719491,318.95764   L 71.759468,316.23766   L 74.959445,312.87768   L 74.399449,308.07772   L 73.999452,298.23779   L 75.279442,305.51774   L 77.759424,312.87768   L 80.719402,314.23767   L 83.279383,316.87765   L 86.639358,311.51769   L 86.239361,305.83773   L 88.719343,304.31775   L 89.519337,307.11773   L 89.519337,314.23767   L 90.879327,316.95765   L 88.159347,318.07764   L 87.599351,324.71759   L 91.359323,330.63755   L 90.239332,332.31754   L 90.39933,337.7575   L 93.839305,341.59747   L 93.279309,348.07742   L 90.639329,351.5174   L 97.359279,353.11738   L 99.83926,355.99736   L 98.719269,358.31735   L 93.519307,359.99733   L 98.879268,366.87728   L 98.239272,372.07724   L 96.719284,376.07721   L 98.479271,378.4772   L 98.479271,380.71718   L 102.63924,381.59717   L 96.879282,381.75717   L 95.599292,385.19715   L 93.359308,386.47714   L 93.519307,389.75711   L 96.159288,388.23712   L 100.47926,390.07711   L 103.51923,390.71711   L 108.3992,395.83707   L 111.11918,396.07707   L 108.87919,399.11704   L 110.63918,401.19703   L 112.23917,403.11701   L 113.75916,405.517   L 114.71915,409.83696   L 119.83911,410.63696   L 123.75908,409.99696   L 127.35906,405.99699   L 133.99901,405.75699   L 139.35897,401.51703   L 141.19895,398.63705   L 141.59895,398.63705   L 141.51895,392.23709   L 143.75894,388.31712   L 148.4789,388.47712   L 151.59888,387.35713   L 153.75886,388.23712   L 159.59882,389.19712   L 163.35879,388.31712   L 165.35878,393.99708   L 166.23877,397.35706   L 172.39872,400.31703   L 175.2787,397.11706   L 182.23865,397.11706   L 184.87863,394.95707   L 188.9586,396.47706   L 189.75859,392.31709   L 193.75856,393.35709   L 198.95853,390.31711   L 201.75851,392.95709   L 203.91849,402.63702   L 208.23846,408.79697   L 209.43845,409.11697   L 211.59843,406.79699   L 215.4384,412.63694   L 224.71834,412.23695   L 225.75833,404.07701   L 235.75825,410.39696   L 237.43824,405.437   L 235.75825,401.27703   z "
     id="path57" />
  <path
     style="fill:#c83737;fill-rule:nonzero;fill-opacity:1;stroke:#ffffff;stroke-width:1.0399923px;stroke-linecap:butt;stroke-linejoin:miter;stroke-miterlimit:4;stroke-dasharray:none;stroke-opacity:1;"
     d="  M 144.55893,187.03861   L 147.51891,185.27863   L 150.23889,187.19861   L 152.39887,187.27861   L 155.83885,183.35864   L 161.4388,183.67864   L 162.95879,187.83861   L 165.59877,188.7186   L 168.95875,183.59864   L 169.75874,182.87865   L 172.71872,182.71865   L 172.79872,182.39865   L 176.55869,177.83868   L 175.4387,174.8787   L 175.4387,174.31871   L 175.7587,172.87872   L 179.59867,169.99874   L 179.27867,167.51876   L 178.39868,165.83877   L 174.71871,165.51877   L 171.51873,167.51876   L 169.67874,164.79878   L 171.59873,162.95879   L 171.43873,159.03882   L 171.19873,158.47883   L 171.43873,158.55883   L 168.39875,153.19887   L 167.91876,147.19891   L 164.87878,146.87891   L 164.71878,147.19891   L 163.19879,147.9989   L 159.35882,145.35892   L 158.23883,146.87891   L 158.23883,146.87891   L 155.91885,149.19889   L 155.11885,154.15886   L 155.11885,154.95885   L 154.39886,156.07884   L 153.19887,155.59885   L 153.19887,155.59885   L 152.07887,154.55886   L 150.47889,151.51888   L 147.75891,154.39886   L 145.59892,155.19885   L 145.19892,161.3588   L 143.03894,162.3188   L 140.63896,164.47878   L 138.39897,164.31878   L 137.11898,164.15878   L 132.63902,161.11881   L 127.83905,168.39875   L 134.07901,171.03873   L 134.23901,171.19873   L 135.439,175.8387   L 133.75901,177.67868   L 135.119,181.51866   L 138.07898,180.15867   L 140.55896,178.63868   L 141.27895,179.59867   z "
     id="path59" />
  <path
     style="fill:#b9b9b9;fill-rule:nonzero;fill-opacity:1;stroke:#ffffff;stroke-width:1.0399923px;stroke-linecap:butt;stroke-linejoin:miter;stroke-miterlimit:4;stroke-dasharray:none;stroke-opacity:1;"
     d="  M 482.87642,657.27513   L 481.59643,655.27515   L 478.39646,652.79516   L 478.39646,652.79516   L 478.87645,649.27519   L 478.39646,645.27522   L 475.59648,645.11522   L 469.43652,643.43523   L 467.43654,638.63527   L 458.3966,638.23527   L 455.59663,640.79525   L 446.71669,641.11525   L 440.39674,643.11524   L 434.71678,645.59522   L 424.39686,645.59522   L 417.11691,649.59519   L 409.75696,653.11516   L 400.87703,653.43516   L 398.39705,656.39514   L 394.07708,659.27512   L 393.75708,662.39509   L 381.11718,674.07501   L 381.11718,682.39495   L 383.27716,686.39492   L 385.11715,689.59489   L 388.71712,690.39489   L 394.39708,696.39484   L 397.27706,696.79484   L 397.75705,693.59486   L 401.11703,691.27488   L 410.07696,691.91487   L 412.39695,690.23489   L 415.11693,691.59488   L 418.2369,691.59488   L 423.27686,692.07487   L 434.23678,690.95488   L 438.55675,692.39487   C 438.55675,692.39487 444.23671,686.63491 444.55671,686.07492   C 444.8767,685.59492 455.59663,686.07492 455.59663,686.07492   L 461.11658,681.59495   L 468.55653,680.79496   L 468.71653,677.43498   L 474.55648,669.43504   L 477.91646,666.07507   L 481.91643,662.23509   L 480.55644,660.07511   z "
     id="path61" />
  <path
     style="fill:#b9b9b9;fill-rule:nonzero;fill-opacity:1;stroke:#ffffff;stroke-width:1.0399923px;stroke-linecap:butt;stroke-linejoin:miter;stroke-miterlimit:4;stroke-dasharray:none;stroke-opacity:1;"
     d="  M 458.9566,398.07705   L 464.95656,392.0771   L 466.23655,389.59711   L 461.75658,385.35715   L 460.95659,379.83719   L 458.4766,377.5972   L 457.51661,375.59722   L 458.7166,375.11722   L 460.47659,371.11725   L 458.9566,369.83726   L 457.99661,365.35729   L 458.23661,354.87737   L 464.71656,343.83745   L 464.95656,335.11752   L 466.23655,328.07757   L 466.71654,321.59762   L 462.23658,315.83766   L 461.99658,309.35771   L 463.43657,303.75775   L 468.55653,299.59778   L 469.11653,292.23784   L 468.23653,288.95786   L 468.87653,286.23788   L 466.39655,278.63794   L 461.91658,274.07797   L 461.11658,266.39803   L 461.91658,260.23807   L 459.75659,255.43811   L 460.71659,251.91813   L 459.91659,244.07819   L 462.23658,241.27821   L 456.07662,235.43826   L 453.59664,228.39831   L 450.07667,228.39831   L 446.39669,232.63828   L 442.71672,232.95827   L 436.87676,238.63823   L 437.27676,243.91819   L 431.5968,244.07819   L 431.5968,244.07819   L 422.87687,236.79825   L 419.27689,235.91825   L 416.39692,238.23824   L 415.75692,240.63822   L 406.23699,238.39823   L 403.27701,239.43823   L 398.87705,236.95824   L 395.91707,243.2782   L 391.7571,243.91819   L 386.87713,242.6382   L 381.43717,238.79823   L 376.39721,244.23819   L 377.11721,247.27817   L 371.27725,245.75818   L 365.27729,242.9582   L 362.47731,246.07818   L 356.23736,246.23818   L 351.75739,254.23812   L 349.11741,255.11811   L 339.51749,264.31804   L 337.5975,269.598   L 339.11749,273.35798   L 340.15748,276.07795   L 336.39751,281.83791   L 332.47754,281.59791   L 328.95756,284.95789   L 326.71758,282.8779   L 322.95761,281.51791   L 316.47766,273.83797   L 313.35768,273.11798   L 309.9177,276.07795   L 309.75771,281.43792   L 307.11773,282.23791   L 300.23778,279.35793   L 293.99782,284.63789   L 292.63783,282.9579   L 290.55785,282.63791   L 289.27786,287.91787   L 286.63788,292.71783   L 292.71783,298.87779   L 289.27786,299.83778   L 284.47789,296.4778   L 282.47791,298.23779   L 278.39794,295.59781   L 275.83796,300.63777   L 272.63798,302.95776   L 270.238,303.27775   L 275.75796,309.11771   L 273.83797,316.07766   L 268.39801,310.2377   L 267.35802,308.87771   L 264.39804,312.23769   L 265.27803,314.47767   L 256.8781,316.23766   L 258.07809,318.95764   L 262.55806,321.43762   L 266.07803,321.43762   L 267.11802,325.11759   L 270.87799,329.75756   L 271.11799,332.39754   L 267.75802,334.39752   L 267.59802,343.59745   L 268.55801,345.75744   L 266.07803,348.39742   L 268.87801,352.23739   L 269.27801,355.75736   L 263.59805,362.07732   L 265.43803,367.43728   L 268.71801,367.91727   L 271.59799,363.9173   L 274.87796,368.07727   L 280.23792,370.95725   L 282.8779,368.39727   L 287.27787,368.63727   L 289.43786,370.63725   L 287.59787,372.95724   L 291.91784,380.23718   L 288.71786,380.63718   L 284.39789,378.95719   L 281.27792,379.75719   L 282.23791,383.91716   L 283.5979,386.95713   L 280.55792,391.2771   L 279.11793,400.23704   L 272.55798,402.39702   L 268.39801,406.95699   L 268.55801,410.79696   L 273.43797,418.2369   L 269.598,421.11688   L 269.918,426.79684   L 275.27796,428.63682   L 276.39795,433.11679   L 282.55791,432.79679   L 286.23788,436.39677   L 292.87783,435.11678   L 299.27778,437.59676   L 301.91776,443.43672   L 304.87774,444.9567   L 308.55771,450.07667   L 310.8777,456.95662   L 304.87774,461.27658   L 304.55774,463.27657   L 309.11771,464.39656   L 310.3977,465.91655   L 314.23767,466.63654   L 317.11765,464.63656   L 324.87759,464.23656   L 329.43756,466.39655   L 332.55754,470.95651   L 335.91751,470.63651   L 335.91751,465.75655   L 331.11755,461.27658   L 330.39755,456.63662   L 339.59748,457.59661   L 340.23748,452.39665   L 334.23752,447.59668   L 335.75751,444.79671   L 338.0775,439.43674   L 344.55745,438.95675   L 345.27744,436.39677   L 338.55749,433.11679   L 333.75753,434.23678   L 333.75753,427.75683   L 336.07751,422.79687   L 341.27747,418.2369   L 343.75745,419.43689   L 344.07745,424.63685   L 348.39742,425.91685   L 350.7174,421.75688   L 351.5974,417.59691   L 350.5574,413.91693   L 351.91739,412.63694   L 354.39737,414.23693   L 360.39733,411.27695   L 364.0773,406.79699   L 372.87724,406.79699   L 376.71721,407.83698   L 377.9972,411.35695   L 378.4772,420.31689   L 380.95718,422.07687   L 380.95718,429.59682   L 377.5172,431.5968   L 375.99721,435.35678   L 375.99721,440.07674   L 372.71724,442.63672   L 373.75723,445.8367   L 372.47724,448.63668   L 372.47724,448.63668   L 370.47726,453.35664   L 363.51731,455.83662   L 363.9973,451.35666   L 356.71736,451.11666   L 352.23739,454.63663   L 351.5174,458.8766   L 352.23739,462.63657   L 354.23738,467.83653   L 363.51731,475.35648   L 368.95727,472.8765   L 372.95724,473.59649   L 378.2372,475.35648   L 385.51714,476.07647   L 388.23712,472.3165   L 393.75708,472.0765   L 396.23706,466.87654   L 402.47702,464.63656   L 406.71699,466.31655   L 410.23696,469.83652   L 413.75694,466.63654   L 418.9569,464.63656   L 418.9569,463.83656   L 423.27686,464.63656   L 420.23689,461.11658   L 423.51686,454.63663   L 428.23683,453.83664   L 431.27681,451.35666   L 432.4768,452.31665   L 439.27675,452.07665   L 445.7567,453.83664   L 446.23669,460.87659   L 450.71666,462.07658   L 457.99661,457.35661   L 468.23653,461.59658   L 472.4765,456.87662   L 472.2365,454.07664   L 473.99649,448.07668   L 474.47649,439.35675   L 477.27646,436.07677   L 476.71647,433.35679   L 478.47646,430.87681   L 478.71645,424.63685   L 476.71647,417.59691   L 480.71644,415.11693   L 481.99643,409.59697   L 484.71641,403.11701   L 483.51642,395.59707   L 481.51643,393.59708   L 475.75648,402.31702   L 472.4765,404.637   L 469.75652,408.63697   L 464.47656,405.83699   L 462.23658,402.63702   z "
     id="path67" />
  <path
     style="fill:#b9b9b9;fill-rule:nonzero;fill-opacity:1;stroke:#ffffff;stroke-width:1.0399923px;stroke-linecap:butt;stroke-linejoin:miter;stroke-miterlimit:4;stroke-dasharray:none;stroke-opacity:1;"
     d="  M 479.27645,361.59732   L 479.27645,363.59731   L 487.27639,366.63728   L 487.99639,364.6373   L 491.99636,361.83732   L 492.23635,355.83736   L 493.27635,352.07739   L 489.99637,351.83739   L 487.75639,353.35738   L 483.99641,355.83736   L 479.75645,356.07736   L 476.95647,356.63736   L 478.23646,359.11734   z "
     id="path69" />
  <path
     style="fill:#b9b9b9;fill-rule:nonzero;fill-opacity:1;stroke:#ffffff;stroke-width:1.0399923px;stroke-linecap:butt;stroke-linejoin:miter;stroke-miterlimit:4;stroke-dasharray:none;stroke-opacity:1;"
     d="  M 354.39737,414.23693   L 351.91739,412.63694   L 350.5574,413.91693   L 351.5974,417.59691   L 350.7174,421.75688   L 348.39742,425.91685   L 344.07745,424.63685   L 343.75745,419.43689   L 341.27747,418.2369   L 336.55751,422.23687   L 333.75753,427.11684   L 333.75753,434.23678   L 338.55749,433.11679   L 345.27744,436.39677   L 344.71745,438.39675   L 338.0775,439.43674   L 334.23752,447.59668   L 340.23748,452.39665   L 339.59748,457.59661   L 330.39755,456.63662   L 331.11755,461.27658   L 335.59751,465.75655   L 335.91751,470.63651   L 342.55746,466.79654   L 349.59741,466.63654   L 350.5574,461.11658   L 351.5174,458.8766   L 352.23739,454.63663   L 356.71736,451.11666   L 363.9973,451.35666   L 363.51731,455.83662   L 370.87725,453.27664   L 372.47724,448.63668   L 373.75723,445.8367   L 372.71724,442.63672   L 375.99721,440.07674   L 375.59722,435.43677   L 378.0772,431.27681   L 380.55718,429.59682   L 380.95718,422.07687   L 378.4772,420.31689   L 377.9972,411.35695   L 376.71721,407.83698   L 372.87724,406.79699   L 364.0773,406.79699   L 360.71733,410.95696   L 360.39733,411.27695   z "
     id="path73" />
  <path
     style="fill:#b9b9b9;fill-rule:nonzero;fill-opacity:1;stroke:#ffffff;stroke-width:1.0399923px;stroke-linecap:butt;stroke-linejoin:miter;stroke-miterlimit:4;stroke-dasharray:none;stroke-opacity:1;"
     d="  M 439.27675,452.07665   L 432.4768,452.31665   L 431.27681,451.35666   L 428.23683,453.83664   L 423.51686,454.63663   L 420.23689,461.11658   L 422.63687,464.47656   L 418.9569,464.63656   L 413.75694,466.63654   L 415.83692,469.75652   L 415.11693,473.51649   L 409.83696,476.47647   L 409.83696,479.35645   L 412.87694,481.83643   L 414.39693,483.35642   L 420.87688,484.23641   L 426.71684,488.47638   L 432.87679,496.71632   L 438.47675,496.31632   L 441.35673,500.0763   L 439.35675,503.83627   L 444.63671,504.63626   L 446.95669,503.75627   L 449.51667,505.83625   L 449.83667,511.59621   L 451.75665,513.1962   L 456.47662,509.35623   L 459.1166,508.71623   L 459.5166,507.59624   L 458.6366,503.35627   L 459.5166,500.71629   L 458.8766,497.99631   L 460.15659,495.75633   L 458.15661,491.99636   L 461.99658,489.59637   L 461.75658,486.2364   L 461.99658,483.83642   L 462.87657,481.43643   L 464.23656,482.47643   L 463.27657,484.95641   L 464.95656,485.8364   L 465.35655,490.07637   L 468.39653,487.75639   L 469.99652,484.71641   L 470.15652,479.11645   L 471.27651,476.23647   L 469.83652,474.47649   L 471.35651,472.4765   L 471.59651,469.11653   L 469.51652,466.07655   L 468.23653,461.59658   L 457.99661,457.35661   L 450.71666,462.07658   L 446.23669,460.47659   L 445.7567,453.83664   z "
     id="path75" />
  <path
     style="fill:#b9b9b9;fill-rule:nonzero;fill-opacity:1;stroke:#ffffff;stroke-width:1.0399923px;stroke-linecap:butt;stroke-linejoin:miter;stroke-miterlimit:4;stroke-dasharray:none;stroke-opacity:1;"
     d="  M 438.47675,496.31632   L 432.87679,496.71632   L 426.47684,487.83639   L 421.51688,484.31641   L 414.95693,483.59642   L 411.51695,480.87644   L 409.83696,479.35645   L 409.83696,476.47647   L 415.11693,473.51649   L 415.83692,469.75652   L 413.75694,466.63654   L 410.23696,469.83652   L 406.71699,466.31655   L 402.47702,464.63656   L 396.23706,466.87654   L 392.95709,472.0765   L 387.99713,473.1165   L 385.51714,476.07647   L 378.2372,475.35648   L 368.95727,472.8765   L 363.51731,475.35648   L 353.51738,466.63654   L 352.23739,462.63657   L 351.2774,459.5966   L 350.5574,461.11658   L 349.59741,466.63654   L 341.75747,466.87654   L 335.91751,470.63651   L 332.55754,470.95651   L 329.43756,466.39655   L 324.87759,464.23656   L 317.11765,464.63656   L 314.23767,466.63654   L 310.3977,465.91655   L 309.11771,464.39656   L 305.51774,463.11657   L 304.87774,461.27658   L 310.8777,456.95662   L 308.55771,450.07667   L 304.87774,444.9567   L 301.91776,443.43672   L 299.27778,437.59676   L 296.23781,436.31677   L 293.75782,434.87678   L 286.23788,436.39677   L 281.99791,432.87679   L 276.39795,433.11679   L 275.27796,428.63682   L 269.918,426.79684   L 269.758,424.87685   L 266.71802,425.59685   L 264.71804,430.07681   L 257.75809,434.87678   L 251.27814,435.59677   L 249.51815,441.35673   L 242.9582,446.87669   L 242.4782,450.07667   L 241.51821,456.63662   L 238.47823,459.1166   L 236.47825,464.63656   L 238.47823,470.31652   L 235.99825,472.8765   L 234.95826,476.07647   L 231.99828,478.31646   L 236.23825,482.87642   L 239.99822,489.59637   L 238.23824,492.63635   L 239.27823,496.63632   L 242.9582,498.07631   L 241.27821,502.63628   L 235.99825,507.35624   L 235.51826,511.59621   L 237.51824,514.87619   L 236.07825,516.07618   L 231.11829,520.63614   L 232.87827,523.75612   L 237.75824,530.07607   L 237.11824,538.23601   L 245.59818,545.91596   L 246.23818,551.91591   L 251.27814,555.91588   L 252.55813,558.63586   L 255.27811,559.75585   L 256.5581,565.27581   L 258.39809,565.11581   L 257.75809,568.95579   L 255.43811,571.27577   L 257.27809,575.27574   L 262.87805,576.07573   L 265.75803,574.23575   L 266.87802,575.91573   L 272.71798,574.39575   L 275.43796,569.75578   L 275.43796,565.11581   L 276.55795,564.63582   L 276.55795,566.7958   L 280.23792,570.63577   L 281.75791,568.95579   L 285.91788,569.27578   L 287.91787,565.27581   L 283.4379,561.91584   L 285.59788,560.07585   L 287.91787,562.23584   L 289.11786,556.63588   L 293.11783,553.1159   L 290.87785,559.91585   L 290.39785,564.23582   L 292.39783,565.27581   L 289.75785,568.63579   L 291.59784,570.07578   L 289.43786,574.07575   L 293.27783,578.23572   L 299.43778,581.1157   L 299.43778,581.1157   L 302.87776,582.39569   L 305.59774,582.39569   L 312.07769,582.39569   L 312.39769,576.79573   L 318.87764,576.39573   L 320.71762,581.1157   L 323.7576,581.43569   L 325.59759,575.91573   L 328.07757,573.75575   L 330.39755,576.39573   L 332.07754,581.1157   L 326.23758,581.59569   L 326.07758,584.07567   L 332.55754,586.79565   L 334.71752,584.95567   L 337.1175,587.43565   L 340.07748,583.43568   L 341.11747,578.63571   L 340.87747,574.63574   L 343.11746,571.75576   L 342.71746,569.91578   L 338.71749,568.39579   L 338.87749,567.1158   L 342.23746,567.75579   L 347.91742,566.23581   L 348.07742,562.23584   L 344.39745,559.59585   L 346.07744,556.23588   L 344.23745,556.95587   L 341.27747,559.27586   L 338.39749,559.43586   L 336.23751,561.43584   L 332.23754,565.43581   L 333.75753,561.43584   L 335.75751,557.91587   L 340.87747,556.63588   L 343.51746,555.83588   L 346.39743,553.8359   L 343.35746,551.11592   L 344.71745,549.75593   L 348.95742,551.19592   L 350.8774,550.47592   L 353.35738,548.63594   L 356.39736,551.99591   L 359.11734,552.71591   L 357.75735,555.83588   L 360.71733,556.23588   L 359.83733,557.99587   L 365.27729,557.11587   L 366.23729,554.31589   L 364.3973,552.8759   L 363.9973,551.11592   L 361.51732,545.59596   L 362.15732,543.11598   L 360.15733,540.316   L 358.47734,537.51602   L 361.35732,534.71604   L 362.95731,538.63601   L 365.1173,542.63598   L 365.1173,544.87596   L 367.51728,542.95598   L 370.71725,544.71597   L 373.35723,542.95598   L 374.71722,546.95595   L 373.35723,550.23592   L 377.3572,551.83591   L 381.99717,551.59591   L 386.47714,549.35593   L 386.87713,552.71591   L 390.9571,551.75591   L 393.59708,549.51593   L 393.11709,546.63595   L 388.87712,543.83597   L 387.99713,541.51599   L 388.47712,541.59599   L 391.9971,541.11599   L 393.75708,538.87601   L 397.27706,540.636   L 396.95706,537.11602   C 396.95706,537.11602 398.23705,532.63605 398.95704,532.63605   C 399.75704,532.63605 404.23701,532.31606 404.23701,532.31606   L 406.71699,529.83608   L 413.75694,527.1161   L 416.95691,522.07613   L 428.95682,517.11617   L 430.47681,507.59624   L 432.4768,507.35624   L 435.51677,509.59623   L 438.47675,507.59624   L 439.35675,503.83627   L 441.35673,500.0763   z "
     id="path95" />
  <path
     style="fill:#b9b9b9;fill-rule:nonzero;fill-opacity:1;stroke:#ffffff;stroke-width:1.0399923px;stroke-linecap:butt;stroke-linejoin:miter;stroke-miterlimit:4;stroke-dasharray:none;stroke-opacity:1;"
     d="  M 432.87679,507.51624   L 430.47681,507.59624   L 428.95682,517.11617   L 420.23689,520.87614   L 416.95691,522.07613   L 415.99692,521.35614   L 413.75694,527.1161   L 406.71699,529.83608   L 404.23701,532.31606   L 398.95704,532.63605   L 396.95706,537.11602   L 397.27706,540.636   L 393.75708,538.87601   L 391.9971,541.11599   L 387.99713,541.51599   L 388.87712,543.83597   L 393.27709,547.19595   L 393.59708,549.51593   L 391.2771,551.35592   L 393.59708,552.8759   L 399.59704,552.71591   L 400.71703,547.59594   L 402.23702,546.71595   L 402.39702,552.31591   L 404.15701,551.83591   L 405.99699,548.07594   L 407.99698,547.35595   L 407.99698,547.35595   L 408.39697,554.31589   L 409.99696,559.51586   L 412.23695,556.31588   L 413.75694,558.63586   L 413.75694,555.59588   L 413.11694,553.3559   L 413.59694,551.75591   L 415.11693,551.51591   L 414.95693,554.71589   L 416.87691,557.11587   L 416.87691,552.8759   L 418.6369,550.71592   L 418.5569,550.71592   L 419.83689,549.11593   L 419.83689,547.35595   L 421.27688,546.87595   L 422.47687,544.87596   L 423.51686,546.47595   L 424.23686,548.63594   L 426.63684,547.75594   L 427.35683,548.95593   L 429.59682,549.19593   L 430.71681,545.19596   L 429.59682,543.11598   L 430.23681,541.51599   L 433.35679,540.95599   L 434.87678,539.996   L 435.75677,540.87599   L 438.47675,540.87599   L 439.75674,537.11602   L 442.87672,534.87604   L 442.87672,534.87604   L 443.27672,529.99607   L 444.8767,529.59608   L 445.7567,527.35609   L 446.95669,524.63611   L 445.1167,523.11613   L 446.47669,521.83613   L 448.47668,518.95616   L 446.95669,517.11617   L 448.87667,513.83619   L 451.11666,514.95619   L 451.75665,513.1962   L 449.83667,511.11621   L 449.51667,505.83625   L 446.71669,504.07627   L 444.63671,504.63626   L 439.75674,503.83627   L 438.47675,507.59624   L 435.51677,509.59623   z "
     id="path109" />
  <path
     style="fill:#b9b9b9;fill-rule:nonzero;fill-opacity:1;stroke:#ffffff;stroke-width:1.0399923px;stroke-linecap:butt;stroke-linejoin:miter;stroke-miterlimit:4;stroke-dasharray:none;stroke-opacity:1;"
     d="  M 273.75797,418.0769   L 268.55801,410.79696   L 268.07801,407.43698   L 264.23804,405.597   L 254.07812,408.95697   L 252.87813,406.63699   L 247.27817,405.437   L 244.23819,400.63703   L 241.59821,403.27701   L 237.91824,399.11704   L 235.75825,401.27703   L 237.43824,405.437   L 235.75825,409.91696   L 225.75833,404.07701   L 224.79833,411.91695   L 215.4384,412.63694   L 211.59843,406.79699   L 209.43845,409.11697   L 208.23846,408.79697   L 205.11848,405.197   L 205.27848,404.797   L 203.91849,402.63702   L 201.75851,392.95709   L 198.39853,390.23711   L 193.75856,393.91708   L 189.75859,392.31709   L 188.9586,396.47706   L 184.39863,395.27707   L 182.23865,397.11706   L 175.2787,397.11706   L 172.55872,399.91704   L 166.23877,397.35706   L 162.87879,388.07713   L 159.59882,389.19712   L 154.39886,388.39712   L 151.59888,387.35713   L 148.4789,388.47712   L 143.75894,388.31712   L 141.51895,392.23709   L 141.27895,398.63705   L 140.07896,401.11703   L 133.99901,405.75699   L 127.35906,405.99699   L 123.75908,409.99696   L 120.23911,410.39696   L 117.11913,410.07696   L 115.91914,412.39695   L 102.55924,414.07693   L 100.87925,415.91692   L 99.119266,414.95693   L 99.599262,417.75691   L 104.87922,419.75689   L 107.7592,421.43688   L 107.7592,428.23683   L 114.71915,428.79682   L 117.11913,427.91683   L 120.55911,428.23683   L 121.7591,429.43682   L 123.75908,428.79682   L 127.75905,427.75683   L 132.71902,424.63685   L 136.95899,424.95685   L 131.11903,427.99683   L 128.87905,432.2368   L 124.63908,431.11681   L 121.5991,431.8368   L 117.83913,435.99677   L 127.83905,441.75673   L 128.47905,442.95672   L 126.95906,443.99671   L 126.63906,445.7567   L 119.75911,443.11672   L 109.27919,442.07673   L 108.4792,451.59665   L 101.75925,459.1166   L 98.239272,459.5966   L 87.75935,466.07655   L 87.519352,470.31652   L 95.119295,476.63647   L 100.15926,474.07649   L 110.15918,473.19649   L 114.87915,478.71645   L 114.63915,480.47644   L 109.35919,479.19645   L 105.27922,482.71642   L 98.959267,482.87642   L 91.519322,486.0764   L 84.159377,499.1963   L 91.599321,500.23629   L 90.639329,506.87625   L 92.959311,511.99621   L 95.359294,512.23621   C 95.359294,512.23621 95.759291,517.75616 95.83929,518.07616   C 95.999289,518.47616 103.35923,519.83615 103.35923,519.83615   L 103.27923,515.83618   L 106.15921,515.51618   L 110.47918,516.87617   L 114.15915,512.9562   L 121.8391,510.31622   C 121.8391,510.31622 121.8391,506.63625 121.9991,506.07625   C 122.1591,505.59625 124.39908,504.47626 124.39908,504.47626   L 125.35907,500.31629   L 123.99908,497.83631   L 127.75905,493.83634   L 127.83905,494.23634   L 132.87902,494.07634   L 134.399,490.95636   L 137.99898,492.63635   L 137.75898,494.23634   L 141.27895,495.99633   L 144.71893,498.07631   L 145.59892,501.51629   L 149.35889,505.35626   L 153.51886,504.63626   L 153.75886,501.75628   L 155.51885,500.31629   L 157.27883,496.07633   L 161.5188,495.59633   L 162.3988,499.7563   L 163.83879,500.95629   L 163.83879,503.83627   L 160.87881,505.11626   L 161.8388,507.51624   L 164.87878,508.07624   L 165.59877,514.47619   L 163.27879,515.11618   L 164.39878,518.23616   L 172.47872,520.71614   L 181.27866,513.75619   L 181.27866,513.75619   L 180.87866,517.19617   L 183.99864,518.31616   L 186.23862,514.47619   L 189.3586,518.07616   L 192.87857,518.31616   L 196.95854,520.87614   L 202.2385,517.51617   L 206.71847,519.75615   L 213.11842,511.11621   L 219.99837,511.35621   L 226.95832,515.83618   L 231.27829,520.07615   L 237.51824,514.87619   L 235.35826,511.19621   L 235.99825,507.35624   L 240.87822,502.95627   L 242.6382,497.83631   L 239.27823,496.23632   L 238.23824,492.63635   L 239.99822,489.59637   L 236.23825,482.87642   L 232.39828,478.39646   L 232.39828,478.39646   L 234.95826,476.07647   L 236.07825,472.3965   L 238.47823,470.31652   L 236.47825,464.63656   L 239.11823,458.7966   L 241.51821,456.63662   L 242.9582,446.87669   L 246.87817,443.43672   L 246.47817,443.11672   L 249.51815,441.35673   L 251.27814,435.59677   L 257.75809,434.87678   L 264.71804,430.07681   L 266.71802,425.59685   L 269.758,424.87685   L 269.598,421.11688   z "
     id="path113" />
  <path
     style="fill:#b9b9b9;fill-rule:nonzero;fill-opacity:1;stroke:#ffffff;stroke-width:1.0399923px;stroke-linecap:butt;stroke-linejoin:miter;stroke-miterlimit:4;stroke-dasharray:none;stroke-opacity:1;"
     d="  M 158.07883,542.87598   L 159.59882,541.43599   L 157.35883,538.55601   L 154.15886,538.63601   L 152.15887,536.71602   L 150.39889,532.23606   L 147.75891,528.23609   L 145.59892,526.6361   L 142.23895,528.63608   L 139.43897,528.71608   L 136.79899,531.35606   L 131.75902,533.59605   L 125.59907,530.71607   L 125.35907,527.99609   L 123.11909,527.99609   L 121.3591,534.15604   L 116.87913,534.79604   L 112.95916,538.55601   L 114.47915,541.27599   L 112.23917,543.03598   C 112.23917,543.03598 111.99917,548.63594 112.23917,548.95593   C 112.47917,549.27593 115.19915,551.11592 115.19915,551.11592   L 124.23908,550.95592   L 127.35906,554.79589   L 126.71906,557.03587   L 128.47905,558.31586   L 133.99901,558.63586   L 137.27898,556.15588   L 142.47894,554.87589   L 146.39892,553.1159   L 150.23889,556.23588   L 151.27888,554.79589   L 154.79885,553.1159   L 156.79884,550.07593   L 158.79882,546.95595   L 158.07883,545.03596   L 158.07883,542.87598   z "
     id="path117" />
  <path
     style="fill:#b9b9b9;fill-rule:nonzero;fill-opacity:1;stroke:none;"
     d="  M 237.99824,582.63568   L 243.75819,582.63568   L 250.23815,575.11574   L 252.23813,574.31575   L 255.43811,571.27577   L 257.75809,568.95579   L 258.39809,565.11581   L 256.5581,565.27581   L 255.27811,560.63585   L 252.55813,558.63586   L 251.27814,555.91588   L 246.23818,551.91591   L 245.59818,545.91596   L 236.95824,538.87601   L 237.75824,530.07607   L 233.51827,524.07612   L 231.27829,520.07615   L 226.95832,515.83618   L 219.99837,511.35621   L 213.11842,511.11621   L 206.71847,519.75615   L 206.55847,523.35612   L 206.23847,519.75615   L 202.2385,517.51617   L 197.43854,521.11614   L 193.27857,518.39616   L 189.3586,518.07616   L 186.23862,514.47619   L 183.99864,518.31616   L 180.87866,517.19617   L 181.11866,514.07619   L 172.47872,520.71614   L 168.71875,519.91615   L 164.39878,518.23616   L 163.27879,515.11618   L 165.59877,514.47619   L 164.87878,508.07624   L 161.8388,507.51624   L 160.87881,505.11626   L 163.43879,503.75627   L 163.83879,500.95629   L 162.3988,499.7563   L 161.11881,495.75633   L 157.27883,496.07633   L 155.51885,500.31629   L 153.75886,501.75628   L 153.51886,504.63626   L 149.75889,505.27626   L 150.07889,504.95626   L 145.59892,501.51629   L 144.71893,498.07631   L 137.75898,494.23634   L 137.99898,492.63635   L 134.719,490.95636   L 132.87902,493.75634   L 127.83905,493.75634   L 124.39908,497.59631   L 125.35907,500.31629   L 124.39908,504.47626   L 121.9191,505.75625   L 121.8391,510.31622   L 114.15915,512.9562   L 110.47918,516.87617   L 106.15921,515.51618   L 103.27923,515.83618   L 103.35923,519.83615   L 95.83929,518.07616   L 95.359294,512.23621   L 92.959311,511.99621   L 90.639329,506.87625   L 91.599321,500.23629   L 84.559374,499.4363   L 81.279398,502.95627   L 81.279398,507.43624   L 87.119355,512.9562   L 81.119399,510.23622   L 79.119414,511.43621   L 77.599425,516.39617   L 77.279428,521.11614   L 71.279472,522.39613   L 70.879475,527.75609   L 68.239495,528.23609   L 67.599499,534.07604   L 68.079496,535.75603   L 67.599499,538.23601   L 69.919482,539.436   L 77.439426,535.11604   L 74.719447,538.63601   L 75.759439,541.91599   L 80.239406,546.23595   L 81.759394,550.63592   L 87.599351,551.91591   L 85.439367,554.63589   L 87.279353,556.07588   L 85.439367,558.23586   L 82.559388,560.23585   L 81.759394,564.39582   L 80.079407,562.39583   L 78.719417,561.11584   L 77.759424,563.91582   L 75.919438,565.11581   L 72.87946,566.9558   L 75.119444,569.11578   L 76.399434,568.39579   L 77.279428,571.75576   L 78.559418,574.63574   L 79.119414,580.9557   L 80.559403,582.23569   L 78.559418,585.43566   L 80.079407,589.27563   L 80.399404,591.27562   L 80.799401,591.43562   L 78.719417,593.27561   L 76.399434,595.91559   L 74.23945,599.11556   L 77.599425,602.23554   L 82.719387,601.27555   L 85.119369,601.11555   L 87.75935,600.79555   L 86.719358,602.39554   L 81.919393,603.27553   L 77.279428,603.91553   L 77.439426,606.07551   L 75.119444,608.0755   L 77.119429,609.27549   L 82.239391,608.63549   L 85.919364,610.07548   L 91.599321,609.27549   L 98.079273,617.11543   L 100.07926,617.59543   L 100.39926,621.1154   L 107.4392,625.11537   L 102.23924,625.91536   L 98.55927,622.95539   L 95.439293,622.39539   L 95.279294,626.23536   L 89.439337,623.59538   L 83.919378,619.59541   L 86.559359,615.11544   L 83.919378,614.79545   L 82.879386,616.39543   L 79.759409,614.79545   L 78.079422,615.11544   L 78.23942,618.07542   L 78.079422,622.79539   L 81.759394,621.91539   L 83.75938,624.79537   L 88.559344,628.23535   L 87.279353,632.07532   L 80.239406,628.39535   L 76.079436,627.43535   L 74.23945,620.23541   L 72.079466,615.59544   L 72.87946,612.39546   L 71.439471,611.27547   L 71.119473,608.95549   L 65.919512,605.59551   L 63.759528,611.59547   L 60.559551,614.23545   L 60.559551,623.43538   L 63.759528,625.11537   L 63.759528,628.39535   L 67.4395,632.63531   L 67.599499,634.0753   L 76.879431,636.79528   L 77.759424,640.07526   L 82.239391,637.59528   L 86.39936,641.75525   L 87.439352,645.27522   L 87.919349,652.39517   L 86.559359,654.07515   L 90.39933,658.23512   L 94.079303,655.59514   L 93.279309,659.91511   C 93.279309,659.91511 90.39933,661.2751 90.239332,662.0751   C 90.079333,662.95509 88.559344,669.11504 88.559344,669.11504   L 92.879312,668.79505   L 93.759305,672.95502   L 94.399301,678.23498   L 99.279265,674.07501   L 105.27922,674.955   L 105.11922,668.63505   L 107.4392,666.79506   L 105.75922,663.11509   L 110.87918,660.07511   L 117.11913,656.23514   L 120.71911,655.11515   L 122.0791,652.63517   L 124.39908,650.79518   L 123.59908,648.95519   L 125.75907,646.95521   C 125.75907,646.95521 126.87906,639.11527 126.87906,637.75528   C 126.87906,636.39529 127.59905,626.63536 127.59905,626.63536   L 129.59904,625.11537   L 128.23905,627.91535   L 129.11904,633.27531   L 130.71903,635.75529   L 130.71903,648.79519   L 132.55902,650.79518   L 136.39899,654.63515   L 142.87894,656.79513   L 140.87896,652.95516   L 148.5589,653.75516   L 148.5589,650.07518   L 151.11888,652.23517   L 155.43885,650.07518   L 153.27886,647.7552   L 154.07886,644.23523   L 151.91887,641.43525   L 155.91885,639.43526   L 157.27883,635.43529   L 155.27885,634.6353   L 155.91885,632.79531   L 157.11884,629.43534   L 153.91886,627.59535   L 154.07886,626.63536   L 160.07881,627.11535   L 162.87879,623.59538   L 167.91876,619.43541   L 172.39872,615.27544   L 175.1187,616.63543   L 180.87866,615.27544   L 184.71863,607.7555   L 187.91861,603.59553   L 188.3986,602.95553   L 190.71859,609.11549   L 194.71856,608.95549   L 198.71853,606.39551   L 199.91852,609.75548   L 200.23852,614.07545   L 199.59852,619.43541   L 193.91856,619.75541   L 193.43857,613.91545   L 191.43858,612.63546   L 187.11861,616.23544   L 187.11861,622.39539   L 188.7186,627.27535   L 185.43863,632.39532   L 180.87866,632.07532   L 182.07865,626.79536   L 183.75864,622.79539   L 180.71866,624.23538   L 177.27869,630.23533   L 172.71872,633.27531   L 171.91873,639.91526   L 172.55872,642.23524   L 178.55868,642.95524   L 183.27864,641.11525   L 188.3986,641.59525   L 193.75856,642.07524   L 191.75858,647.11521   L 194.07856,649.75519   L 199.11853,652.23517   L 201.59851,648.79519   L 207.91846,649.11519   L 208.07846,646.07521   L 212.55843,644.39523   L 213.27842,637.75528   L 209.59845,637.43528   C 209.59845,637.43528 209.43845,634.3953 209.43845,633.75531   C 209.43845,633.11531 214.71841,633.9153 214.71841,633.9153   L 220.87836,633.27531   L 222.39835,626.95536   L 218.39838,623.75538   L 220.23837,621.75539   L 213.43842,619.27541   L 213.11842,617.43543   L 211.11844,614.95544   L 207.27846,612.39546   L 205.75848,608.79549   L 208.87845,606.79551   L 209.27845,603.91553   L 207.43846,602.39554   L 207.91846,600.63555   L 209.59845,597.43557   L 204.23849,594.0756   L 209.75845,594.2356   L 212.23843,593.11561   L 220.23837,592.07561   L 220.07837,587.43565   L 222.87835,586.23566   L 223.43834,588.95564   L 226.71832,592.95561   L 224.87833,597.59557   L 229.5983,597.91557   L 230.0783,602.63554   L 234.39826,606.63551   L 228.71831,611.27547   L 229.9183,614.63545   L 228.39831,615.91544   L 229.9183,621.5954   L 233.27827,625.43537   L 233.27827,623.11538   L 235.75825,623.11538   L 239.11823,625.59537   L 239.75822,620.23541   L 237.91824,618.39542   L 237.59824,616.23544   L 236.55825,613.11546   L 240.39822,611.11547   L 242.7182,607.1155   L 246.87817,610.79548   L 252.23813,611.43547   L 254.55811,608.23549   L 254.07812,603.91553   L 256.2381,600.63555   L 256.5581,594.95559   L 257.59809,590.95562   L 255.59811,588.79564   L 253.91812,590.63562   L 251.91813,589.11564   L 247.75816,588.79564   L 244.23819,592.39561   L 240.55822,595.75559   L 239.75822,592.23561   L 234.87826,588.23564   L 231.59828,583.75568   L 232.39828,581.1157   L 232.23828,580.4757   L 235.27826,578.07572   z  M 158.79882,546.95595   L 156.79884,550.07593   L 154.79885,553.1159   L 151.27888,554.79589   L 150.23889,556.23588   L 146.39892,553.1159   L 142.47894,554.87589   L 137.27898,556.15588   L 133.99901,558.63586   L 128.47905,558.31586   L 126.71906,557.03587   L 127.35906,554.79589   L 124.23908,550.95592   L 115.19915,551.11592   C 115.19915,551.11592 112.47917,549.27593 112.23917,548.95593   C 111.99917,548.63594 112.23917,543.03598 112.23917,543.03598   L 114.47915,541.27599   L 112.95916,538.55601   L 116.87913,534.79604   L 121.3591,534.15604   L 123.11909,527.99609   L 125.35907,527.99609   L 125.59907,530.71607   L 131.75902,533.59605   L 136.79899,531.35606   L 139.43897,528.71608   L 142.23895,528.63608   L 145.59892,526.6361   L 147.75891,528.23609   L 150.39889,532.23606   L 152.15887,536.71602   L 154.15886,538.63601   L 157.35883,538.55601   L 159.59882,541.43599   L 158.07883,542.87598   L 158.07883,545.03596   z "
     id="path185" />
  <path
     style="fill:#b9b9b9;fill-rule:nonzero;fill-opacity:1;stroke:#ffffff;stroke-width:1.0399923px;stroke-linecap:butt;stroke-linejoin:miter;stroke-miterlimit:4;stroke-dasharray:none;stroke-opacity:1;"
     d="  M 237.99824,582.63568   L 243.75819,582.63568   L 250.23815,575.11574   L 252.23813,574.31575   L 255.43811,571.27577   L 257.75809,568.95579   L 258.39809,565.11581   L 256.5581,565.27581   L 255.27811,560.63585   L 252.55813,558.63586   L 251.27814,555.91588   L 246.23818,551.91591   L 245.59818,545.91596   L 236.95824,538.87601   L 237.75824,530.07607   L 233.51827,524.07612   L 231.27829,520.07615   L 226.95832,515.83618   L 219.99837,511.35621   L 213.11842,511.11621   L 206.71847,519.75615   L 206.55847,523.35612   L 206.23847,519.75615   L 202.2385,517.51617   L 197.43854,521.11614   L 193.27857,518.39616   L 189.3586,518.07616   L 186.23862,514.47619   L 183.99864,518.31616   L 180.87866,517.19617   L 181.11866,514.07619   L 172.47872,520.71614   L 168.71875,519.91615   L 164.39878,518.23616   L 163.27879,515.11618   L 165.59877,514.47619   L 164.87878,508.07624   L 161.8388,507.51624   L 160.87881,505.11626   L 163.43879,503.75627   L 163.83879,500.95629   L 162.3988,499.7563   L 161.11881,495.75633   L 157.27883,496.07633   L 155.51885,500.31629   L 153.75886,501.75628   L 153.51886,504.63626   L 149.75889,505.27626   L 150.07889,504.95626   L 145.59892,501.51629   L 144.71893,498.07631   L 137.75898,494.23634   L 137.99898,492.63635   L 134.719,490.95636   L 132.87902,493.75634   L 127.83905,493.75634   L 124.39908,497.59631   L 125.35907,500.31629   L 124.39908,504.47626   L 121.9191,505.75625   L 121.8391,510.31622   L 114.15915,512.9562   L 110.47918,516.87617   L 106.15921,515.51618   L 103.27923,515.83618   L 103.35923,519.83615   L 95.83929,518.07616   L 95.359294,512.23621   L 92.959311,511.99621   L 90.639329,506.87625   L 91.599321,500.23629   L 84.559374,499.4363   L 81.279398,502.95627   L 81.279398,507.43624   L 87.119355,512.9562   L 81.119399,510.23622   L 79.119414,511.43621   L 77.599425,516.39617   L 77.279428,521.11614   L 71.279472,522.39613   L 70.879475,527.75609   L 68.239495,528.23609   L 67.599499,534.07604   L 68.079496,535.75603   L 67.599499,538.23601   L 69.919482,539.436   L 77.439426,535.11604   L 74.719447,538.63601   L 75.759439,541.91599   L 80.239406,546.23595   L 81.759394,550.63592   L 87.599351,551.91591   L 85.439367,554.63589   L 87.279353,556.07588   L 85.439367,558.23586   L 82.559388,560.23585   L 81.759394,564.39582   L 80.079407,562.39583   L 78.719417,561.11584   L 77.759424,563.91582   L 75.919438,565.11581   L 72.87946,566.9558   L 75.119444,569.11578   L 76.399434,568.39579   L 77.279428,571.75576   L 78.559418,574.63574   L 79.119414,580.9557   L 80.559403,582.23569   L 78.559418,585.43566   L 80.079407,589.27563   L 80.399404,591.27562   L 80.799401,591.43562   L 78.719417,593.27561   L 76.399434,595.91559   L 74.23945,599.11556   L 77.599425,602.23554   L 82.719387,601.27555   L 85.119369,601.11555   L 87.75935,600.79555   L 86.719358,602.39554   L 81.919393,603.27553   L 77.279428,603.91553   L 77.439426,606.07551   L 75.119444,608.0755   L 77.119429,609.27549   L 82.239391,608.63549   L 85.919364,610.07548   L 91.599321,609.27549   L 98.079273,617.11543   L 100.07926,617.59543   L 100.39926,621.1154   L 107.4392,625.11537   L 102.23924,625.91536   L 98.55927,622.95539   L 95.439293,622.39539   L 95.279294,626.23536   L 89.439337,623.59538   L 83.919378,619.59541   L 86.559359,615.11544   L 83.919378,614.79545   L 82.879386,616.39543   L 79.759409,614.79545   L 78.079422,615.11544   L 78.23942,618.07542   L 78.079422,622.79539   L 81.759394,621.91539   L 83.75938,624.79537   L 88.559344,628.23535   L 87.279353,632.07532   L 80.239406,628.39535   L 76.079436,627.43535   L 74.23945,620.23541   L 72.079466,615.59544   L 72.87946,612.39546   L 71.439471,611.27547   L 71.119473,608.95549   L 65.919512,605.59551   L 63.759528,611.59547   L 60.559551,614.23545   L 60.559551,623.43538   L 63.759528,625.11537   L 63.759528,628.39535   L 67.4395,632.63531   L 67.599499,634.0753   L 76.879431,636.79528   L 77.759424,640.07526   L 82.239391,637.59528   L 86.39936,641.75525   L 87.439352,645.27522   L 87.919349,652.39517   L 86.559359,654.07515   L 90.39933,658.23512   L 94.079303,655.59514   L 93.279309,659.91511   C 93.279309,659.91511 90.39933,661.2751 90.239332,662.0751   C 90.079333,662.95509 88.559344,669.11504 88.559344,669.11504   L 92.879312,668.79505   L 93.759305,672.95502   L 94.399301,678.23498   L 99.279265,674.07501   L 105.27922,674.955   L 105.11922,668.63505   L 107.4392,666.79506   L 105.75922,663.11509   L 110.87918,660.07511   L 117.11913,656.23514   L 120.71911,655.11515   L 122.0791,652.63517   L 124.39908,650.79518   L 123.59908,648.95519   L 125.75907,646.95521   C 125.75907,646.95521 126.87906,639.11527 126.87906,637.75528   C 126.87906,636.39529 127.59905,626.63536 127.59905,626.63536   L 129.59904,625.11537   L 128.23905,627.91535   L 129.11904,633.27531   L 130.71903,635.75529   L 130.71903,648.79519   L 132.55902,650.79518   L 136.39899,654.63515   L 142.87894,656.79513   L 140.87896,652.95516   L 148.5589,653.75516   L 148.5589,650.07518   L 151.11888,652.23517   L 155.43885,650.07518   L 153.27886,647.7552   L 154.07886,644.23523   L 151.91887,641.43525   L 155.91885,639.43526   L 157.27883,635.43529   L 155.27885,634.6353   L 155.91885,632.79531   L 157.11884,629.43534   L 153.91886,627.59535   L 154.07886,626.63536   L 160.07881,627.11535   L 162.87879,623.59538   L 167.91876,619.43541   L 172.39872,615.27544   L 175.1187,616.63543   L 180.87866,615.27544   L 184.71863,607.7555   L 187.91861,603.59553   L 188.3986,602.95553   L 190.71859,609.11549   L 194.71856,608.95549   L 198.71853,606.39551   L 199.91852,609.75548   L 200.23852,614.07545   L 199.59852,619.43541   L 193.91856,619.75541   L 193.43857,613.91545   L 191.43858,612.63546   L 187.11861,616.23544   L 187.11861,622.39539   L 188.7186,627.27535   L 185.43863,632.39532   L 180.87866,632.07532   L 182.07865,626.79536   L 183.75864,622.79539   L 180.71866,624.23538   L 177.27869,630.23533   L 172.71872,633.27531   L 171.91873,639.91526   L 172.55872,642.23524   L 178.55868,642.95524   L 183.27864,641.11525   L 188.3986,641.59525   L 193.75856,642.07524   L 191.75858,647.11521   L 194.07856,649.75519   L 199.11853,652.23517   L 201.59851,648.79519   L 207.91846,649.11519   L 208.07846,646.07521   L 212.55843,644.39523   L 213.27842,637.75528   L 209.59845,637.43528   C 209.59845,637.43528 209.43845,634.3953 209.43845,633.75531   C 209.43845,633.11531 214.71841,633.9153 214.71841,633.9153   L 220.87836,633.27531   L 222.39835,626.95536   L 218.39838,623.75538   L 220.23837,621.75539   L 213.43842,619.27541   L 213.11842,617.43543   L 211.11844,614.95544   L 207.27846,612.39546   L 205.75848,608.79549   L 208.87845,606.79551   L 209.27845,603.91553   L 207.43846,602.39554   L 207.91846,600.63555   L 209.59845,597.43557   L 204.23849,594.0756   L 209.75845,594.2356   L 212.23843,593.11561   L 220.23837,592.07561   L 220.07837,587.43565   L 222.87835,586.23566   L 223.43834,588.95564   L 226.71832,592.95561   L 224.87833,597.59557   L 229.5983,597.91557   L 230.0783,602.63554   L 234.39826,606.63551   L 228.71831,611.27547   L 229.9183,614.63545   L 228.39831,615.91544   L 229.9183,621.5954   L 233.27827,625.43537   L 233.27827,623.11538   L 235.75825,623.11538   L 239.11823,625.59537   L 239.75822,620.23541   L 237.91824,618.39542   L 237.59824,616.23544   L 236.55825,613.11546   L 240.39822,611.11547   L 242.7182,607.1155   L 246.87817,610.79548   L 252.23813,611.43547   L 254.55811,608.23549   L 254.07812,603.91553   L 256.2381,600.63555   L 256.5581,594.95559   L 257.59809,590.95562   L 255.59811,588.79564   L 253.91812,590.63562   L 251.91813,589.11564   L 247.75816,588.79564   L 244.23819,592.39561   L 240.55822,595.75559   L 239.75822,592.23561   L 234.87826,588.23564   L 231.59828,583.75568   L 232.39828,581.1157   L 232.23828,580.4757   L 235.27826,578.07572   z  M 158.79882,546.95595   L 156.79884,550.07593   L 154.79885,553.1159   L 151.27888,554.79589   L 150.23889,556.23588   L 146.39892,553.1159   L 142.47894,554.87589   L 137.27898,556.15588   L 133.99901,558.63586   L 128.47905,558.31586   L 126.71906,557.03587   L 127.35906,554.79589   L 124.23908,550.95592   L 115.19915,551.11592   C 115.19915,551.11592 112.47917,549.27593 112.23917,548.95593   C 111.99917,548.63594 112.23917,543.03598 112.23917,543.03598   L 114.47915,541.27599   L 112.95916,538.55601   L 116.87913,534.79604   L 121.3591,534.15604   L 123.11909,527.99609   L 125.35907,527.99609   L 125.59907,530.71607   L 131.75902,533.59605   L 136.79899,531.35606   L 139.43897,528.71608   L 142.23895,528.63608   L 145.59892,526.6361   L 147.75891,528.23609   L 150.39889,532.23606   L 152.15887,536.71602   L 154.15886,538.63601   L 157.35883,538.55601   L 159.59882,541.43599   L 158.07883,542.87598   L 158.07883,545.03596   z "
     id="path187" />
  <path
     style="fill:#b9b9b9;fill-rule:nonzero;fill-opacity:1;stroke:#ffffff;stroke-width:1.0399923px;stroke-linecap:butt;stroke-linejoin:miter;stroke-miterlimit:4;stroke-dasharray:none;stroke-opacity:1;"
     d="  M 180.55866,297.4378   L 189.4386,302.63776   L 193.83856,302.55776   L 194.31856,304.63774   L 195.91855,304.63774   L 195.43855,308.55771   L 192.71857,310.3977   L 193.91856,313.43768   L 195.91855,315.83766   L 195.91855,319.83763   L 199.35852,321.19762   L 202.5585,324.6376   L 205.11848,323.7576   L 209.27845,325.19759   L 203.59849,326.95758   L 202.3185,329.27756   L 204.07849,331.91754   L 205.83848,332.95753   L 204.47849,334.31752   L 202.0785,334.31752   L 202.3985,338.1575   L 202.0785,341.67747   L 198.31853,345.51744   L 194.47856,345.67744   L 191.67858,348.95742   L 191.67858,358.31735   L 190.15859,361.11733   L 187.83861,357.19735   L 184.47863,356.31736   L 184.87863,354.15738   L 183.67864,352.39739   L 184.39863,345.35744   L 182.63865,342.63746   L 183.35864,340.47748   L 182.39865,337.4375   L 179.27867,335.59751   L 178.47868,334.95752   L 176.87869,335.75751   L 175.1987,331.75754   L 178.15868,325.59759   L 176.0787,312.79768   L 177.43869,308.79771   L 176.79869,303.43775   L 174.23871,300.95777   L 175.9187,297.67779   z "
     id="path199" />
  <path
     style="fill:#b9b9b9;fill-rule:nonzero;fill-opacity:1;stroke:none;"
     d="  M 366.07729,241.83821   C 362.23732,239.51823 358.63734,238.15824 356.95736,238.31823   C 355.43737,238.47823 352.47739,237.59824 350.3974,236.39825   C 347.43743,234.63826 345.35744,234.23826 340.79748,234.63826   C 335.27752,235.11826 334.79752,234.95826 333.35753,232.23828   C 331.83754,229.3583 331.51754,229.2783 325.11759,229.9183   C 317.11765,230.63829 315.83766,229.1183 321.11762,225.19833   C 326.95758,220.87836 325.35759,216.3184 318.95764,218.79838   C 316.39766,219.75837 315.51766,219.51837 312.79768,217.19839   C 308.87771,213.91842 307.91772,213.91842 304.79774,216.71839   C 302.79776,218.71838 302.15776,218.79838 300.15778,217.51839   C 298.15779,216.3184 297.5978,216.3984 296.31781,218.15838   C 295.51781,219.27838 294.63782,220.55837 294.47782,220.95836   C 294.31782,221.43836 292.71783,222.07835 290.87785,222.47835   C 287.83787,223.11835 287.35787,222.87835 286.07788,219.67837   C 285.27789,217.75839 284.1579,215.7584 283.5179,215.3584   C 281.59791,213.99841 277.59794,214.39841 274.87796,216.2384   C 272.63798,217.67839 272.23798,218.87838 272.23798,223.11835   C 272.23798,228.63831 270.87799,229.9983 266.47803,229.0383   C 265.19804,228.71831 262.71805,229.1983 260.95807,229.9983   C 257.83809,231.35829 257.51809,231.19829 253.91812,227.75831   L 250.07815,224.15834   L 251.43814,216.3984   C 252.15813,212.07843 252.79813,205.91847 252.87813,202.5585   C 252.87813,198.15853 253.59812,195.19855 255.59811,191.67858   C 258.63808,186.23862 258.39809,182.39865 254.87811,178.47868   C 252.95813,176.31869 252.95813,176.23869 255.8381,173.51871   C 257.43809,171.99873 259.91807,170.47874 261.19807,170.07874   C 264.55804,169.03875 264.23804,168.31875 259.19808,164.71878   C 256.1581,162.6388 252.95813,161.4388 249.27815,161.11881   C 245.35818,160.71881 242.15821,159.43882 238.15824,156.79884   C 233.03827,153.43886 232.15828,153.19887 229.6783,154.31886   C 225.99833,155.99884 224.55834,154.55886 225.99833,150.79888   C 226.63832,149.19889 227.11832,146.15892 227.11832,144.15893   C 227.11832,140.71896 226.95832,140.47896 224.39834,141.11895   L 221.59836,141.83895   L 223.35835,138.47897   C 224.63834,135.91899 224.79833,134.639 223.91834,132.87902   C 223.03835,131.35903 223.03835,130.31903 223.83834,129.27904   C 224.47834,128.55905 224.71834,127.11906 224.31834,126.07907   C 223.51834,123.91908 228.79831,117.99913 231.51829,117.99913   C 234.07827,117.99913 234.71826,112.23917 232.63828,107.6792   C 231.27829,104.55923 230.39829,103.99923 227.43832,103.99923   C 224.23834,103.99923 223.91834,103.67923 223.91834,100.87925   C 223.91834,97.999274 223.51834,97.599277 219.35838,96.799283   L 214.79841,95.919289   L 213.59842,88.639343   C 212.95842,84.719372 212.07843,81.119399 211.67843,80.719402   C 210.47844,79.519411 202.0785,79.439412 200.63851,80.639403   C 199.75852,81.359397 198.31853,81.279398 196.07855,80.239406   C 192.95857,78.879416 192.79857,78.559418 193.43857,74.399449   C 194.31856,68.479493 191.99858,67.5195 187.11861,71.839468   C 184.39863,74.23945 183.19864,74.639447 182.23865,73.759454   C 181.59865,73.039459 181.03866,71.999467 181.03866,71.359471   C 181.03866,70.719476 179.91867,67.679499 178.63868,64.639521   C 176.55869,59.839557 175.8387,59.199561 173.75871,59.679558   C 171.67873,60.159554 171.35873,59.839557 171.35873,56.879579   C 171.35873,54.159599 172.71872,50.799624 175.3587,47.27965   C 175.5187,47.039652 176.79869,47.439649 178.15868,48.159643   C 180.31866,49.279635 181.27866,49.199636 183.91864,47.839646   C 187.35861,46.079659 191.51858,46.559655 193.51857,48.959637   C 194.47856,50.159628 194.87856,50.159628 196.07855,48.719639   C 196.79854,47.839646 198.23853,47.359649 199.27852,47.679647   C 200.39852,48.079644 201.51851,47.839646 201.9185,47.19965   C 203.0385,45.359664 207.27846,45.91966 212.55843,48.799639   C 218.87838,52.159614 219.99837,52.079614 224.55834,48.63964   C 227.91831,46.079659 228.8783,45.83966 235.19826,46.319657   C 239.03823,46.639655 242.4782,46.479656 242.7982,45.999659   C 243.1182,45.439663 244.71819,45.039666 246.31818,45.039666   C 247.91816,45.039666 249.83815,44.479671 250.47814,43.759676   C 251.43814,42.799683 252.39813,43.19968 254.39812,45.359664   C 257.51809,48.719639 258.95808,48.879638 262.39806,46.559655   C 265.11804,44.55967 269.678,44.879668 281.03792,47.679647   L 288.15787,49.519633   L 297.3578,43.999674   C 306.55773,38.399716 314.95767,30.079777 317.19765,24.23982   C 317.83765,22.639832 318.31764,18.719861 318.31764,15.599884   C 318.31764,2.6399804 320.87762,-0.79999407 325.99759,5.3599603   C 327.67757,7.3599455 329.03756,9.6799283 329.03756,10.559922   C 329.03756,11.359916 330.79755,15.199887 332.87753,18.95986   C 334.95752,22.719832 336.47751,26.399804 336.23751,27.119799   C 335.99751,27.839794 337.3575,30.559774 339.27749,33.199754   C 341.19747,35.839735 343.11746,39.279709 343.51746,40.719698   C 343.99745,42.239687 346.23744,47.119651 348.47742,51.679617   C 353.43738,61.599544 355.83736,68.159495 355.83736,71.999467   C 355.83736,73.679454 357.43735,76.719432 359.59734,79.359412   C 361.67732,81.839394 363.35731,84.479374 363.35731,85.199369   C 363.35731,85.999363 365.1173,88.079348 367.11728,89.919334   C 369.19727,91.75932 370.87725,93.919304 370.87725,94.799298   C 370.87725,95.679291 371.43725,96.719284 371.99724,97.039281   C 372.63724,97.439278 375.11722,100.87925 377.4372,104.63922   C 379.83719,108.3992 382.23717,111.51917 382.79716,111.51917   C 383.35716,111.51917 383.75716,112.47917 383.75716,113.59916   C 383.75716,114.71915 387.19713,119.35912 391.3571,123.91908   C 395.59707,128.55905 398.63705,132.87902 398.31705,133.67901   C 397.99705,134.479 398.39705,135.119 399.11704,135.119   C 399.83704,135.119 403.03701,137.75898 406.15699,140.87896   C 410.15696,144.95893 411.75695,147.43891 411.67695,149.19889   C 411.27695,153.83886 411.59695,154.55886 416.55691,159.43882   C 420.47689,163.19879 421.27688,164.47878 420.23689,165.67877   C 419.27689,166.79876 419.99689,168.55875 423.51686,173.67871   C 425.91685,177.27869 428.39683,180.47866 428.95682,180.79866   C 429.43682,181.11866 429.91682,182.55865 429.91682,183.99864   C 429.91682,185.75862 431.03681,187.35861 433.59679,189.0386   C 436.31677,190.79859 437.35676,192.39857 437.91676,195.59855   C 438.31675,198.55853 439.67674,200.71851 442.39672,203.1185   C 444.47671,204.95848 447.35669,208.07846 448.71668,210.07844   C 450.71666,213.03842 450.95666,214.07841 449.91667,215.7584   C 448.95667,217.27839 449.03667,218.79838 450.39666,222.55835   C 451.67665,226.15832 451.83665,227.35832 450.87666,227.35832   C 450.15667,227.35832 448.63668,228.31831 447.59668,229.5183   C 446.55669,230.71829 444.8767,231.67828 443.91671,231.67828   C 441.11673,231.67828 436.31677,237.35824 436.31677,240.55822   C 436.31677,244.63819 433.43679,244.39819 428.23683,239.91822   C 422.39687,234.87826 419.59689,234.15827 416.63691,236.87825   C 414.63693,238.79823 413.59694,238.95823 407.91698,238.15824   C 404.397,237.75824 400.71703,237.03824 399.75704,236.55825   C 398.39705,235.99825 397.67705,236.63825 396.79706,239.11823   C 395.83707,241.91821 395.11707,242.3982 392.1571,242.3982   C 390.15711,242.3982 387.11713,241.43821 385.35715,240.23822   C 381.11718,237.43824 380.47718,237.51824 377.3572,241.83821   C 375.83722,243.91819 374.15723,245.59818 373.51723,245.59818   C 372.87724,245.59818 369.51726,243.91819 366.07729,241.83821   z "
     id="path201" />
  <path
     style="fill:#b9b9b9;fill-rule:nonzero;fill-opacity:1;stroke:none;"
     d="  M 190.79859,267.03802   C 189.4386,265.83803 187.43861,264.95804 186.31862,264.95804   C 185.27863,264.95804 183.67864,263.99804 182.87865,262.87805   C 182.07865,261.75806 179.43867,259.99807 176.87869,258.95808   C 172.31872,257.1181 172.31872,257.19809 169.43874,259.83808   C 165.27878,263.67805 162.71879,264.71804 158.87882,264.15804   C 156.79884,263.83805 153.99886,264.47804 151.19888,265.91803   L 146.79891,268.15801   L 144.23893,265.75803   C 142.87894,264.39804 140.63896,262.47806 139.35897,261.43806   C 138.07898,260.39807 137.03898,258.63808 137.03898,257.43809   C 137.03898,256.2381 136.31899,255.27811 135.359,255.27811   C 134.479,255.27811 133.35901,254.15812 132.79902,252.71813   C 132.15902,251.11814 130.63903,249.99815 128.31905,249.51815   C 125.59907,248.95816 125.11907,248.55816 126.07907,247.51817   C 126.79906,246.87817 127.35906,243.91819 127.35906,241.11821   C 127.35906,236.39825 127.59905,235.99825 129.99904,235.99825   C 131.59903,235.99825 133.11901,235.11826 133.83901,233.83827   C 134.559,232.39828 134.639,231.67828 133.83901,231.67828   C 133.19901,231.67828 132.71902,230.39829 132.71902,228.79831   C 132.71902,226.55832 132.47902,226.15832 131.43903,227.19832   C 130.71903,227.91831 129.19904,228.47831 127.99905,228.47831   C 126.71906,228.47831 124.39908,230.1583 122.71909,232.23828   C 119.43912,236.31825 117.35913,236.31825 118.39912,232.15828   C 118.87912,229.9983 118.63912,229.5183 116.71914,229.5183   C 114.79915,229.5183 114.55915,229.1183 115.19915,226.55832   C 115.51914,224.95833 116.31914,222.79835 116.79913,221.83836   C 117.35913,220.71837 117.27913,219.75837 116.71914,219.35838   C 116.15914,219.03838 115.91914,217.99839 116.31914,217.11839   C 117.03913,215.11841 125.19907,215.5184 127.83905,217.67839   C 129.27904,218.87838 129.67904,218.63838 130.55903,216.2384   C 131.59903,213.35842 132.39902,213.03842 136.95899,213.43842   C 139.43897,213.67842 139.51897,213.51842 137.91898,211.11844   C 136.79899,209.43845 134.799,208.39846 132.07902,207.99846   C 127.67905,207.35846 121.5191,204.55848 120.39911,202.6385   C 119.99911,201.9985 120.8791,199.75852 122.31909,197.51854   C 123.75908,195.35855 126.15907,191.35858 127.75905,188.6386   L 130.55903,183.59864   L 128.39905,180.95866   C 126.07907,177.99868 125.67907,175.3587 127.35906,174.31871   C 127.99905,173.91871 128.47905,172.71872 128.47905,171.59873   C 128.47905,169.75874 128.79905,169.67874 131.03903,170.71874   C 133.83901,171.91873 135.199,175.1187 133.75901,176.63869   C 133.19901,177.11869 133.11901,178.63868 133.43901,179.99867   C 134.07901,182.47865 134.959,182.55865 139.19897,180.79866   C 140.39896,180.31866 141.19895,181.11866 142.15895,183.67864   C 143.27894,186.87862 143.83893,187.19861 148.2389,187.35861   C 151.19888,187.43861 153.43886,186.95862 154.23886,185.99862   C 156.15884,183.75864 160.71881,184.07864 161.3588,186.55862   C 162.2388,189.99859 165.75877,189.99859 168.23875,186.55862   C 169.43874,184.79863 171.03873,183.43864 171.83873,183.43864   C 174.23871,183.43864 177.19869,179.11867 176.95869,175.9187   C 176.79869,173.75871 177.35869,172.39872 178.71868,171.67873   C 180.15867,170.95873 180.55866,169.83874 180.23866,167.91876   C 179.59867,164.79878 176.63869,163.51879 173.59871,165.11878   C 171.67873,166.15877 171.51873,165.99877 172.07873,162.6388   C 172.47872,160.39881 171.99873,157.83883 170.95873,155.75885   C 169.99874,153.91886 169.19875,150.87888 169.19875,149.0389   C 169.19875,146.07892 168.87875,145.75892 166.23877,145.91892   C 164.63878,146.07892 162.4788,145.75892 161.3588,145.35892   C 158.87882,144.23893 155.59885,147.27891 154.63885,151.51888   C 153.91886,154.79885 153.91886,154.79885 152.15887,152.55887   L 150.47889,150.23889   L 147.51891,152.87887   C 145.83892,154.31886 144.55893,156.47884 144.55893,157.99883   C 144.55893,159.59882 143.51894,161.03881 141.75895,161.9988   C 139.35897,163.27879 138.55897,163.27879 135.67899,161.5988   C 132.63902,159.83882 132.23902,159.83882 131.35903,161.4388   C 129.99904,163.91879 124.71908,162.4788 118.95912,158.07883   C 116.31914,156.07884 113.83916,154.47886 113.43916,154.47886   C 113.03916,154.47886 112.23917,155.51885 111.59917,156.87884   C 110.95918,158.15883 108.95919,159.83882 107.11921,160.47881   C 104.23923,161.5988 103.75923,161.5188 103.75923,160.07881   C 103.75923,159.11882 103.03924,157.59883 102.23924,156.63884   C 100.79925,155.11885 98.079273,136.39899 99.039266,135.279   C 99.279265,135.039 100.07926,135.279 100.79925,135.91899   C 101.51925,136.47899 103.67923,137.27898 105.51922,137.59898   C 108.1592,138.07898 109.35919,137.67898 111.35918,135.599   C 112.71917,134.15901 114.47915,132.95902 115.19915,132.95902   C 116.07914,132.95902 116.63914,131.75902 116.63914,129.83904   C 116.63914,125.67907 119.19912,123.35909 123.67908,123.35909   C 128.07905,123.35909 128.23905,122.47909 124.55908,116.31914   C 122.55909,112.71917 121.1191,111.51917 119.19912,111.51917   C 117.27913,111.51917 116.63914,110.95918 116.63914,109.27919   C 116.63914,107.11921 116.79913,107.11921 119.19912,108.6392   C 121.5191,110.23918 121.9191,110.15918 123.35909,108.5592   C 124.23908,107.5192 125.27907,105.75922 125.67907,104.55923   C 126.31906,102.79924 126.55906,102.71924 127.43906,104.07923   C 127.99905,104.87922 128.39905,106.95921 128.39905,108.6392   C 128.47905,112.15917 131.91902,116.31914 134.15901,115.51914   C 135.039,115.19915 135.99899,112.63917 136.39899,109.35919   C 137.03898,104.71922 136.79899,103.59923 135.279,102.39924   C 133.51901,101.11925 133.51901,100.95925 135.199,99.279265   C 136.23899,98.239272 137.03898,96.719284 137.03898,95.83929   C 137.03898,94.5593 137.43898,94.5593 139.27897,95.519292   C 142.23895,97.039281 143.11894,95.999289 143.99893,89.919334   C 144.63893,85.519367 144.47893,84.719372 142.47894,83.67938   C 140.95896,82.879386 139.59897,82.799387 138.15898,83.599381   C 134.31901,85.679365 131.27903,84.879371 129.19904,81.279398   L 127.27906,77.919423   L 133.99901,71.119473   C 139.99896,65.039518 140.87896,64.559522 142.39895,65.999511   C 145.03893,68.319494 153.27886,67.359501 154.47886,64.639521   C 155.43885,62.639536 166.39877,54.639595 168.31875,54.639595   C 168.79875,54.639595 169.19875,55.679588 169.19875,56.879579   C 169.19875,60.71955 171.19873,63.43953 173.19872,62.319538   C 174.63871,61.519544 175.3587,62.15954 176.95869,65.599514   C 177.99868,67.999496 178.87867,70.479478 178.87867,71.039474   C 178.87867,71.679469 179.91867,73.359457 181.19866,74.719447   L 183.43864,77.119429   L 187.75861,73.679454   L 192.07858,70.319479   L 191.43858,75.359442   C 190.87859,79.359412 191.03858,80.399404 192.23858,80.399404   C 193.11857,80.399404 194.79856,81.439397 195.99855,82.719387   C 197.99853,84.959371 198.23853,84.959371 200.07852,83.279383   C 201.43851,82.159391 203.59849,81.599396 206.47847,81.759394   L 210.87844,81.999393   L 211.59843,87.839349   C 212.79842,97.19928 213.59842,98.639269 217.99839,98.639269   C 221.51836,98.639269 221.75836,98.879268 221.75836,101.83925   C 221.75836,104.63922 222.15835,105.11922 224.71834,105.11922   C 228.23831,105.11922 229.3583,105.83922 231.19829,109.19919   C 232.63828,111.67917 232.07828,115.83914 230.31829,115.83914   C 229.8383,115.83914 227.59831,117.35913 225.51833,119.19912   C 222.39835,121.9191 221.75836,123.11909 222.31835,125.19907   C 222.63835,126.63906 222.39835,128.47905 221.75836,129.27904   C 220.87836,130.31903 220.95836,131.27903 221.99836,132.87902   C 223.03835,134.639 223.03835,135.359 221.99836,136.39899   C 221.27836,137.11898 220.71837,139.11897 220.71837,140.79896   C 220.71837,143.35894 221.03836,143.75894 222.87835,143.19894   C 224.71834,142.55894 225.03833,142.95894 225.03833,146.47891   C 225.03833,148.7189 224.31834,150.95888 223.43834,151.67888   C 222.07835,152.63887 222.07835,153.19887 223.83834,155.43885   C 225.67833,157.83883 226.07833,157.91883 229.1983,156.63884   C 232.31828,155.35885 232.87827,155.43885 238.39823,159.11882   C 242.7982,161.9988 245.43818,163.03879 248.71816,163.03879   C 251.35814,163.03879 254.63811,163.91879 256.7181,165.19878   L 260.23807,167.35876   L 255.19811,172.15872   L 250.23815,176.95869   L 252.55813,178.87867   C 256.3981,181.91865 256.6381,185.67862 253.51812,191.83858   C 251.43814,195.83855 250.71814,198.95853 250.71814,203.51849   C 250.71814,212.71842 248.79816,221.91836 245.59818,227.59831   C 242.7982,232.47828 242.7182,232.55828 239.83822,231.03829   C 235.35826,228.71831 234.63826,229.1183 234.63826,234.15827   C 234.63826,238.39823 234.31826,239.03823 230.87829,240.87822   C 228.79831,241.99821 227.11832,243.5982 227.11832,244.39819   C 227.11832,245.51818 226.31832,245.75818 224.07834,245.27818   C 222.31835,244.95819 219.19838,244.95819 217.03839,245.27818   C 213.91842,245.75818 213.19842,246.39817 213.19842,248.39816   C 213.19842,251.11814 210.39844,253.11813 206.71847,253.11813   C 204.79848,253.11813 204.47849,253.67812 204.71848,256.6381   C 205.19848,261.35806 204.07849,262.79805 199.91852,262.79805   C 197.11854,262.79805 196.15855,263.43805 194.87856,265.91803   L 193.35857,269.11801   z "
     id="path203" />
  <path
     style="fill:#b9b9b9;fill-rule:nonzero;fill-opacity:1;stroke:none;"
     d="  M 164.31878,187.75861   L 163.35879,187.43861   L 162.5588,185.27863   C 162.1588,184.15864 161.7588,183.19864 161.7588,183.19864   C 161.5188,183.11864 155.59885,182.79865 155.59885,182.87865   C 155.59885,182.87865 154.79885,183.75864 153.83886,184.79863   C 152.55887,186.31862 152.15887,186.71862 151.99887,186.71862   C 151.91887,186.71862 151.51888,186.71862 151.11888,186.71862   L 150.47889,186.71862   L 149.0389,185.75862   C 148.3189,185.19863 147.59891,184.71863 147.59891,184.71863   C 147.51891,184.71863 146.87891,185.03863 146.15892,185.43863   C 145.43892,185.91862 144.79893,186.23862 144.79893,186.15862   C 144.79893,186.15862 144.07893,184.55863 143.27894,182.71865   C 141.83895,179.43867 141.75895,179.27867 141.19895,178.63868   C 140.95896,178.23868 140.71896,177.91868 140.71896,177.91868   C 140.63896,177.91868 139.99896,178.31868 139.19897,178.79868   C 138.15898,179.43867 137.51898,179.83867 136.63899,180.23866   C 135.99899,180.47866 135.439,180.71866 135.439,180.71866   C 135.439,180.71866 135.119,179.99867 134.879,179.27867   L 134.399,177.83868   L 134.719,177.43869   C 134.959,177.19869 135.279,176.79869 135.599,176.47869   L 135.99899,175.9987   L 135.359,173.43872   C 134.799,171.03873 134.719,170.87873 134.559,170.71874   C 134.399,170.63874 133.03901,170.07874 131.51903,169.35875   C 129.91904,168.71875 128.71905,168.15875 128.71905,168.15875   C 128.71905,168.07875 129.43904,166.95876 130.31903,165.59877   C 131.19903,164.31878 132.07902,162.87879 132.31902,162.5588   L 132.79902,161.8388   L 134.879,163.27879   L 136.95899,164.71878   L 137.59898,164.79878   C 137.91898,164.79878 138.79897,164.87878 139.51897,164.95878   L 140.79896,165.03878   L 142.07895,163.91879   L 143.35894,162.71879   L 144.47893,162.2388   C 145.11893,161.9988 145.67892,161.7588 145.67892,161.6788   C 145.67892,161.6788 145.75892,160.31881 145.91892,158.63882   C 145.99892,156.95884 146.07892,155.59885 146.07892,155.59885   C 146.07892,155.59885 146.47891,155.43885 147.03891,155.27885   L 147.9989,154.87885   L 149.19889,153.67886   C 149.83889,152.95887 150.31889,152.39887 150.39889,152.39887   C 150.39889,152.39887 150.71888,152.95887 151.03888,153.59886   C 151.59888,154.79885 151.67888,154.79885 152.39887,155.51885   C 152.79887,155.91885 153.11887,156.23884 153.19887,156.23884   C 153.19887,156.23884 153.51886,156.31884 153.91886,156.47884   C 154.23886,156.63884 154.55886,156.71884 154.55886,156.71884   C 154.63885,156.71884 154.87885,156.39884 155.19885,155.91885   L 155.67885,155.11885   L 155.67885,154.71885   C 155.59885,154.39886 155.67885,153.67886 155.99884,151.83888   L 156.39884,149.43889   L 157.67883,148.2389   C 158.31883,147.59891 158.87882,147.03891 158.87882,146.95891   C 158.87882,146.95891 159.03882,146.79891 159.19882,146.55891   C 159.35882,146.31892 159.43882,146.15892 159.43882,146.15892   C 159.43882,146.15892 160.31881,146.63891 161.27881,147.35891   C 162.3188,147.9989 163.11879,148.5589 163.19879,148.5589   C 163.27879,148.5589 165.11878,147.59891 165.19878,147.51891   C 165.27878,147.43891 165.43877,147.43891 166.31877,147.51891   C 166.87876,147.59891 167.35876,147.67891 167.35876,147.75891   C 167.43876,147.75891 167.51876,149.0389 167.67876,150.55888   L 167.91876,153.35886   L 169.11875,155.59885   C 169.83874,156.79884 170.39874,157.83883 170.39874,157.91883   C 170.31874,157.91883 170.47874,158.23883 170.63874,158.55883   L 170.87873,159.11882   L 170.95873,160.95881   L 171.03873,162.71879   L 169.99874,163.75879   C 169.43874,164.23878 169.03875,164.71878 169.03875,164.79878   C 169.11875,164.95878 171.27873,168.15875 171.35873,168.15875   C 171.35873,168.15875 172.15872,167.75876 173.11872,167.11876   L 174.8787,166.07877   L 176.47869,166.23877   L 178.07868,166.31877   L 178.39868,166.95876   C 178.71868,167.59876 178.71868,167.67876 178.87867,168.63875   C 178.95867,169.19875 179.03867,169.67874 179.03867,169.67874   C 179.03867,169.75874 178.15868,170.39874 177.11869,171.19873   L 175.2787,172.55872   L 175.1187,173.35872   C 174.79871,174.63871 174.79871,174.79871 175.4387,176.39869   C 175.8387,177.51869 175.9187,177.75868 175.9187,177.83868   C 175.8387,177.91868 175.0387,178.87867 174.07871,180.07867   L 172.31872,182.15865   L 170.95873,182.23865   L 169.51874,182.31865   L 169.03875,182.79865   C 168.71875,183.11864 168.15875,183.83864 166.95876,185.67862   C 166.07877,186.95862 165.35878,188.07861 165.27878,187.99861   C 165.27878,187.99861 164.79878,187.91861 164.31878,187.75861   z "
     id="path205" />
</svg>
